<svg width="18" height="18" viewBox="0 0 18 18" fill="none" xmlns="http://www.w3.org/2000/svg">
<path d="M9.17838 5.32231C9.04575 5.32231 8.91456 5.32909 8.78531 5.34234C8.65606 5.35559 8.52859 5.37523 8.4033 5.40101C8.27801 5.42678 8.15494 5.45871 8.03434 5.49638L7.68036 5.62649L7.34333 5.78938L7.0253 5.98309L6.72814 6.20557L6.45393 6.4549L6.2046 6.72914L5.9821 7.02625L5.78834 7.3443L5.6255 7.68127C5.57656 7.79653 5.53302 7.91469 5.49533 8.03531C5.45764 8.15594 5.42575 8.27907 5.39995 8.40434C5.37415 8.52961 5.35453 8.65706 5.34124 8.78634C5.32796 8.91562 5.32129 9.04679 5.32129 9.17941C5.32129 9.31203 5.32805 9.4432 5.34124 9.57248C5.35436 9.70074 5.37396 9.82825 5.39995 9.95452C5.42575 10.0803 5.45764 10.2029 5.49533 10.3236C5.53302 10.4442 5.57651 10.5623 5.6255 10.6776L5.78834 11.0146L5.9821 11.3326L6.2046 11.6297L6.45393 11.904L6.72814 12.1533L7.0253 12.3758L7.34333 12.5695L7.68036 12.7324L8.03434 12.8625L8.4033 12.9579C8.52957 12.9839 8.65707 13.0035 8.78531 13.0166C8.91591 13.0299 9.04711 13.0366 9.17838 13.0366C9.31102 13.0366 9.4422 13.0298 9.57141 13.0166C9.69965 13.0035 9.82715 12.9839 9.95342 12.9579L10.3224 12.8625L10.6764 12.7324L11.0134 12.5695L11.3315 12.3758L11.6286 12.1533L11.9029 11.904L12.1522 11.6297L12.3747 11.3326L12.5685 11.0146L12.7313 10.6776L12.8615 10.3236C12.8992 10.2029 12.9311 10.0798 12.9569 9.95452L13.0156 9.57243C13.0288 9.44315 13.0356 9.31198 13.0356 9.17936C13.0356 9.04674 13.0288 8.91557 13.0156 8.78629C13.0025 8.65805 12.9829 8.53055 12.9569 8.40429C12.9311 8.27854 12.8992 8.15593 12.8615 8.03526L12.7313 7.68122L12.5685 7.34426L12.3747 7.0262L12.1522 6.72909L11.9029 6.45485L11.6286 6.20553L11.3315 5.98304L11.0134 5.78934L10.6764 5.62644L10.3224 5.49634L9.95342 5.40096L9.57141 5.34229C9.44083 5.32894 9.30965 5.3223 9.17838 5.32231ZM9.17838 6.65364C9.26608 6.65364 9.35262 6.65799 9.43786 6.6666L9.68911 6.70466L9.93182 6.76657L10.1642 6.85107L10.3852 6.95699L10.593 7.08298L10.7872 7.22794L10.9663 7.39054L11.1289 7.56959L11.2738 7.76383L11.3998 7.9721L11.5057 8.19313C11.5375 8.26877 11.5657 8.3463 11.5902 8.42558C11.6148 8.50485 11.6354 8.58586 11.6521 8.66837C11.6687 8.75089 11.6811 8.83485 11.6901 8.92012L11.703 9.17965C11.703 9.26734 11.6987 9.35391 11.6901 9.43923C11.6815 9.52455 11.6688 9.60851 11.6521 9.69098C11.6353 9.77344 11.6146 9.85445 11.5902 9.93377L11.5057 10.1662L11.3998 10.3873L11.2738 10.5955L11.1289 10.7898L10.9663 10.9688L10.7872 11.1314L10.593 11.2764L10.3852 11.4024L10.1642 11.5083L9.93182 11.5928L9.68911 11.6547L9.43786 11.6927C9.35162 11.7014 9.26501 11.7057 9.17834 11.7057C9.09165 11.7057 9.00502 11.7014 8.91877 11.6927L8.66751 11.6547C8.58503 11.6379 8.50405 11.6172 8.42476 11.5928L8.19234 11.5083L7.97138 11.4024L7.76361 11.2764L7.56937 11.1314L7.3903 10.9688L7.22771 10.7898L7.08275 10.5955L6.95674 10.3873L6.85092 10.1662L6.76636 9.93377L6.70451 9.69098L6.66648 9.43923C6.65784 9.35297 6.65352 9.26634 6.65353 9.17965C6.65352 9.09298 6.65784 9.00636 6.66648 8.92012C6.67504 8.83485 6.68774 8.75084 6.70451 8.66837C6.72111 8.58648 6.74177 8.50546 6.76641 8.42562L6.85097 8.19318L6.95678 7.97214L7.0828 7.76388L7.22775 7.56964L7.39035 7.39059L7.56942 7.22798L7.76366 7.08303L7.97143 6.95704L8.19239 6.85112C8.26845 6.81915 8.34603 6.79095 8.42485 6.76662L8.66761 6.70471C8.75009 6.68798 8.83406 6.67521 8.91886 6.66665C9.00512 6.658 9.0917 6.65362 9.17838 6.65364Z" fill="white"/>
<path d="M14.0004 3.39355C13.9682 3.39356 13.9361 3.39518 13.9041 3.39839C13.8721 3.4016 13.8403 3.40641 13.8088 3.4128C13.7773 3.41919 13.7461 3.42714 13.7154 3.43664C13.6847 3.44614 13.6545 3.45718 13.6249 3.4697C13.5953 3.48223 13.5663 3.49624 13.5381 3.51167C13.5099 3.52708 13.4825 3.54388 13.4559 3.56202C13.4294 3.58018 13.4038 3.59965 13.3792 3.62037C13.3546 3.64107 13.3311 3.66298 13.3087 3.68603C13.2863 3.7091 13.265 3.73326 13.2451 3.75845C13.2251 3.78363 13.2064 3.8098 13.189 3.83686C13.1717 3.86389 13.1557 3.89178 13.1411 3.92041C13.1265 3.94906 13.1133 3.97843 13.1017 4.00839C13.09 4.03836 13.0799 4.06888 13.0713 4.09986C13.0627 4.13083 13.0556 4.16221 13.0502 4.19389C13.0447 4.22556 13.0408 4.25748 13.0386 4.28953C13.037 4.31224 13.0361 4.335 13.0361 4.35777C13.0361 4.38993 13.0377 4.42207 13.041 4.45407C13.0442 4.48605 13.049 4.51785 13.0554 4.54936C13.0617 4.58086 13.0697 4.61203 13.0792 4.64273C13.0887 4.67345 13.0997 4.70367 13.1123 4.73329C13.1248 4.76291 13.1388 4.79189 13.1542 4.82012C13.1696 4.84834 13.1864 4.87577 13.2046 4.90231C13.2227 4.92883 13.2422 4.95443 13.2629 4.979C13.2836 5.0036 13.3055 5.02715 13.3286 5.04955C13.3517 5.07195 13.3759 5.09317 13.401 5.11315C13.4262 5.13314 13.4524 5.15186 13.4795 5.16924C13.5065 5.18661 13.5344 5.20262 13.5631 5.21721C13.5917 5.2318 13.6211 5.24496 13.6511 5.25662C13.681 5.26826 13.7115 5.2784 13.7425 5.287C13.7735 5.29559 13.8049 5.30262 13.8366 5.30807C13.8682 5.31354 13.9002 5.31742 13.9322 5.31971C13.9549 5.32132 13.9777 5.32213 14.0004 5.32213C14.0326 5.32214 14.0647 5.32054 14.0967 5.31734C14.1287 5.31413 14.1605 5.30932 14.192 5.30293C14.2235 5.29654 14.2547 5.28859 14.2854 5.27909C14.3161 5.26959 14.3463 5.25856 14.376 5.24603C14.4056 5.23351 14.4345 5.21952 14.4627 5.20411C14.491 5.18869 14.5184 5.17187 14.5449 5.15371C14.5714 5.13557 14.5971 5.11611 14.6217 5.09541C14.6462 5.0747 14.6698 5.05276 14.6922 5.0297C14.7146 5.00664 14.7358 4.98247 14.7558 4.95728C14.7757 4.9321 14.7945 4.90593 14.8118 4.87887C14.8292 4.85182 14.8452 4.82392 14.8598 4.79527C14.8743 4.76662 14.8875 4.73726 14.8992 4.70729C14.9108 4.67733 14.921 4.6468 14.9296 4.61583C14.9381 4.58485 14.9452 4.55347 14.9507 4.52179C14.9561 4.49012 14.96 4.4582 14.9623 4.42615C14.9639 4.40344 14.9647 4.38068 14.9647 4.35792C14.9647 4.32577 14.9631 4.29365 14.9599 4.26167C14.9567 4.22968 14.9519 4.19788 14.9455 4.16637C14.9391 4.13487 14.9311 4.10371 14.9216 4.073C14.9121 4.04228 14.9011 4.01206 14.8886 3.98244C14.876 3.95282 14.862 3.92384 14.8466 3.89562C14.8312 3.8674 14.8144 3.83996 14.7962 3.81343C14.7781 3.78688 14.7586 3.76127 14.7379 3.73668C14.7172 3.71208 14.6953 3.68854 14.6722 3.66613C14.6492 3.64373 14.625 3.62251 14.5998 3.60253C14.5746 3.58256 14.5484 3.56386 14.5214 3.5465C14.4943 3.52912 14.4664 3.51311 14.4377 3.49852C14.4091 3.48393 14.3797 3.47078 14.3498 3.45912C14.3198 3.44747 14.2893 3.43733 14.2583 3.42873C14.2273 3.42013 14.196 3.41308 14.1643 3.40761C14.1326 3.40216 14.1007 3.39829 14.0686 3.39602C14.0459 3.39441 14.0232 3.39356 14.0004 3.39355Z" fill="white"/>
<path d="M8.34442 0.500162C7.86165 0.499382 7.43081 0.501387 7.04379 0.506847L6.00618 0.5347C5.69879 0.548069 5.42721 0.565504 5.18343 0.588065C5.06154 0.599318 4.94655 0.611908 4.83756 0.625779C4.73385 0.638874 4.63041 0.654123 4.52733 0.671515C4.42919 0.688227 4.33605 0.706275 4.24674 0.725883C4.15744 0.745492 4.07214 0.766661 3.98984 0.78939C3.90939 0.811614 3.82957 0.836061 3.75046 0.8627C3.67294 0.888882 3.59732 0.916624 3.52264 0.94626C3.37328 1.00553 3.22759 1.07204 3.07757 1.14658C2.96213 1.20396 2.85548 1.26206 2.75416 1.32356C2.65285 1.38506 2.55687 1.45001 2.4629 1.52076C2.36612 1.59397 2.27284 1.67172 2.18337 1.75373C2.08984 1.83907 1.9943 1.93293 1.89505 2.03783C1.77032 2.16891 1.66195 2.29113 1.56575 2.41106C1.51765 2.471 1.47261 2.53027 1.43018 2.58988C1.38822 2.64862 1.34811 2.70867 1.3099 2.76992C1.27209 2.83064 1.23628 2.89248 1.20203 2.9561C1.16724 3.02081 1.13436 3.08653 1.10344 3.15318C1.04016 3.28933 0.981105 3.43595 0.922162 3.59962C0.878434 3.72061 0.839278 3.84322 0.804777 3.96717C0.769579 4.09385 0.738272 4.22637 0.710358 4.3697C0.682444 4.51304 0.658088 4.66718 0.63668 4.83764C0.61361 5.02449 0.59518 5.21189 0.581407 5.39966C0.565838 5.60611 0.552937 5.83328 0.542372 6.08613L0.517349 6.92686L0.503892 7.95169L0.5 9.19044L0.511399 10.9918L0.546987 12.3566L0.574401 12.8897L0.608654 13.3315C0.619635 13.4506 0.633373 13.5694 0.649859 13.6878C0.664872 13.793 0.680998 13.885 0.698347 13.9647C0.73355 14.1266 0.775176 14.2871 0.823127 14.4457C0.86904 14.5976 0.921545 14.7474 0.980493 14.8947C1.03843 15.039 1.10183 15.1782 1.17078 15.3121C1.23973 15.446 1.31424 15.5747 1.39431 15.6983C1.47439 15.8219 1.56002 15.9405 1.65144 16.0539C1.74275 16.1674 1.83988 16.2761 1.94242 16.3795C2.04513 16.4831 2.15345 16.5817 2.26761 16.6754C2.38312 16.7702 2.50319 16.8592 2.62738 16.9422C2.74265 17.0194 2.8567 17.0901 2.97158 17.155C3.08647 17.2199 3.20235 17.2788 3.32146 17.3323C3.44057 17.3859 3.56268 17.4341 3.69024 17.4774C3.8178 17.5207 3.9507 17.5593 4.09116 17.5935C4.23162 17.6277 4.38031 17.6577 4.53768 17.6839C4.69504 17.7101 4.86325 17.7325 5.04297 17.7519C5.22269 17.7712 5.41442 17.7872 5.62044 17.8006C5.82646 17.8139 6.04666 17.8246 6.28326 17.8332C6.64876 17.8465 7.20204 17.8542 7.84007 17.8571L9.90556 17.853L11.8615 17.8255L12.6051 17.8046L13.0896 17.7796C13.1936 17.7711 13.2954 17.7611 13.3936 17.7494C13.4918 17.7376 13.5886 17.7242 13.6829 17.7089C13.7773 17.6936 13.8694 17.6766 13.96 17.6577C14.0496 17.639 14.1386 17.6181 14.2272 17.5951C14.3148 17.5728 14.4012 17.5475 14.4867 17.5206C14.5723 17.4937 14.6569 17.4646 14.741 17.4334C14.8256 17.402 14.9095 17.3685 14.9925 17.3331C15.076 17.2974 15.1595 17.2593 15.2433 17.2189C15.3719 17.1568 15.4754 17.1051 15.5663 17.0545C15.6518 17.0075 15.7342 16.955 15.8129 16.8972C15.8905 16.8399 15.9677 16.7748 16.0567 16.6927C16.1456 16.6105 16.2464 16.5116 16.3713 16.3865C16.481 16.2766 16.5735 16.1812 16.6533 16.0943C16.7331 16.0075 16.8003 15.9293 16.8593 15.854C16.9155 15.7825 16.9678 15.7081 17.0161 15.6311C17.0632 15.5559 17.1066 15.4778 17.1508 15.3911C17.2173 15.2608 17.2764 15.1401 17.3294 15.0236C17.3809 14.9113 17.4279 14.7971 17.4703 14.6811C17.5121 14.566 17.5484 14.449 17.5788 14.3304C17.6102 14.2084 17.6372 14.0796 17.6606 13.9384C17.6839 13.7971 17.7037 13.6433 17.7208 13.4717C17.7379 13.3 17.7525 13.1102 17.7653 12.897L17.7992 12.1814L17.8283 11.2914L17.8491 10.2998L17.8571 9.26297L17.8386 7.22661L17.8137 6.31453L17.7798 5.53141L17.7375 4.92086C17.7222 4.75096 17.7056 4.61715 17.688 4.52669C17.6686 4.42673 17.6469 4.32723 17.6229 4.22827C17.5995 4.13197 17.5738 4.03626 17.5458 3.94121C17.5186 3.84861 17.4889 3.75672 17.457 3.66563C17.4254 3.57566 17.3919 3.48759 17.3569 3.40141C17.3219 3.31524 17.2839 3.23106 17.2445 3.14867C17.205 3.06628 17.1636 2.9859 17.1202 2.90735C17.0768 2.82881 17.0315 2.75221 16.9842 2.67751C16.9369 2.6028 16.8876 2.53 16.8363 2.45914C16.7852 2.3885 16.732 2.31949 16.6767 2.25219C16.6216 2.18526 16.5645 2.12008 16.5053 2.05677C16.4462 1.99353 16.3851 1.93219 16.3222 1.87283C16.2592 1.81344 16.1943 1.75595 16.1273 1.70036C16.0601 1.64458 15.9912 1.59091 15.9207 1.53942C15.8494 1.48741 15.7766 1.43759 15.7023 1.39002C15.627 1.34177 15.5502 1.29578 15.4722 1.25209C15.3928 1.20767 15.3121 1.16554 15.2303 1.12575C15.0945 1.05962 14.9689 1.00096 14.8457 0.948934C14.7245 0.897297 14.6009 0.851436 14.4754 0.811505C14.3492 0.771675 14.2178 0.737527 14.0732 0.708059C13.9287 0.67859 13.771 0.654023 13.5926 0.633133C13.4141 0.612243 13.2149 0.595365 12.987 0.581326C12.7592 0.567288 12.5029 0.556258 12.2102 0.547345L11.2156 0.525062L9.95689 0.510189L8.34442 0.500162ZM9.18157 2.0322L11.5061 2.04546L12.383 2.0624C12.6245 2.06919 12.8088 2.07716 12.9168 2.08635C13.0575 2.09821 13.1915 2.11309 13.3197 2.13091C13.4427 2.14793 13.5651 2.16909 13.6867 2.19436C13.8034 2.21887 13.9148 2.24673 14.0214 2.27815C14.128 2.30957 14.2298 2.34477 14.3275 2.38371C14.4252 2.42265 14.5186 2.46549 14.6086 2.51239C14.6978 2.55894 14.7844 2.61017 14.8682 2.66586C14.9517 2.72129 15.0321 2.78101 15.1101 2.84535C15.1882 2.90969 15.2639 2.97866 15.3378 3.05241C15.4158 3.13023 15.4878 3.2095 15.5541 3.29128C15.6202 3.37255 15.6813 3.45773 15.7372 3.54636C15.7937 3.63625 15.8446 3.72955 15.8897 3.82573C15.9357 3.92377 15.9771 4.02739 16.0142 4.13752C16.0514 4.24765 16.0845 4.36469 16.1138 4.48975C16.1445 4.62234 16.1702 4.75604 16.1908 4.89056C16.2131 5.03317 16.2321 5.18525 16.2482 5.34808C16.2643 5.51091 16.2777 5.68455 16.2887 5.87033C16.2975 6.01934 16.3052 6.21599 16.3117 6.44823L16.328 7.2401L16.3404 9.1798L16.3262 11.1177L16.3092 11.9072L16.2858 12.4815C16.2696 12.7504 16.2524 12.9765 16.232 13.1732C16.2217 13.2716 16.2106 13.3626 16.1982 13.448C16.1867 13.5287 16.173 13.6091 16.1571 13.689C16.1427 13.762 16.1259 13.8344 16.1068 13.9063C16.0885 13.9749 16.068 14.0428 16.0451 14.11C16.0222 14.1775 15.9971 14.2443 15.9701 14.3103C15.9416 14.38 15.9115 14.449 15.8798 14.5174C15.8516 14.5784 15.8219 14.6377 15.7906 14.6955C15.7596 14.7527 15.7266 14.8088 15.6918 14.8637C15.6574 14.9181 15.6212 14.971 15.5834 15.0222C15.5458 15.0732 15.5064 15.1229 15.4652 15.171C15.4241 15.219 15.3813 15.2655 15.3369 15.3103C15.2924 15.3551 15.2463 15.3984 15.1984 15.4402C15.1506 15.482 15.101 15.5221 15.0497 15.5608C14.9984 15.5994 14.9453 15.6365 14.8904 15.6721C14.8355 15.7076 14.7789 15.7417 14.7204 15.7742C14.662 15.8068 14.6017 15.8378 14.5397 15.8674C14.4766 15.8974 14.4127 15.9256 14.3479 15.9518C14.281 15.9788 14.2133 16.004 14.145 16.0272C14.006 16.0747 13.8593 16.1164 13.705 16.1523C13.5441 16.1895 13.3817 16.22 13.2183 16.2436C13.1555 16.2527 13.0111 16.2614 12.8042 16.2694L12.0159 16.2914L9.78111 16.3204L7.44199 16.3241L6.52337 16.3143L5.92688 16.2957L5.48704 16.2647C5.35047 16.2532 5.22347 16.2404 5.10447 16.2258C4.98547 16.2113 4.87465 16.1951 4.77039 16.1768C4.67159 16.1597 4.57338 16.1393 4.47595 16.1155C4.38711 16.0939 4.29918 16.0687 4.21238 16.0399C4.12869 16.012 4.04867 15.9814 3.97083 15.9477C3.89298 15.914 3.81735 15.8771 3.74245 15.8367C3.66755 15.7964 3.59343 15.7526 3.51847 15.7049C3.46192 15.6689 3.40726 15.6325 3.35465 15.5938C3.30205 15.5552 3.25123 15.5168 3.20229 15.4764C3.15336 15.4361 3.10637 15.3945 3.06105 15.3517C3.01604 15.3092 2.97256 15.265 2.93071 15.2193C2.88901 15.1737 2.84914 15.1268 2.81088 15.0782C2.77248 15.0295 2.73588 14.9793 2.70117 14.9278C2.66595 14.8756 2.63262 14.8221 2.60125 14.7674C2.56955 14.7122 2.53941 14.6552 2.51077 14.5964C2.48166 14.5364 2.45449 14.4755 2.42931 14.4138C2.40373 14.351 2.37949 14.2861 2.35669 14.2192C2.31109 14.0852 2.27106 13.9426 2.23625 13.7905C2.20144 13.6384 2.17174 13.4769 2.14661 13.3048C2.12148 13.1326 2.10124 12.9501 2.08511 12.7562C2.07321 12.6133 2.06376 12.3907 2.05653 12.11L2.0414 11.1114L2.04696 8.56591L2.09073 6.13354L2.12409 5.27655L2.143 4.99328C2.14956 4.91763 2.15634 4.86159 2.16329 4.82795C2.1862 4.71726 2.20928 4.61426 2.23313 4.51783C2.25542 4.42686 2.28021 4.33652 2.30748 4.24693C2.33339 4.16236 2.36069 4.08315 2.38989 4.00811C2.41804 3.93542 2.44941 3.86403 2.48392 3.79414C2.51761 3.72618 2.55381 3.66112 2.59313 3.59778C2.63244 3.53444 2.67487 3.473 2.72113 3.41189C2.7674 3.35078 2.81722 3.29045 2.87144 3.22928C2.92565 3.16811 2.98421 3.10634 3.04771 3.04266C3.12172 2.9681 3.19878 2.89664 3.2787 2.82847C3.35416 2.76416 3.43285 2.70375 3.51447 2.64748C3.59471 2.59177 3.677 2.5422 3.76269 2.49663C3.84838 2.45106 3.93746 2.40989 4.03116 2.37285C4.12486 2.3358 4.22328 2.30266 4.32754 2.27258C4.43707 2.2418 4.54782 2.21554 4.65951 2.19386C4.77695 2.1708 4.90167 2.15069 5.03485 2.13314C5.16803 2.11559 5.30971 2.10044 5.46118 2.0873C5.56683 2.07816 5.74889 2.07003 5.98861 2.06318L6.86107 2.04591L9.18157 2.0322Z" fill="white"/>
</svg>
