<svg width="16" height="17" viewBox="0 0 16 17" fill="none" xmlns="http://www.w3.org/2000/svg">
<path d="M15.2136 9.83259C15.6929 5.79797 14.9833 3.25081 13.7033 2.09873L13.704 2.09806C11.6382 0.130625 4.66143 -0.160575 2.18991 2.18643C1.08001 3.33449 0.689065 5.01943 0.646222 7.10536C0.603379 9.19196 0.552503 13.1007 4.19484 14.1611H4.19818L4.19484 15.7804C4.19484 15.7804 4.17007 16.4365 4.58913 16.5683C5.06844 16.7237 5.28533 16.4191 6.77614 14.6384C9.26907 14.8546 11.1836 14.3592 11.4012 14.2869C11.9046 14.1183 14.753 13.7414 15.2136 9.83259ZM7.02181 13.499C7.02181 13.499 5.44398 15.4665 4.95329 15.9772C4.79263 16.1433 4.61657 16.1279 4.61925 15.7985C4.61925 15.5823 4.6313 13.1101 4.6313 13.1101C1.54325 12.2251 1.72533 8.89674 1.7588 7.15557C1.79228 5.41372 2.11092 3.98718 3.05079 3.02656C5.21906 0.993513 11.3356 1.44805 12.894 2.91275C14.7992 4.60171 14.1211 9.37337 14.1251 9.53604C13.7335 12.7988 11.4253 13.0057 11.0009 13.1469C10.8195 13.2072 9.13585 13.6403 7.02181 13.499Z" fill="white"/>
<path d="M7.89447 3.40918C7.63674 3.40918 7.63674 3.81083 7.89447 3.81418C9.89404 3.82958 11.5408 5.22332 11.5589 7.77985C11.5589 8.04963 11.9539 8.04628 11.9505 7.7765H11.9498C11.9284 5.02182 10.1303 3.42458 7.89447 3.40918Z" fill="white"/>
<path d="M10.5252 7.3561C10.5192 7.62254 10.9135 7.63525 10.9169 7.36548C10.9497 5.84655 10.0131 4.5954 8.2532 4.46352C7.99547 4.44478 7.9687 4.84978 8.22576 4.86852C9.75205 4.98433 10.556 6.02596 10.5252 7.3561Z" fill="white"/>
<path d="M10.1068 9.08376C9.77611 8.8923 9.43939 9.01146 9.30015 9.19957L9.00895 9.57645C8.86101 9.76791 8.58454 9.74247 8.58454 9.74247C6.5669 9.20894 6.02735 7.09757 6.02735 7.09757C6.02735 7.09757 6.00258 6.81173 6.18734 6.65843L6.5515 6.35719C6.73359 6.2126 6.84873 5.8645 6.6633 5.52242C6.16792 4.6274 5.83522 4.3188 5.66586 4.08182C5.48779 3.8589 5.22002 3.80869 4.94154 3.95932H4.93552C4.35647 4.29804 3.72252 4.93199 3.92536 5.58468C4.27145 6.27284 4.9074 8.46655 6.93441 10.124C7.887 10.9079 9.39454 11.7112 10.0345 11.8967L10.0405 11.906C10.6711 12.1162 11.2843 11.4575 11.6117 10.8611V10.8564C11.7569 10.5679 11.7087 10.2947 11.4965 10.116C11.1203 9.74916 10.5526 9.34416 10.1068 9.08376Z" fill="white"/>
<path d="M8.52967 5.95719C9.17299 5.99468 9.48495 6.33073 9.51842 7.02091C9.53047 7.29069 9.92208 7.27194 9.91003 7.00216C9.86719 6.10112 9.39725 5.59905 8.55109 5.55219C8.29336 5.53679 8.26926 5.94179 8.52967 5.95719Z" fill="white"/>
</svg>
