<svg width="27" height="27" viewBox="0 0 27 27" fill="none" xmlns="http://www.w3.org/2000/svg">
<path d="M13.6784 9.82231C13.5457 9.82231 13.4146 9.82909 13.2853 9.84234C13.1561 9.85559 13.0286 9.87523 12.9033 9.90101C12.778 9.92678 12.6549 9.95871 12.5343 9.99638L12.1804 10.1265L11.8433 10.2894L11.5253 10.4831L11.2281 10.7056L10.9539 10.9549L10.7046 11.2291L10.4821 11.5262L10.2883 11.8443L10.1255 12.1813C10.0766 12.2965 10.033 12.4147 9.99533 12.5353C9.95764 12.6559 9.92575 12.7791 9.89995 12.9043C9.87415 13.0296 9.85453 13.1571 9.84124 13.2863C9.82796 13.4156 9.82129 13.5468 9.82129 13.6794C9.82129 13.812 9.82805 13.9432 9.84124 14.0725C9.85436 14.2007 9.87396 14.3282 9.89995 14.4545C9.92575 14.5803 9.95764 14.7029 9.99533 14.8236C10.033 14.9442 10.0765 15.0623 10.1255 15.1776L10.2883 15.5146L10.4821 15.8326L10.7046 16.1297L10.9539 16.404L11.2281 16.6533L11.5253 16.8758L11.8433 17.0695L12.1804 17.2324L12.5343 17.3625L12.9033 17.4579C13.0296 17.4839 13.1571 17.5035 13.2853 17.5166C13.4159 17.5299 13.5471 17.5366 13.6784 17.5366C13.811 17.5366 13.9422 17.5298 14.0714 17.5166C14.1997 17.5035 14.3272 17.4839 14.4534 17.4579L14.8224 17.3625L15.1764 17.2324L15.5134 17.0695L15.8315 16.8758L16.1286 16.6533L16.4029 16.404L16.6522 16.1297L16.8747 15.8326L17.0685 15.5146L17.2313 15.1776L17.3615 14.8236C17.3992 14.7029 17.4311 14.5798 17.4569 14.4545L17.5156 14.0724C17.5288 13.9431 17.5356 13.812 17.5356 13.6794C17.5356 13.5467 17.5288 13.4156 17.5156 13.2863C17.5025 13.158 17.4829 13.0306 17.4569 12.9043C17.4311 12.7785 17.3992 12.6559 17.3615 12.5353L17.2313 12.1812L17.0685 11.8443L16.8747 11.5262L16.6522 11.2291L16.4029 10.9549L16.1286 10.7055L15.8315 10.483L15.5134 10.2893L15.1764 10.1264L14.8224 9.99634L14.4534 9.90096L14.0714 9.84229C13.9408 9.82894 13.8096 9.8223 13.6784 9.82231ZM13.6784 11.1536C13.7661 11.1536 13.8526 11.158 13.9379 11.1666L14.1891 11.2047L14.4318 11.2666L14.6642 11.3511L14.8852 11.457L15.093 11.583L15.2872 11.7279L15.4663 11.8905L15.6289 12.0696L15.7738 12.2638L15.8998 12.4721L16.0057 12.6931C16.0375 12.7688 16.0657 12.8463 16.0902 12.9256C16.1148 13.0048 16.1354 13.0859 16.1521 13.1684C16.1687 13.2509 16.1811 13.3348 16.1901 13.4201L16.203 13.6797C16.203 13.7673 16.1987 13.8539 16.1901 13.9392C16.1815 14.0245 16.1688 14.1085 16.1521 14.191C16.1353 14.2734 16.1146 14.3545 16.0902 14.4338L16.0057 14.6662L15.8998 14.8873L15.7738 15.0955L15.6289 15.2898L15.4663 15.4688L15.2872 15.6314L15.093 15.7764L14.8852 15.9024L14.6642 16.0083L14.4318 16.0928L14.1891 16.1547L13.9379 16.1927C13.8516 16.2014 13.765 16.2057 13.6783 16.2057C13.5917 16.2057 13.505 16.2014 13.4188 16.1927L13.1675 16.1547C13.085 16.1379 13.004 16.1172 12.9248 16.0928L12.6923 16.0083L12.4714 15.9024L12.2636 15.7764L12.0694 15.6314L11.8903 15.4688L11.7277 15.2898L11.5828 15.0955L11.4567 14.8873L11.3509 14.6662L11.2664 14.4338L11.2045 14.191L11.1665 13.9392C11.1578 13.853 11.1535 13.7663 11.1535 13.6797C11.1535 13.593 11.1578 13.5064 11.1665 13.4201C11.175 13.3348 11.1877 13.2508 11.2045 13.1684C11.2211 13.0865 11.2418 13.0055 11.2664 12.9256L11.351 12.6932L11.4568 12.4721L11.5828 12.2639L11.7278 12.0696L11.8903 11.8906L12.0694 11.728L12.2637 11.583L12.4714 11.457L12.6924 11.3511C12.7684 11.3191 12.846 11.2909 12.9249 11.2666L13.1676 11.2047C13.2501 11.188 13.3341 11.1752 13.4189 11.1666C13.5051 11.158 13.5917 11.1536 13.6784 11.1536Z" fill="#1F2746"/>
<path d="M18.5004 7.89355C18.4682 7.89356 18.4361 7.89518 18.4041 7.89839C18.3721 7.9016 18.3403 7.90641 18.3088 7.9128C18.2773 7.91919 18.2461 7.92714 18.2154 7.93664C18.1847 7.94614 18.1545 7.95718 18.1249 7.9697C18.0953 7.98223 18.0663 7.99624 18.0381 8.01167C18.0099 8.02708 17.9825 8.04388 17.9559 8.06202C17.9294 8.08018 17.9038 8.09965 17.8792 8.12037C17.8546 8.14107 17.8311 8.16298 17.8087 8.18603C17.7863 8.2091 17.765 8.23326 17.7451 8.25845C17.7251 8.28363 17.7064 8.3098 17.689 8.33686C17.6717 8.36389 17.6557 8.39178 17.6411 8.42041C17.6265 8.44906 17.6133 8.47843 17.6017 8.50839C17.59 8.53836 17.5799 8.56888 17.5713 8.59986C17.5627 8.63083 17.5556 8.66221 17.5502 8.69389C17.5447 8.72556 17.5408 8.75748 17.5386 8.78953C17.537 8.81224 17.5361 8.835 17.5361 8.85777C17.5361 8.88993 17.5377 8.92207 17.541 8.95407C17.5442 8.98605 17.549 9.01785 17.5554 9.04936C17.5617 9.08086 17.5697 9.11203 17.5792 9.14273C17.5887 9.17345 17.5997 9.20367 17.6123 9.23329C17.6248 9.26291 17.6388 9.29189 17.6542 9.32012C17.6696 9.34834 17.6864 9.37577 17.7046 9.40231C17.7227 9.42883 17.7422 9.45443 17.7629 9.479C17.7836 9.5036 17.8055 9.52715 17.8286 9.54955C17.8517 9.57195 17.8759 9.59317 17.901 9.61315C17.9262 9.63314 17.9524 9.65186 17.9795 9.66924C18.0065 9.68661 18.0344 9.70262 18.0631 9.71721C18.0917 9.7318 18.1211 9.74496 18.1511 9.75662C18.181 9.76826 18.2115 9.7784 18.2425 9.787C18.2735 9.79559 18.3049 9.80262 18.3366 9.80807C18.3682 9.81354 18.4002 9.81742 18.4322 9.81971C18.4549 9.82132 18.4777 9.82213 18.5004 9.82213C18.5326 9.82214 18.5647 9.82054 18.5967 9.81734C18.6287 9.81413 18.6605 9.80932 18.692 9.80293C18.7235 9.79654 18.7547 9.78859 18.7854 9.77909C18.8161 9.76959 18.8463 9.75856 18.876 9.74603C18.9056 9.73351 18.9345 9.71952 18.9627 9.70411C18.991 9.68869 19.0184 9.67187 19.0449 9.65371C19.0714 9.63557 19.0971 9.61611 19.1217 9.59541C19.1462 9.5747 19.1698 9.55276 19.1922 9.5297C19.2146 9.50664 19.2358 9.48247 19.2558 9.45728C19.2757 9.4321 19.2945 9.40593 19.3118 9.37887C19.3292 9.35182 19.3452 9.32392 19.3598 9.29527C19.3743 9.26662 19.3875 9.23726 19.3992 9.20729C19.4108 9.17733 19.421 9.1468 19.4296 9.11583C19.4381 9.08485 19.4452 9.05347 19.4507 9.02179C19.4561 8.99012 19.46 8.9582 19.4623 8.92615C19.4639 8.90344 19.4647 8.88068 19.4647 8.85792C19.4647 8.82577 19.4631 8.79365 19.4599 8.76167C19.4567 8.72968 19.4519 8.69788 19.4455 8.66637C19.4391 8.63487 19.4311 8.60371 19.4216 8.573C19.4121 8.54228 19.4011 8.51206 19.3886 8.48244C19.376 8.45282 19.362 8.42384 19.3466 8.39562C19.3312 8.3674 19.3144 8.33996 19.2962 8.31343C19.2781 8.28688 19.2586 8.26127 19.2379 8.23668C19.2172 8.21208 19.1953 8.18854 19.1722 8.16613C19.1492 8.14373 19.125 8.12251 19.0998 8.10253C19.0746 8.08256 19.0484 8.06386 19.0214 8.0465C18.9943 8.02912 18.9664 8.01311 18.9377 7.99852C18.9091 7.98393 18.8797 7.97078 18.8498 7.95912C18.8198 7.94747 18.7893 7.93733 18.7583 7.92873C18.7273 7.92013 18.696 7.91308 18.6643 7.90761C18.6326 7.90216 18.6007 7.89829 18.5686 7.89602C18.5459 7.89441 18.5232 7.89356 18.5004 7.89355Z" fill="#1F2746"/>
<path d="M12.8444 5.00016C12.3616 4.99938 11.9308 5.00139 11.5438 5.00685L10.5062 5.0347C10.1988 5.04807 9.92721 5.0655 9.68343 5.08807C9.56154 5.09932 9.44655 5.11191 9.33756 5.12578C9.23385 5.13887 9.13041 5.15412 9.02733 5.17151C8.92919 5.18823 8.83605 5.20627 8.74674 5.22588C8.65744 5.24549 8.57214 5.26666 8.48984 5.28939C8.40939 5.31161 8.32957 5.33606 8.25046 5.3627C8.17294 5.38888 8.09732 5.41662 8.02264 5.44626C7.87328 5.50553 7.72759 5.57204 7.57757 5.64658C7.46213 5.70396 7.35548 5.76206 7.25416 5.82356C7.15285 5.88506 7.05687 5.95001 6.9629 6.02076C6.86612 6.09397 6.77284 6.17172 6.68337 6.25373C6.58984 6.33907 6.4943 6.43293 6.39505 6.53783C6.27032 6.66891 6.16195 6.79113 6.06575 6.91106C6.01765 6.971 5.97261 7.03027 5.93018 7.08988C5.88822 7.14862 5.84811 7.20867 5.8099 7.26992C5.77209 7.33064 5.73628 7.39248 5.70203 7.4561C5.66724 7.52081 5.63436 7.58653 5.60344 7.65318C5.54016 7.78933 5.4811 7.93595 5.42216 8.09962C5.37843 8.22061 5.33928 8.34322 5.30478 8.46717C5.26958 8.59385 5.23827 8.72637 5.21036 8.8697C5.18244 9.01304 5.15809 9.16718 5.13668 9.33764C5.11361 9.52449 5.09518 9.71189 5.08141 9.89966C5.06584 10.1061 5.05294 10.3333 5.04237 10.5861L5.01735 11.4269L5.00389 12.4517L5 13.6904L5.0114 15.4918L5.04699 16.8566L5.0744 17.3897L5.10865 17.8315C5.11963 17.9506 5.13337 18.0694 5.14986 18.1878C5.16487 18.293 5.181 18.385 5.19835 18.4647C5.23355 18.6266 5.27518 18.7871 5.32313 18.9457C5.36904 19.0976 5.42155 19.2474 5.48049 19.3947C5.53843 19.539 5.60183 19.6782 5.67078 19.8121C5.73973 19.946 5.81424 20.0747 5.89431 20.1983C5.97439 20.3219 6.06002 20.4405 6.15144 20.5539C6.24275 20.6674 6.33988 20.7761 6.44242 20.8795C6.54513 20.9831 6.65345 21.0817 6.76761 21.1754C6.88312 21.2702 7.00319 21.3592 7.12738 21.4422C7.24265 21.5194 7.3567 21.5901 7.47158 21.655C7.58647 21.7199 7.70235 21.7788 7.82146 21.8323C7.94057 21.8859 8.06268 21.9341 8.19024 21.9774C8.3178 22.0207 8.4507 22.0593 8.59116 22.0935C8.73162 22.1277 8.88031 22.1577 9.03768 22.1839C9.19504 22.2101 9.36325 22.2325 9.54297 22.2519C9.72269 22.2712 9.91442 22.2872 10.1204 22.3006C10.3265 22.3139 10.5467 22.3246 10.7833 22.3332C11.1488 22.3465 11.702 22.3542 12.3401 22.3571L14.4056 22.353L16.3615 22.3255L17.1051 22.3046L17.5896 22.2796C17.6936 22.2711 17.7954 22.2611 17.8936 22.2494C17.9918 22.2376 18.0886 22.2242 18.1829 22.2089C18.2773 22.1936 18.3694 22.1766 18.46 22.1577C18.5496 22.139 18.6386 22.1181 18.7272 22.0951C18.8148 22.0728 18.9012 22.0475 18.9867 22.0206C19.0723 21.9937 19.1569 21.9646 19.241 21.9334C19.3256 21.902 19.4095 21.8685 19.4925 21.8331C19.576 21.7974 19.6595 21.7593 19.7433 21.7189C19.8719 21.6568 19.9754 21.6051 20.0663 21.5545C20.1518 21.5075 20.2342 21.455 20.3129 21.3972C20.3905 21.3399 20.4677 21.2748 20.5567 21.1927C20.6456 21.1105 20.7464 21.0116 20.8713 20.8865C20.981 20.7766 21.0735 20.6812 21.1533 20.5943C21.2331 20.5075 21.3003 20.4293 21.3593 20.354C21.4155 20.2825 21.4678 20.2081 21.5161 20.1311C21.5632 20.0559 21.6066 19.9778 21.6508 19.8911C21.7173 19.7608 21.7764 19.6401 21.8294 19.5236C21.8809 19.4113 21.9279 19.2971 21.9703 19.1811C22.0121 19.066 22.0484 18.949 22.0788 18.8304C22.1102 18.7084 22.1372 18.5796 22.1606 18.4384C22.1839 18.2971 22.2037 18.1433 22.2208 17.9717C22.2379 17.8 22.2525 17.6102 22.2653 17.397L22.2992 16.6814L22.3283 15.7914L22.3491 14.7998L22.3571 13.763L22.3386 11.7266L22.3137 10.8145L22.2798 10.0314L22.2375 9.42086C22.2222 9.25096 22.2056 9.11715 22.188 9.02669C22.1686 8.92673 22.1469 8.82723 22.1229 8.72827C22.0995 8.63197 22.0738 8.53626 22.0458 8.44121C22.0186 8.34861 21.9889 8.25672 21.957 8.16563C21.9254 8.07566 21.8919 7.98759 21.8569 7.90141C21.8219 7.81524 21.7839 7.73106 21.7445 7.64867C21.705 7.56628 21.6636 7.4859 21.6202 7.40735C21.5768 7.32881 21.5315 7.25221 21.4842 7.17751C21.4369 7.1028 21.3876 7.03 21.3363 6.95914C21.2852 6.8885 21.232 6.81949 21.1767 6.75219C21.1216 6.68526 21.0645 6.62008 21.0053 6.55677C20.9462 6.49353 20.8851 6.43219 20.8222 6.37283C20.7592 6.31344 20.6943 6.25595 20.6273 6.20036C20.5601 6.14458 20.4912 6.09091 20.4207 6.03942C20.3494 5.98741 20.2766 5.93759 20.2023 5.89002C20.127 5.84177 20.0502 5.79578 19.9722 5.75209C19.8928 5.70767 19.8121 5.66554 19.7303 5.62575C19.5945 5.55962 19.4689 5.50096 19.3457 5.44893C19.2245 5.3973 19.1009 5.35144 18.9754 5.31151C18.8492 5.27168 18.7178 5.23753 18.5732 5.20806C18.4287 5.17859 18.271 5.15402 18.0926 5.13313C17.9141 5.11224 17.7149 5.09536 17.487 5.08133C17.2592 5.06729 17.0029 5.05626 16.7102 5.04734L15.7156 5.02506L14.4569 5.01019L12.8444 5.00016ZM13.6816 6.5322L16.0061 6.54546L16.883 6.5624C17.1245 6.56919 17.3088 6.57716 17.4168 6.58635C17.5575 6.59821 17.6915 6.61309 17.8197 6.63091C17.9427 6.64793 18.0651 6.66909 18.1867 6.69436C18.3034 6.71887 18.4148 6.74673 18.5214 6.77815C18.628 6.80957 18.7298 6.84477 18.8275 6.88371C18.9252 6.92265 19.0186 6.96549 19.1086 7.01239C19.1978 7.05894 19.2844 7.11017 19.3682 7.16586C19.4517 7.22129 19.5321 7.28101 19.6101 7.34535C19.6882 7.40969 19.7639 7.47866 19.8378 7.55241C19.9158 7.63023 19.9878 7.7095 20.0541 7.79128C20.1202 7.87255 20.1813 7.95773 20.2372 8.04636C20.2937 8.13625 20.3446 8.22955 20.3897 8.32573C20.4357 8.42377 20.4771 8.52739 20.5142 8.63752C20.5514 8.74765 20.5845 8.86469 20.6138 8.98975C20.6445 9.12234 20.6702 9.25604 20.6908 9.39056C20.7131 9.53317 20.7321 9.68525 20.7482 9.84808C20.7643 10.0109 20.7777 10.1845 20.7887 10.3703C20.7975 10.5193 20.8052 10.716 20.8117 10.9482L20.828 11.7401L20.8404 13.6798L20.8262 15.6177L20.8092 16.4072L20.7858 16.9815C20.7696 17.2504 20.7524 17.4765 20.732 17.6732C20.7217 17.7716 20.7106 17.8626 20.6982 17.948C20.6867 18.0287 20.673 18.1091 20.6571 18.189C20.6427 18.262 20.6259 18.3344 20.6068 18.4063C20.5885 18.4749 20.568 18.5428 20.5451 18.61C20.5222 18.6775 20.4971 18.7443 20.4701 18.8103C20.4416 18.88 20.4115 18.949 20.3798 19.0174C20.3516 19.0784 20.3219 19.1377 20.2906 19.1955C20.2596 19.2527 20.2266 19.3088 20.1918 19.3637C20.1574 19.4181 20.1212 19.471 20.0834 19.5222C20.0458 19.5732 20.0064 19.6229 19.9652 19.671C19.9241 19.719 19.8813 19.7655 19.8369 19.8103C19.7924 19.8551 19.7463 19.8984 19.6984 19.9402C19.6506 19.982 19.601 20.0221 19.5497 20.0608C19.4984 20.0994 19.4453 20.1365 19.3904 20.1721C19.3355 20.2076 19.2789 20.2417 19.2204 20.2742C19.162 20.3068 19.1017 20.3378 19.0397 20.3674C18.9766 20.3974 18.9127 20.4256 18.8479 20.4518C18.781 20.4788 18.7133 20.504 18.645 20.5272C18.506 20.5747 18.3593 20.6164 18.205 20.6523C18.0441 20.6895 17.8817 20.72 17.7183 20.7436C17.6555 20.7527 17.5111 20.7614 17.3042 20.7694L16.5159 20.7914L14.2811 20.8204L11.942 20.8241L11.0234 20.8143L10.4269 20.7957L9.98704 20.7647C9.85047 20.7532 9.72347 20.7404 9.60447 20.7258C9.48547 20.7113 9.37465 20.6951 9.27039 20.6768C9.17159 20.6597 9.07338 20.6393 8.97595 20.6155C8.88711 20.5939 8.79918 20.5687 8.71238 20.5399C8.62869 20.512 8.54867 20.4814 8.47083 20.4477C8.39298 20.414 8.31735 20.3771 8.24245 20.3367C8.16755 20.2964 8.09343 20.2526 8.01847 20.2049C7.96192 20.1689 7.90726 20.1325 7.85465 20.0938C7.80205 20.0552 7.75123 20.0168 7.70229 19.9764C7.65336 19.9361 7.60637 19.8945 7.56105 19.8517C7.51604 19.8092 7.47256 19.765 7.43071 19.7193C7.38901 19.6737 7.34914 19.6268 7.31088 19.5782C7.27248 19.5295 7.23588 19.4793 7.20117 19.4278C7.16595 19.3756 7.13262 19.3221 7.10125 19.2674C7.06955 19.2122 7.03941 19.1552 7.01077 19.0964C6.98166 19.0364 6.95449 18.9755 6.92931 18.9138C6.90373 18.851 6.87949 18.7861 6.85669 18.7192C6.81109 18.5852 6.77106 18.4426 6.73625 18.2905C6.70144 18.1384 6.67174 17.9769 6.64661 17.8048C6.62148 17.6326 6.60124 17.4501 6.58511 17.2562C6.57321 17.1133 6.56376 16.8907 6.55653 16.61L6.5414 15.6114L6.54696 13.0659L6.59073 10.6335L6.62409 9.77655L6.643 9.49328C6.64956 9.41763 6.65634 9.36159 6.66329 9.32795C6.6862 9.21726 6.70928 9.11426 6.73313 9.01783C6.75542 8.92686 6.78021 8.83652 6.80748 8.74693C6.83339 8.66236 6.86069 8.58315 6.88989 8.50811C6.91804 8.43542 6.94941 8.36403 6.98392 8.29414C7.01761 8.22618 7.05381 8.16112 7.09313 8.09778C7.13244 8.03444 7.17487 7.973 7.22113 7.91189C7.2674 7.85078 7.31722 7.79045 7.37144 7.72928C7.42565 7.66811 7.48421 7.60634 7.54771 7.54266C7.62172 7.4681 7.69878 7.39664 7.7787 7.32847C7.85416 7.26416 7.93285 7.20375 8.01447 7.14748C8.09471 7.09177 8.177 7.0422 8.26269 6.99663C8.34838 6.95106 8.43746 6.90989 8.53116 6.87285C8.62486 6.8358 8.72328 6.80266 8.82754 6.77258C8.93707 6.7418 9.04782 6.71554 9.15951 6.69386C9.27695 6.6708 9.40167 6.65069 9.53485 6.63314C9.66803 6.61559 9.80971 6.60044 9.96118 6.5873C10.0668 6.57816 10.2489 6.57003 10.4886 6.56318L11.3611 6.54591L13.6816 6.5322Z" fill="#1F2746"/>
</svg>
