<svg width="41" height="41" viewBox="0 0 41 41" fill="none" xmlns="http://www.w3.org/2000/svg">
<g clip-path="url(#clip0_11260_2649)">
<path d="M20.1102 14.5845C19.9137 14.5845 19.7194 14.5946 19.5279 14.6142C19.3364 14.6338 19.1476 14.6629 18.9619 14.7011C18.7763 14.7393 18.594 14.7866 18.4153 14.8424L17.8909 15.0352L17.3916 15.2765L16.9205 15.5635L16.4802 15.8931L16.074 16.2625L15.7046 16.6687L15.375 17.1089L15.0879 17.5801L14.8467 18.0793C14.7742 18.25 14.7097 18.4251 14.6538 18.6038C14.598 18.7825 14.5508 18.9649 14.5125 19.1505C14.4743 19.3361 14.4452 19.5249 14.4256 19.7164C14.4059 19.908 14.396 20.1023 14.396 20.2988C14.396 20.4952 14.406 20.6896 14.4256 20.8811C14.445 21.0711 14.474 21.26 14.5125 21.4471C14.5508 21.6334 14.598 21.8151 14.6538 21.9938C14.7097 22.1725 14.7741 22.3475 14.8467 22.5183L15.0879 23.0175L15.375 23.4886L15.7046 23.9289L16.074 24.3351L16.4802 24.7045L16.9205 25.0341L17.3916 25.3211L17.8909 25.5624L18.4153 25.7552L18.9619 25.8965C19.149 25.935 19.3379 25.964 19.5279 25.9835C19.7214 26.0032 19.9157 26.0131 20.1102 26.013C20.3067 26.013 20.5011 26.003 20.6925 25.9835C20.8825 25.964 21.0713 25.935 21.2584 25.8965L21.8051 25.7552L22.3295 25.5624L22.8287 25.3211L23.3 25.0341L23.7402 24.7045L24.1465 24.3351L24.5159 23.9289L24.8455 23.4886L25.1326 23.0175L25.3738 22.5183L25.5667 21.9938C25.6225 21.8151 25.6697 21.6327 25.708 21.4471L25.7949 20.881C25.8145 20.6895 25.8246 20.4952 25.8246 20.2987C25.8246 20.1022 25.8145 19.9079 25.7949 19.7164C25.7755 19.5264 25.7465 19.3375 25.708 19.1504C25.6697 18.9641 25.6225 18.7825 25.5667 18.6037L25.3738 18.0792L25.1326 17.58L24.8455 17.1088L24.5159 16.6687L24.1465 16.2624L23.7402 15.893L23.3 15.5634L22.8287 15.2764L22.3295 15.0351L21.8051 14.8424L21.2584 14.7011L20.6925 14.6141C20.499 14.5944 20.3047 14.5845 20.1102 14.5845V14.5845ZM20.1102 16.5569C20.2401 16.5569 20.3683 16.5633 20.4946 16.5761L20.8668 16.6325L21.2264 16.7242L21.5707 16.8494L21.8981 17.0063L22.2059 17.1929L22.4937 17.4077L22.7589 17.6486L22.9998 17.9138L23.2146 18.2016L23.4013 18.5101L23.558 18.8376C23.6051 18.9497 23.6469 19.0645 23.6833 19.182C23.7197 19.2994 23.7502 19.4194 23.7749 19.5417C23.7996 19.6639 23.8179 19.7883 23.8313 19.9146L23.8504 20.2991C23.8504 20.429 23.844 20.5573 23.8313 20.6837C23.8185 20.8101 23.7998 20.9345 23.7749 21.0566C23.7501 21.1788 23.7194 21.2988 23.6833 21.4163L23.558 21.7607L23.4013 22.0882L23.2146 22.3966L22.9998 22.6845L22.7589 22.9497L22.4937 23.1906L22.2059 23.4054L21.8981 23.592L21.5707 23.7489L21.2264 23.8741L20.8668 23.9658L20.4946 24.0222C20.3669 24.035 20.2385 24.0414 20.1101 24.0414C19.9817 24.0414 19.8534 24.035 19.7256 24.0222L19.3534 23.9658C19.2312 23.941 19.1112 23.9104 18.9937 23.8741L18.6494 23.7489L18.3221 23.592L18.0143 23.4054L17.7265 23.1906L17.4612 22.9497L17.2203 22.6845L17.0056 22.3966L16.8189 22.0882L16.6621 21.7607L16.5368 21.4163L16.4452 21.0566L16.3889 20.6837C16.3761 20.5559 16.3697 20.4275 16.3697 20.2991C16.3697 20.1707 16.3761 20.0424 16.3889 19.9146C16.4015 19.7883 16.4204 19.6638 16.4452 19.5417C16.4698 19.4203 16.5004 19.3003 16.5369 19.182L16.6622 18.8377L16.8189 18.5102L17.0056 18.2017L17.2204 17.9139L17.4613 17.6487L17.7266 17.4078L18.0143 17.193L18.3221 17.0064L18.6495 16.8494C18.7622 16.8021 18.8771 16.7603 18.9939 16.7243L19.3535 16.6325C19.4757 16.6077 19.6001 16.5888 19.7257 16.5762C19.8535 16.5633 19.9819 16.5569 20.1103 16.5569L20.1102 16.5569Z" fill="#70768F"/>
<path d="M27.2542 11.7271C27.2066 11.7271 27.159 11.7295 27.1116 11.7343C27.0642 11.739 27.0171 11.7462 26.9704 11.7556C26.9237 11.7651 26.8775 11.7769 26.832 11.7909C26.7865 11.805 26.7418 11.8214 26.6979 11.8399C26.654 11.8585 26.6111 11.8792 26.5693 11.9021C26.5275 11.9249 26.4869 11.9498 26.4476 11.9767C26.4083 12.0036 26.3703 12.0324 26.3339 12.0631C26.2975 12.0938 26.2626 12.1263 26.2294 12.1604C26.1963 12.1946 26.1648 12.2304 26.1352 12.2677C26.1056 12.305 26.0779 12.3438 26.0522 12.3839C26.0265 12.4239 26.0028 12.4652 25.9812 12.5076C25.9595 12.5501 25.94 12.5936 25.9228 12.638C25.9055 12.6824 25.8905 12.7276 25.8778 12.7735C25.865 12.8194 25.8546 12.8659 25.8465 12.9128C25.8384 12.9597 25.8327 13.007 25.8293 13.0545C25.8269 13.0881 25.8257 13.1218 25.8257 13.1556C25.8257 13.2032 25.8281 13.2508 25.8328 13.2982C25.8376 13.3456 25.8447 13.3927 25.8542 13.4394C25.8636 13.4861 25.8754 13.5323 25.8895 13.5777C25.9036 13.6233 25.9199 13.668 25.9385 13.7119C25.957 13.7558 25.9778 13.7987 26.0006 13.8405C26.0235 13.8823 26.0484 13.923 26.0752 13.9623C26.1021 14.0016 26.131 14.0395 26.1617 14.0759C26.1923 14.1124 26.2248 14.1472 26.259 14.1804C26.2932 14.2136 26.329 14.2451 26.3663 14.2747C26.4036 14.3043 26.4424 14.332 26.4825 14.3578C26.5226 14.3835 26.5639 14.4072 26.6064 14.4288C26.6488 14.4504 26.6923 14.4699 26.7367 14.4872C26.7811 14.5045 26.8263 14.5195 26.8722 14.5322C26.9181 14.5449 26.9646 14.5554 27.0115 14.5634C27.0584 14.5715 27.1057 14.5773 27.1532 14.5807C27.1869 14.5831 27.2206 14.5843 27.2543 14.5843C27.3019 14.5843 27.3495 14.5819 27.3969 14.5772C27.4443 14.5724 27.4914 14.5653 27.5381 14.5558C27.5848 14.5464 27.631 14.5346 27.6765 14.5205C27.722 14.5064 27.7667 14.4901 27.8106 14.4715C27.8545 14.453 27.8974 14.4322 27.9392 14.4094C27.981 14.3866 28.0216 14.3617 28.0609 14.3348C28.1002 14.3079 28.1382 14.279 28.1746 14.2484C28.211 14.2177 28.2459 14.1852 28.2791 14.151C28.3122 14.1169 28.3437 14.0811 28.3733 14.0437C28.4029 14.0064 28.4306 13.9677 28.4563 13.9276C28.4821 13.8875 28.5058 13.8462 28.5273 13.8037C28.549 13.7613 28.5685 13.7178 28.5857 13.6734C28.603 13.629 28.618 13.5838 28.6307 13.5379C28.6435 13.492 28.6539 13.4455 28.662 13.3986C28.6701 13.3517 28.6758 13.3044 28.6792 13.2569C28.6816 13.2232 28.6828 13.1895 28.6828 13.1558C28.6828 13.1082 28.6804 13.0606 28.6757 13.0132C28.6709 12.9658 28.6638 12.9187 28.6543 12.872C28.6449 12.8254 28.6331 12.7792 28.619 12.7337C28.6049 12.6882 28.5886 12.6434 28.57 12.5995C28.5515 12.5557 28.5307 12.5127 28.5079 12.4709C28.4851 12.4291 28.4601 12.3885 28.4333 12.3491C28.4063 12.3098 28.3775 12.2719 28.3468 12.2354C28.3161 12.199 28.2837 12.1641 28.2495 12.1309C28.2154 12.0977 28.1795 12.0663 28.1422 12.0367C28.1049 12.0071 28.0661 11.9794 28.026 11.9537C27.9859 11.9279 27.9446 11.9042 27.9021 11.8826C27.8597 11.861 27.8162 11.8415 27.7718 11.8242C27.7274 11.807 27.6822 11.792 27.6363 11.7792C27.5904 11.7665 27.5439 11.756 27.497 11.7479C27.4501 11.7399 27.4028 11.7341 27.3553 11.7308C27.3216 11.7284 27.2879 11.7272 27.2542 11.7272V11.7271Z" fill="#70768F"/>
<path d="M18.8748 7.44061C18.1596 7.43945 17.5213 7.44242 16.9479 7.45051L15.4107 7.49178C14.9553 7.51158 14.553 7.53741 14.1918 7.57084C14.0113 7.58751 13.8409 7.60616 13.6794 7.62671C13.5258 7.64611 13.3726 7.6687 13.2198 7.69446C13.0744 7.71922 12.9365 7.74596 12.8041 7.77501C12.6718 7.80406 12.5455 7.83542 12.4236 7.86909C12.3044 7.90202 12.1861 7.93824 12.0689 7.9777C11.9541 8.01649 11.842 8.05759 11.7314 8.10149C11.5101 8.1893 11.2943 8.28784 11.072 8.39826C10.901 8.48327 10.743 8.56934 10.5929 8.66046C10.4428 8.75157 10.3006 8.8478 10.1614 8.95261C10.018 9.06107 9.87985 9.17624 9.74729 9.29774C9.60873 9.42417 9.4672 9.56323 9.32016 9.71863C9.13538 9.91282 8.97482 10.0939 8.8323 10.2716C8.76105 10.3604 8.69432 10.4482 8.63146 10.5365C8.5693 10.6235 8.50988 10.7125 8.45328 10.8032C8.39726 10.8932 8.34421 10.9848 8.29346 11.079C8.24192 11.1749 8.19321 11.2723 8.1474 11.371C8.05365 11.5727 7.96617 11.7899 7.87884 12.0324C7.81406 12.2116 7.75605 12.3933 7.70494 12.5769C7.65279 12.7646 7.60641 12.9609 7.56506 13.1733C7.52371 13.3856 7.48762 13.614 7.45591 13.8665C7.42173 14.1433 7.39443 14.4209 7.37402 14.6991C7.35096 15.005 7.33184 15.3415 7.31619 15.7161L7.27912 16.9616L7.25918 18.4799L7.25342 20.3151L7.27031 22.9838L7.32303 25.0057L7.36364 25.7955L7.41439 26.45C7.43065 26.6264 7.45101 26.8024 7.47543 26.9778C7.49767 27.1337 7.52156 27.27 7.54727 27.388C7.59942 27.6279 7.66109 27.8657 7.73213 28.1007C7.80014 28.3257 7.87793 28.5477 7.96526 28.7659C8.0511 28.9796 8.14501 29.1858 8.24716 29.3842C8.34931 29.5826 8.4597 29.7732 8.57833 29.9564C8.69695 30.1395 8.82382 30.3151 8.95925 30.4832C9.09453 30.6513 9.23842 30.8123 9.39034 30.9655C9.5425 31.119 9.70297 31.2651 9.8721 31.4039C10.0432 31.5443 10.2211 31.6762 10.4051 31.7992C10.5759 31.9136 10.7448 32.0183 10.915 32.1145C11.0852 32.2106 11.2569 32.2979 11.4334 32.3772C11.6098 32.4565 11.7907 32.5279 11.9797 32.5921C12.1687 32.6563 12.3656 32.7134 12.5737 32.7641C12.7817 32.8147 13.002 32.8592 13.2352 32.898C13.4683 32.9368 13.7175 32.97 13.9837 32.9987C14.25 33.0273 14.534 33.051 14.8393 33.0708C15.1445 33.0906 15.4707 33.1065 15.8212 33.1192C16.3627 33.1388 17.1824 33.1503 18.1276 33.1547L21.1876 33.1485L24.0852 33.1078L25.1869 33.0768L25.9047 33.0398C26.0588 33.0272 26.2095 33.0124 26.355 32.995C26.5005 32.9776 26.644 32.9577 26.7837 32.9351C26.9234 32.9124 27.06 32.8872 27.1942 32.8591C27.3269 32.8315 27.4588 32.8006 27.59 32.7665C27.7198 32.7334 27.8478 32.6959 27.9745 32.656C28.1012 32.6162 28.2266 32.5731 28.3512 32.5269C28.4766 32.4804 28.6008 32.4308 28.7237 32.3782C28.8476 32.3254 28.9712 32.269 29.0953 32.2091C29.2858 32.1171 29.4392 32.0404 29.5739 31.9656C29.7006 31.896 29.8226 31.8181 29.9392 31.7325C30.0542 31.6477 30.1685 31.5511 30.3003 31.4295C30.4321 31.3078 30.5815 31.1613 30.7664 30.9759C30.929 30.8132 31.066 30.6717 31.1843 30.5431C31.3025 30.4144 31.4021 30.2986 31.4894 30.187C31.5726 30.0812 31.6502 29.9709 31.7217 29.8568C31.7915 29.7453 31.8557 29.6296 31.9212 29.5013C32.0197 29.3082 32.1074 29.1293 32.1859 28.9568C32.2621 28.7905 32.3318 28.6212 32.3947 28.4494C32.4566 28.2789 32.5102 28.1056 32.5554 27.9299C32.6018 27.7491 32.6419 27.5583 32.6765 27.3491C32.7111 27.1398 32.7403 26.912 32.7657 26.6576C32.7911 26.4033 32.8127 26.1222 32.8316 25.8064L32.8818 24.7461L32.925 23.4276L32.9558 21.9586L32.9677 20.4225L32.9402 17.4057L32.9034 16.0545L32.8531 14.8943L32.7905 13.9898C32.7678 13.7381 32.7432 13.5399 32.7172 13.4058C32.6884 13.2577 32.6562 13.1103 32.6206 12.9637C32.586 12.8211 32.548 12.6793 32.5065 12.5385C32.4661 12.4013 32.4222 12.2651 32.3749 12.1302C32.3281 11.9969 32.2785 11.8664 32.2266 11.7388C32.1747 11.6111 32.1185 11.4864 32.06 11.3643C32.0015 11.2423 31.9403 11.1232 31.8759 11.0068C31.8116 10.8905 31.7445 10.777 31.6744 10.6663C31.6043 10.5556 31.5313 10.4478 31.4553 10.3428C31.3797 10.2382 31.3008 10.1359 31.2189 10.0362C31.1373 9.93704 31.0526 9.84049 30.965 9.74669C30.8774 9.65301 30.787 9.56213 30.6937 9.47419C30.6003 9.38621 30.5042 9.30104 30.405 9.21868C30.3055 9.13604 30.2034 9.05653 30.0989 8.98025C29.9933 8.9032 29.8854 8.82938 29.7753 8.75891C29.6637 8.68744 29.5501 8.6193 29.4344 8.55457C29.3168 8.48877 29.1973 8.42635 29.0761 8.3674C28.8749 8.26944 28.6889 8.18254 28.5063 8.10546C28.3267 8.02896 28.1437 7.96101 27.9578 7.90186C27.7708 7.84285 27.5761 7.79226 27.3619 7.7486C27.1477 7.70495 26.9142 7.66855 26.6498 7.6376C26.3855 7.60665 26.0903 7.58165 25.7527 7.56085C25.4151 7.54006 25.0354 7.52371 24.6019 7.51051L23.1284 7.4775L21.2636 7.45546L18.8756 7.44077L18.8748 7.44061ZM20.115 9.7103L23.5587 9.72994L24.8578 9.75503C25.2156 9.7651 25.4886 9.7769 25.6487 9.79052C25.8571 9.80809 26.0556 9.83013 26.2455 9.85654C26.4278 9.88175 26.6091 9.9131 26.7892 9.95054C26.9622 9.98685 27.1272 10.0281 27.2851 10.0747C27.4431 10.1212 27.5939 10.1734 27.7386 10.2311C27.8834 10.2887 28.0218 10.3522 28.155 10.4217C28.2871 10.4907 28.4155 10.5665 28.5397 10.6491C28.6633 10.7312 28.7824 10.8196 28.8981 10.915C29.0137 11.0103 29.1258 11.1125 29.2353 11.2217C29.3509 11.337 29.4575 11.4544 29.5558 11.5756C29.6537 11.696 29.7443 11.8222 29.8271 11.9535C29.9108 12.0867 29.9862 12.2249 30.0529 12.3674C30.1211 12.5126 30.1824 12.6661 30.2375 12.8293C30.2925 12.9924 30.3415 13.1658 30.3849 13.3511C30.4304 13.5475 30.4685 13.7456 30.4991 13.9449C30.5321 14.1562 30.5602 14.3815 30.5841 14.6227C30.608 14.8639 30.6278 15.1212 30.6441 15.3964C30.6571 15.6172 30.6685 15.9085 30.6781 16.2526L30.7023 17.4257L30.7207 20.2993L30.6997 23.1702L30.6745 24.34L30.6398 25.1908C30.6158 25.5891 30.5904 25.924 30.5601 26.2155C30.5448 26.3613 30.5283 26.4961 30.5101 26.6226C30.4929 26.7422 30.4726 26.8612 30.4492 26.9797C30.4278 27.0877 30.4029 27.1951 30.3746 27.3015C30.3476 27.4031 30.3171 27.5038 30.2833 27.6033C30.2492 27.7033 30.2121 27.8023 30.1721 27.9001C30.1298 28.0034 30.0852 28.1056 30.0383 28.2068C29.9965 28.2972 29.9526 28.3851 29.9061 28.4707C29.8602 28.5554 29.8114 28.6385 29.7598 28.7199C29.7088 28.8006 29.6552 28.8789 29.5992 28.9547C29.5435 29.0303 29.4851 29.1039 29.4241 29.1752C29.3632 29.2463 29.2998 29.3151 29.234 29.3816C29.1681 29.448 29.0997 29.5121 29.0289 29.574C28.958 29.6359 28.8845 29.6953 28.8085 29.7526C28.7325 29.8099 28.6538 29.8648 28.5725 29.9175C28.4912 29.9701 28.4073 30.0207 28.3207 30.0689C28.2342 30.117 28.1449 30.1631 28.053 30.2069C27.9596 30.2514 27.8648 30.2931 27.7689 30.3319C27.6697 30.3719 27.5694 30.4092 27.4682 30.4437C27.2622 30.514 27.045 30.5757 26.8163 30.629C26.578 30.6841 26.3375 30.7292 26.0953 30.7642C26.0023 30.7778 25.7883 30.7906 25.4819 30.8024L24.314 30.835L21.0032 30.878L17.5378 30.8835L16.1769 30.869L15.2932 30.8414L14.6416 30.7955C14.4393 30.7784 14.2511 30.7594 14.0749 30.7379C13.8986 30.7164 13.7344 30.6924 13.5799 30.6653C13.4335 30.6399 13.2881 30.6096 13.1437 30.5745C13.0121 30.5424 12.8818 30.505 12.7532 30.4624C12.6293 30.4212 12.5107 30.3758 12.3954 30.3258C12.2801 30.2759 12.168 30.2212 12.0571 30.1614C11.9461 30.1017 11.8363 30.0368 11.7252 29.9661C11.6414 29.9128 11.5605 29.8588 11.4825 29.8016C11.4046 29.7444 11.3293 29.6874 11.2568 29.6277C11.1843 29.5679 11.1147 29.5063 11.0476 29.443C10.9809 29.3799 10.9165 29.3144 10.8545 29.2467C10.7927 29.1792 10.7336 29.1097 10.6769 29.0377C10.62 28.9655 10.5658 28.8912 10.5144 28.8149C10.4622 28.7375 10.4128 28.6582 10.3664 28.5772C10.3194 28.4955 10.2748 28.411 10.2323 28.3239C10.1892 28.2351 10.149 28.1449 10.1117 28.0534C10.0738 27.9603 10.0378 27.8643 10.0041 27.7651C9.93652 27.5666 9.87721 27.3553 9.82564 27.13C9.77407 26.9047 9.73008 26.6654 9.69284 26.4104C9.6556 26.1554 9.62562 25.885 9.60173 25.5976C9.5841 25.386 9.57009 25.0563 9.55939 24.6403L9.53698 23.161L9.54522 19.3899L9.61005 15.7864L9.65948 14.5167L9.68749 14.0971C9.69721 13.985 9.70726 13.902 9.71755 13.8521C9.75149 13.6882 9.78568 13.5356 9.82102 13.3927C9.85404 13.2579 9.89076 13.1241 9.93116 12.9914C9.96955 12.8661 10.01 12.7487 10.0533 12.6376C10.095 12.5299 10.1414 12.4241 10.1926 12.3206C10.2425 12.2199 10.2961 12.1235 10.3543 12.0297C10.4126 11.9358 10.4754 11.8448 10.544 11.7543C10.6125 11.6637 10.6863 11.5744 10.7667 11.4837C10.847 11.3931 10.9337 11.3016 11.0278 11.2073C11.1374 11.0968 11.2516 10.9909 11.37 10.89C11.4818 10.7947 11.5984 10.7052 11.7193 10.6218C11.8382 10.5393 11.9601 10.4658 12.087 10.3983C12.214 10.3308 12.346 10.2698 12.4848 10.215C12.6236 10.1601 12.7694 10.111 12.9238 10.0664C13.0861 10.0208 13.2502 9.9819 13.4157 9.9498C13.5896 9.91563 13.7744 9.88584 13.9717 9.85984C14.169 9.83384 14.3789 9.81139 14.6033 9.79192C14.7598 9.77838 15.0296 9.76633 15.3847 9.75618L16.6772 9.7306L20.1156 9.70956L20.115 9.7103Z" fill="#70768F"/>
</g>
<defs>
<clipPath id="clip0_11260_2649">
<rect width="40" height="40" fill="white" transform="translate(0.11084 0.296265)"/>
</clipPath>
</defs>
</svg>
