<svg width="41" height="41" viewBox="0 0 41 41" fill="none" xmlns="http://www.w3.org/2000/svg">
<g clip-path="url(#clip0_11260_2548)">
<path d="M31.6124 23.0113C32.3225 17.034 31.2712 13.2605 29.375 11.5537L29.376 11.5527C26.3155 8.63796 15.9796 8.20656 12.3181 11.6836C10.6738 13.3844 10.0946 15.8806 10.0312 18.9709C9.9677 22.0622 9.89233 27.8529 15.2884 29.4238H15.2933L15.2884 31.8229C15.2884 31.8229 15.2517 32.7948 15.8725 32.9901C16.5826 33.2202 16.9039 32.769 19.1125 30.131C22.8058 30.4513 25.6421 29.7174 25.9644 29.6103C26.7102 29.3604 30.9301 28.802 31.6124 23.0113ZM19.4765 28.443C19.4765 28.443 17.139 31.3577 16.412 32.1144C16.174 32.3604 15.9132 32.3376 15.9171 31.8496C15.9171 31.5293 15.935 27.8668 15.935 27.8668C11.3601 26.5557 11.6299 21.6248 11.6794 19.0453C11.729 16.4648 12.2011 14.3514 13.5935 12.9282C16.8057 9.91632 25.8673 10.5897 28.176 12.7596C30.9985 15.2618 29.9939 22.3309 29.9998 22.5719C29.4197 27.4057 26.0001 27.7121 25.3714 27.9214C25.1026 28.0106 22.6084 28.6523 19.4765 28.443V28.443Z" fill="#70768F"/>
<path d="M20.7698 13.4951C20.3879 13.4951 20.3879 14.0901 20.7698 14.0951C23.7321 14.1179 26.1718 16.1827 26.1985 19.9701C26.1985 20.3698 26.7837 20.3648 26.7787 19.9652H26.7777C26.746 15.8842 24.0822 13.5179 20.7698 13.4951V13.4951Z" fill="#70768F"/>
<path d="M24.6667 19.3424C24.6578 19.7371 25.242 19.7559 25.2469 19.3563C25.2955 17.106 23.9081 15.2525 21.3008 15.0571C20.9189 15.0293 20.8793 15.6293 21.2601 15.6571C23.5213 15.8287 24.7124 17.3718 24.6667 19.3424V19.3424Z" fill="#70768F"/>
<path d="M24.047 21.9019C23.5571 21.6182 23.0582 21.7948 22.8519 22.0735L22.4205 22.6318C22.2014 22.9154 21.7918 22.8778 21.7918 22.8778C18.8027 22.0873 18.0033 18.9594 18.0033 18.9594C18.0033 18.9594 17.9666 18.5359 18.2404 18.3088L18.7799 17.8625C19.0496 17.6483 19.2202 17.1326 18.9455 16.6258C18.2116 15.2999 17.7187 14.8427 17.4678 14.4916C17.204 14.1614 16.8073 14.087 16.3947 14.3101H16.3858C15.528 14.8119 14.5888 15.7511 14.8893 16.7181C15.402 17.7376 16.3442 20.9875 19.3471 23.443C20.7584 24.6044 22.9918 25.7945 23.9399 26.0692L23.9488 26.0831C24.883 26.3945 25.7914 25.4186 26.2764 24.5349V24.528C26.4916 24.1006 26.4202 23.6959 26.1058 23.4311C25.5485 22.8877 24.7075 22.2877 24.047 21.9019Z" fill="#70768F"/>
<path d="M21.7105 17.2701C22.6636 17.3256 23.1258 17.8235 23.1753 18.846C23.1932 19.2456 23.7734 19.2179 23.7555 18.8182C23.692 17.4833 22.9958 16.7395 21.7423 16.6701C21.3604 16.6473 21.3247 17.2473 21.7105 17.2701V17.2701Z" fill="#70768F"/>
</g>
<defs>
<clipPath id="clip0_11260_2548">
<rect width="40" height="40" fill="white" transform="translate(0.925781 0.296265)"/>
</clipPath>
</defs>
</svg>
