<svg width="27" height="27" viewBox="0 0 27 27" fill="none" xmlns="http://www.w3.org/2000/svg">
<path d="M20.5768 14.3088C21.0561 10.2742 20.3466 7.72705 19.0666 6.57497C17.0008 4.60753 10.0247 4.31566 7.55319 6.66267C6.44329 7.81073 6.05235 9.49567 6.0095 11.5816C5.96666 13.6682 5.91578 17.577 9.55812 18.6373H9.56147L9.55812 20.2567C9.55812 20.2567 9.53335 20.9127 9.95241 21.0446C10.4317 21.1999 10.6486 20.8953 12.1394 19.1146C14.6324 19.3309 16.5469 18.8355 16.7645 18.7632C17.2679 18.5945 20.1163 18.2176 20.5768 14.3088ZM12.3851 17.9753C12.3851 17.9753 10.8073 19.9427 10.3166 20.4535C10.1559 20.6195 9.97986 20.6041 9.98253 20.2747C9.98253 20.0585 9.99458 17.5863 9.99458 17.5863C6.90653 16.7014 7.08861 13.373 7.12209 11.6318C7.15556 9.88996 7.4742 8.46342 8.41407 7.50279C10.5823 5.46975 16.6989 5.92429 18.2573 7.38899C20.1625 9.07795 19.4843 13.8496 19.4884 14.0123C19.0967 17.2751 16.7886 17.4819 16.3642 17.6232C16.1827 17.6834 14.4991 18.1165 12.3851 17.9753Z" fill="#1F2746"/>
<path d="M13.2577 7.88542C13 7.88542 13 8.28707 13.2577 8.29042C15.2573 8.30582 16.9041 9.69956 16.9222 12.2561C16.9222 12.5259 17.3171 12.5225 17.3138 12.2527C17.2924 9.49806 15.4936 7.90082 13.2577 7.88542Z" fill="#1F2746"/>
<path d="M15.8885 11.8323C15.8825 12.0988 16.2768 12.1115 16.2801 11.8417C16.3129 10.3228 15.3764 9.07164 13.6165 8.93976C13.3588 8.92102 13.332 9.32602 13.589 9.34476C15.1153 9.46057 15.9193 10.5022 15.8885 11.8323Z" fill="#1F2746"/>
<path d="M15.4701 13.56C15.1394 13.3685 14.8027 13.4877 14.6634 13.6758L14.3722 14.0527C14.2243 14.2441 13.9478 14.2187 13.9478 14.2187C11.9302 13.6852 11.3906 11.5738 11.3906 11.5738C11.3906 11.5738 11.3659 11.288 11.5506 11.1347L11.9148 10.8334C12.0969 10.6888 12.212 10.3407 12.0266 9.99866C11.5312 9.10364 11.1985 8.79504 11.0291 8.55806C10.8511 8.33514 10.5833 8.28493 10.3048 8.43555H10.2988C9.71975 8.77428 9.08581 9.40823 9.28864 10.0609C9.63473 10.7491 10.2707 12.9428 12.2977 14.6003C13.2503 15.3842 14.7578 16.1875 15.3978 16.3729L15.4038 16.3823C16.0344 16.5925 16.6476 15.9338 16.975 15.3373V15.3326C17.1202 15.0441 17.072 14.771 16.8598 14.5922C16.4836 14.2254 15.9159 13.8204 15.4701 13.56Z" fill="#1F2746"/>
<path d="M13.8928 10.4335C14.5361 10.471 14.8481 10.8071 14.8815 11.4973C14.8936 11.767 15.2852 11.7483 15.2731 11.4785C15.2303 10.5775 14.7604 10.0754 13.9142 10.0285C13.6565 10.0131 13.6324 10.4181 13.8928 10.4335Z" fill="#1F2746"/>
</svg>
