<svg width="24" height="24" viewBox="0 0 24 24" fill="none" xmlns="http://www.w3.org/2000/svg">
<path fill-rule="evenodd" clip-rule="evenodd" d="M5.45453 5.45453C5.45453 4.24954 6.43136 3.27271 7.63635 3.27271H16.3636C17.5686 3.27271 18.5454 4.24954 18.5454 5.45452L18.5454 7.65452H20.1818C20.3324 7.65452 20.4545 7.77663 20.4545 7.92725V9.16351C20.6176 9.25782 20.7272 9.4341 20.7272 9.63599V12.036C20.7272 12.3372 20.483 12.5814 20.1818 12.5814C19.8805 12.5814 19.6363 12.3372 19.6363 12.036V9.63599C19.6363 9.43409 19.746 9.25781 19.9091 9.1635V8.19998H18.5454L18.5454 14.1606L18.5454 13.745C17.6237 14.1329 15.9186 15.3741 16.4716 17.2359C17.1616 16.8488 18.5402 15.9593 18.5454 15.4931V18.4727C18.5454 19.0752 18.057 19.5636 17.4545 19.5636H17.3924C17.2427 20.2415 16.8386 20.7273 16.3636 20.7273C15.8886 20.7273 15.4845 20.2415 15.3348 19.5636H8.66517C8.51541 20.2415 8.11132 20.7273 7.63633 20.7273C7.16135 20.7273 6.75726 20.2415 6.6075 19.5636H6.54544C5.94295 19.5636 5.45453 19.0752 5.45453 18.4727V15.4943C5.462 15.9608 6.83894 16.8491 7.52834 17.2359C8.08136 15.3741 6.37623 14.1329 5.45453 13.745V8.19998H4.09088V9.1635C4.25392 9.25781 4.36361 9.43409 4.36361 9.63599V12.036C4.36361 12.3372 4.11941 12.5814 3.81816 12.5814C3.51691 12.5814 3.27271 12.3372 3.27271 12.036V9.63599C3.27271 9.43409 3.38239 9.25782 3.54543 9.16351V7.92725C3.54543 7.77663 3.66753 7.65452 3.81815 7.65452H5.45452L5.45453 5.45453ZM6.54542 7.85452C6.54542 7.25203 7.03384 6.76361 7.63633 6.76361H16.3636C16.9661 6.76361 17.4545 7.25203 17.4545 7.85452V12.6545C17.4545 13.257 16.9661 13.7454 16.3636 13.7454H7.63633C7.03384 13.7454 6.54542 13.257 6.54542 12.6545V7.85452Z" fill="#70768F"/>
</svg>
