<svg width="24" height="24" viewBox="0 0 24 24" fill="none" xmlns="http://www.w3.org/2000/svg">
<path d="M20.1862 19.53L21.1337 17.8889L17.363 8.41992L19.363 4.95582C19.6282 4.49645 19.7001 3.95054 19.5628 3.43818C19.4255 2.92582 19.0903 2.48898 18.631 2.22376C18.1716 1.95855 17.6257 1.88668 17.1133 2.02396C16.601 2.16125 16.1641 2.49645 15.8989 2.95582L13.8464 6.51085L3.76071 7.9798L2.86621 9.52912L11.1994 11.0956L8.89891 15.0802L5.30084 15.3122L4.30084 17.0443L9.63096 17.8122L12.9611 22.0443L13.9611 20.3122L12.363 17.0802L14.7055 13.0228L20.1862 19.53Z" fill="#70768F"/>
</svg>
