<svg width="24" height="24" viewBox="0 0 24 24" fill="none" xmlns="http://www.w3.org/2000/svg">
<path d="M14.4476 2.99976C15.4536 2.99963 16.4307 3.33659 17.2227 3.95685C18.0147 4.5771 18.5761 5.44487 18.8171 6.42156L18.8612 6.61686L20.1213 12.9169C20.5677 15.1507 19.2851 17.2639 17.2952 18.0136L17.1062 18.0793L18.8396 19.3798C19.023 19.5171 19.1471 19.7191 19.1866 19.9447C19.2262 20.1702 19.1783 20.4024 19.0527 20.5939C18.9271 20.7854 18.7331 20.9218 18.5105 20.9753C18.2878 21.0288 18.0531 20.9954 17.8541 20.8819L17.7596 20.8198L14.3999 18.2998H9.59932L6.23962 20.8198C6.05652 20.9571 5.82803 21.0194 5.6006 20.9942C5.37317 20.969 5.16388 20.8581 5.01531 20.684C4.86673 20.51 4.79002 20.2859 4.80078 20.0574C4.81153 19.8288 4.90895 19.6129 5.07321 19.4536L5.15961 19.3798L6.89302 18.0793C4.85901 17.4178 3.50181 15.3514 3.84201 13.1266L3.87801 12.9169L5.13801 6.61686C5.33536 5.6306 5.85744 4.73888 6.62091 4.08406C7.38437 3.42924 8.34521 3.04908 9.35002 3.00426L9.55162 2.99976H14.4494H14.4476ZM8.62462 13.1248C8.32625 13.1248 8.0401 13.2433 7.82912 13.4543C7.61815 13.6653 7.49962 13.9514 7.49962 14.2498C7.49962 14.5482 7.61815 14.8343 7.82912 15.0453C8.0401 15.2563 8.32625 15.3748 8.62462 15.3748C8.92299 15.3748 9.20914 15.2563 9.42012 15.0453C9.6311 14.8343 9.74962 14.5482 9.74962 14.2498C9.74962 13.9514 9.6311 13.6653 9.42012 13.4543C9.20914 13.2433 8.92299 13.1248 8.62462 13.1248ZM15.3746 13.1248C15.0763 13.1248 14.7901 13.2433 14.5791 13.4543C14.3682 13.6653 14.2496 13.9514 14.2496 14.2498C14.2496 14.5482 14.3682 14.8343 14.5791 15.0453C14.7901 15.2563 15.0763 15.3748 15.3746 15.3748C15.673 15.3748 15.9592 15.2563 16.1701 15.0453C16.3811 14.8343 16.4996 14.5482 16.4996 14.2498C16.4996 13.9514 16.3811 13.6653 16.1701 13.4543C15.9592 13.2433 15.673 13.1248 15.3746 13.1248ZM14.3486 5.69976H9.65062C9.34961 5.6998 9.05724 5.80043 8.81998 5.98568C8.58271 6.17092 8.41417 6.43015 8.34112 6.72217L7.66612 9.42217C7.61633 9.6212 7.61257 9.82896 7.6551 10.0297C7.69763 10.2304 7.78535 10.4187 7.91159 10.5805C8.03783 10.7422 8.19926 10.873 8.38364 10.963C8.56801 11.053 8.77046 11.0998 8.97562 11.0998H15.0236C15.2288 11.0998 15.4313 11.053 15.6156 10.963C15.8 10.873 15.9614 10.7422 16.0877 10.5805C16.2139 10.4187 16.3016 10.2304 16.3442 10.0297C16.3867 9.82896 16.3829 9.6212 16.3331 9.42217L15.6581 6.72217C15.5851 6.43 15.4164 6.17066 15.1789 5.9854C14.9415 5.80014 14.6498 5.69959 14.3486 5.69976ZM13.9976 7.49977L14.4476 9.29977H9.55162L10.0016 7.49977H13.9976Z" fill="#70768F"/>
</svg>
