<svg width="24" height="24" viewBox="0 0 24 24" fill="none" xmlns="http://www.w3.org/2000/svg">
<path d="M8.72715 13C9.81795 11.9092 10.9089 11.3638 12 11.3638C13.0911 11.3638 14.182 11.9092 15.2729 13C16.5457 11.9092 17.5002 11.3638 18.1362 11.3638C18.7728 11.3638 19.7274 11.9092 21 13C21 8.0293 16.9707 4 12 4C7.0293 4 3 8.0293 3 13C4.2729 11.9092 5.2275 11.3638 5.8638 11.3638C6.5001 11.3638 7.45455 11.9092 8.72715 13Z" fill="#70768F" stroke="#70768F"/>
<path d="M12 12.217V18.6049C12 19.9278 13.13 21 14.5 21C15.87 21 17 19.9278 17 18.6049M12 3V4.75563" stroke="#70768F" stroke-width="2" stroke-linecap="round" stroke-linejoin="round"/>
</svg>
