<svg width="216" height="181" viewBox="0 0 216 181" fill="none" xmlns="http://www.w3.org/2000/svg">
<g clip-path="url(#clip0_9211_89861)">
<path d="M66.2072 6.28936C56.9551 13.6897 62.3407 28.7954 50.0425 33.5459C38.0717 38.1705 27.4702 25.9801 16.3055 29.8308C-0.25753 35.5434 -5.93068 72.3658 10.4149 98.2773C15.3313 106.067 20.133 109.543 20.7663 117.604C22.1204 134.913 1.76814 141.981 3.33419 150.679C6.8598 170.262 122.545 203.892 183.089 155.889C211.367 133.47 223.276 96.6869 209.819 65.3134C185.502 8.62435 86.9674 -10.314 66.2072 6.28936Z" fill="url(#paint0_linear_9211_89861)"/>
<path opacity="0.3" d="M115.237 31.7766C110.608 25.7993 100.129 32.5956 100.129 32.5956C100.129 32.5956 97.3288 47.5604 95.2023 48.7675C93.0757 49.9747 95.0942 35.4979 95.0942 35.4979C90.5715 36.8726 81.717 46.7788 81.717 46.7788C81.717 46.7788 88.1472 60.2316 85.787 60.8779C83.4268 61.5243 80.7059 48.6787 80.7059 48.6787C77.0264 51.6787 75.1489 58.2055 75.1489 58.2055C73.5741 68.2256 88.6736 74.4784 88.0084 81.1652C88.0084 81.1652 87.7641 82.4496 87.8044 84.4447L88.9513 83.9713C88.9139 83.6232 88.894 83.2836 88.8915 82.9523L88.8914 82.9384C88.8974 82.7289 88.9045 82.4295 88.9169 82.0641C88.9818 81.2339 89.0072 80.629 89.0043 80.2012C89.1567 77.6144 90.1001 73.0316 90.26 73.178C93.9767 76.5727 104.084 73.2192 109.087 69.834C114.089 66.4488 111.06 65.8955 107.073 64.6084C103.085 63.3214 97.188 66.5283 94.9621 66.305C92.7362 66.0818 94.9852 63.9939 98.7469 62.7683C102.509 61.5427 105.85 64.4345 111.975 62.563C118.099 60.6914 117.967 47.7555 117.967 47.7555C114.427 50.698 106.201 51.4669 105.336 50.1807C104.471 48.8945 115.326 44.5736 116.833 43.4577C118.34 42.3418 119.863 37.7529 115.237 31.7766Z" fill="#A5A6F6"/>
<path opacity="0.85" d="M75.4092 56.5673C75.4092 56.5673 65.6066 44.6758 64.4131 32.7196C64.2585 31.1333 66.1891 30.2292 67.323 31.3593C67.3447 31.3744 67.3605 31.398 67.3795 31.4168C69.2824 33.3749 71.5517 47.6534 75.4092 56.5673Z" fill="#E1E1FA"/>
<path opacity="0.85" d="M77.9185 60.2804C77.9185 60.2804 69.4845 41.4388 72.5704 25.9837C72.7584 25.0412 73.6543 24.3774 74.6046 24.5334C75.2235 24.6342 75.9183 25.0782 76.5547 26.2368C78.2527 29.3281 76.174 47.8687 77.9185 60.2804Z" fill="#E1E1FA"/>
<path d="M192.122 139.659L36.9055 138.377V142.164C36.9055 143.192 37.5826 144.065 38.4993 144.221L82.3899 151.677C82.9099 151.766 83.4389 151.789 83.9647 151.747L190.435 143.246C191.385 143.17 192.121 142.293 192.121 141.238L192.122 139.659Z" fill="url(#paint1_linear_9211_89861)"/>
<path d="M135.795 133.521L38.5105 140.447C36.7699 140.571 35.3542 139.255 35.3542 137.505V67.4337C35.3539 66.5946 35.6862 65.7897 36.278 65.1959C36.8698 64.6021 37.6728 64.2679 38.5105 64.2668H135.795C137.229 64.2668 138.389 65.5485 138.389 67.1296V130.473C138.389 132.054 137.229 133.418 135.795 133.521Z" fill="url(#paint2_linear_9211_89861)"/>
<path d="M137.346 133.521L40.0617 140.447C38.3212 140.571 36.9055 139.255 36.9055 137.505V67.4337C36.9052 66.5946 37.2375 65.7897 37.8293 65.1959C38.4211 64.6021 39.2241 64.2679 40.0617 64.2668H137.346C138.78 64.2668 139.94 65.5485 139.94 67.1296V130.473C139.94 132.054 138.78 133.418 137.346 133.521Z" fill="url(#paint3_linear_9211_89861)"/>
<path d="M136.456 70.68V126.557C136.456 127.857 135.499 128.975 134.315 129.055L116.189 130.257L50.5873 134.615L43.7026 135.072C42.287 135.165 41.1353 134.084 41.1353 132.656V71.3078C41.1346 70.6233 41.4041 69.9663 41.885 69.4801C42.366 68.9938 43.0193 68.7177 43.7026 68.7119L78.0405 68.5696L89.6799 68.5204L98.9515 68.4824L107.106 68.4481L134.313 68.3342C135.499 68.3307 136.456 69.38 136.456 70.68Z" fill="url(#paint4_linear_9211_89861)"/>
<g style="mix-blend-mode:soft-light" opacity="0.48">
<path d="M113.907 114.302C106.407 110.237 100.51 115.388 94.8189 110.305C91.3686 107.223 93.0624 104.926 88.8166 100.321C84.1146 95.2222 81.053 96.9349 76.3291 92.3441C70.3516 86.5398 73.3421 82.0236 68.195 77.8561C61.9512 72.8005 55.2174 77.4803 49.2736 72.6316C46.7098 70.5401 45.3031 67.5001 44.5686 64.2668H38.7515C38.2607 64.2683 37.7905 64.4648 37.4443 64.8133C37.0981 65.1618 36.9041 65.6337 36.905 66.1253V138.761C36.9009 138.999 36.9469 139.236 37.0399 139.456C37.1329 139.675 37.2709 139.873 37.4449 140.036C37.619 140.198 37.8252 140.323 38.0503 140.401C38.2754 140.479 38.5143 140.508 38.7515 140.488L137.9 133.397C138.387 133.362 138.818 133.076 139.095 132.661C131.837 132.395 127.377 129.943 124.528 127.409C118.952 122.451 119.92 117.562 113.907 114.302Z" fill="white"/>
</g>
<path d="M141.223 133.207L36.9055 140.498L82.3899 148.225C82.9099 148.314 83.4389 148.337 83.9647 148.295L192.122 139.66L142.882 133.257C142.332 133.185 141.777 133.168 141.223 133.207Z" fill="url(#paint5_linear_9211_89861)"/>
<path d="M132.845 160.078L166.195 151.142C166.901 150.954 167.37 150.39 167.237 149.885L148.542 79.3452C148.409 78.8429 147.722 78.5871 147.016 78.7762L113.667 87.7112C112.96 87.8993 112.492 88.4636 112.625 88.9678L131.323 159.508C131.453 160.011 132.14 160.267 132.845 160.078Z" fill="white"/>
<g opacity="0.5">
<path d="M144.201 86.253C145.061 86.0169 145.949 86.5224 146.185 87.3821L147.398 91.7985C147.634 92.6583 147.129 93.5467 146.269 93.7828L139.234 95.7154C138.804 95.8335 138.36 95.5807 138.242 95.1509L136.601 89.1778C136.483 88.7479 136.736 88.3037 137.166 88.1856L144.201 86.253Z" fill="#E56EAB"/>
<rect x="142.066" y="85.4897" width="0.650725" height="2.08232" rx="0.325362" transform="rotate(74.6401 142.066 85.4897)" fill="#E56EAB"/>
<rect x="144.652" y="94.9021" width="0.650725" height="2.08232" rx="0.325363" transform="rotate(74.6401 144.652 94.9021)" fill="#E56EAB"/>
<path d="M143.08 86.5609L142.822 85.6196L141.818 85.8954" stroke="#E56EAB" stroke-width="0.403587" stroke-linecap="round" stroke-linejoin="round"/>
<path d="M145.149 94.0908L145.407 95.032L144.403 95.3078" stroke="#E56EAB" stroke-width="0.403587" stroke-linecap="round" stroke-linejoin="round"/>
<ellipse cx="137.067" cy="89.5624" rx="0.650725" ry="1.04116" transform="rotate(74.6401 137.067 89.5624)" fill="#E56EAB"/>
<ellipse cx="138.445" cy="94.5825" rx="0.650725" ry="1.04116" transform="rotate(74.6401 138.445 94.5825)" fill="#E56EAB"/>
<rect x="143.922" y="87.0046" width="6.50725" height="4.16464" rx="0.807175" transform="rotate(74.6401 143.922 87.0046)" fill="white"/>
<path d="M139.467 94.3688C140.45 93.7565 141.434 94.5412 141.802 95.0101L140.798 95.2859C140.531 95.3594 139.799 94.7051 139.467 94.3688Z" fill="white"/>
<path d="M138.053 89.2246C139.212 89.2485 139.656 88.0716 139.734 87.4801L138.73 87.7559C138.462 87.8295 138.167 88.7657 138.053 89.2246Z" fill="white"/>
</g>
<path d="M132.845 160.078L135.587 159.343L116.404 86.9749L113.663 87.7094C112.956 87.8975 112.487 88.4618 112.62 88.966L131.319 159.506C131.452 160.011 132.139 160.267 132.845 160.078Z" fill="#E56EAB"/>
<path opacity="0.3" d="M145.297 122.604L139.682 101.428L135.401 102.571L141.016 123.747L145.297 122.604Z" fill="#E56EAB"/>
<path opacity="0.3" d="M135.536 125.268L129.921 104.093L125.64 105.235L131.255 126.411L135.536 125.268Z" fill="#A4A5F1"/>
<path opacity="0.3" d="M157.166 129.027L149.174 98.8862L144.893 100.029L152.885 130.17L157.166 129.027Z" fill="#E56EAB"/>
<path d="M147.801 115.394L143.805 100.323L142.851 100.578L146.847 115.648L147.801 115.394Z" fill="#E56EAB"/>
<path d="M138.37 117.918L134.374 102.848L133.421 103.103L137.417 118.173L138.37 117.918Z" fill="#A4A5F1"/>
<path d="M128.611 120.582L124.615 105.511L123.661 105.766L127.657 120.837L128.611 120.582Z" fill="#A4A5F1"/>
<g filter="url(#filter0_d_9211_89861)">
<path d="M139.484 155.989L163.937 131.615C164.455 131.1 164.58 130.377 164.212 130.006L112.834 78.1824C112.469 77.8134 111.746 77.9342 111.228 78.45L86.7758 102.824C86.257 103.339 86.1322 104.062 86.4989 104.433L137.88 156.254C138.243 156.626 138.966 156.505 139.484 155.989Z" fill="white"/>
<g opacity="0.5">
<path d="M112.516 86.3339C113.144 85.7005 114.166 85.6957 114.799 86.3232L118.053 89.5465C118.687 90.1739 118.691 91.1961 118.064 91.8295L112.929 97.0127C112.615 97.3294 112.104 97.3318 111.788 97.018L107.387 92.6586C107.07 92.3448 107.068 91.8338 107.382 91.5171L112.516 86.3339Z" fill="#5D5FEF"/>
<rect x="110.286" y="86.7366" width="0.650725" height="2.08232" rx="0.325362" transform="rotate(44.7309 110.286 86.7366)" fill="#5D5FEF"/>
<rect x="117.22" y="93.606" width="0.650725" height="2.08232" rx="0.325363" transform="rotate(44.7309 117.22 93.606)" fill="#5D5FEF"/>
<path d="M111.699 87.1594L111.005 86.4724L110.272 87.2121" stroke="#5D5FEF" stroke-width="0.403587" stroke-linecap="round" stroke-linejoin="round"/>
<path d="M117.246 92.6548L117.939 93.3418L117.207 94.0815" stroke="#5D5FEF" stroke-width="0.403587" stroke-linecap="round" stroke-linejoin="round"/>
<ellipse cx="107.982" cy="92.7599" rx="0.650725" ry="1.04116" transform="rotate(44.7309 107.982 92.7599)" fill="#5D5FEF"/>
<ellipse cx="111.681" cy="96.4235" rx="0.650725" ry="1.04116" transform="rotate(44.7309 111.681 96.4235)" fill="#5D5FEF"/>
<rect x="112.649" y="87.1243" width="6.50725" height="4.16464" rx="0.807175" transform="rotate(44.7309 112.649 87.1243)" fill="white"/>
<path d="M112.459 95.7292C113.007 94.7081 114.25 94.898 114.804 95.1205L114.071 95.8602C113.876 96.0574 112.915 95.8551 112.459 95.7292Z" fill="white"/>
<path d="M108.669 91.9748C109.685 91.4179 109.484 90.1761 109.256 89.6248L108.523 90.3645C108.328 90.5617 108.539 91.5202 108.669 91.9748Z" fill="white"/>
</g>
<path d="M139.484 155.989L141.495 153.985L88.7821 100.821L86.772 102.824C86.2532 103.34 86.1283 104.063 86.4951 104.433L137.876 156.255C138.244 156.626 138.967 156.505 139.484 155.989Z" fill="#A4A5F1"/>
<path opacity="0.3" d="M131.591 117.298L116.166 101.743L113.025 104.868L128.451 120.424L131.591 117.298Z" fill="#A4A5F1"/>
<path opacity="0.3" d="M124.458 124.474L109.032 108.918L105.892 112.043L121.318 127.599L124.458 124.474Z" fill="#A4A5F1"/>
<path opacity="0.3" d="M145.084 116.947L123.127 94.8052L119.986 97.9303L141.943 120.072L145.084 116.947Z" fill="#A4A5F1"/>
<path d="M130.167 109.798L119.188 98.7275L118.489 99.4239L129.467 110.495L130.167 109.798Z" fill="#A4A5F1"/>
<path d="M123.252 116.689L112.274 105.618L111.574 106.315L122.553 117.386L123.252 116.689Z" fill="#A4A5F1"/>
<path d="M116.119 123.865L105.141 112.794L104.441 113.49L115.42 124.561L116.119 123.865Z" fill="#A4A5F1"/>
</g>
</g>
<defs>
<filter id="filter0_d_9211_89861" x="81.4414" y="76.3542" width="87.8253" height="88.1881" filterUnits="userSpaceOnUse" color-interpolation-filters="sRGB">
<feFlood flood-opacity="0" result="BackgroundImageFix"/>
<feColorMatrix in="SourceAlpha" type="matrix" values="0 0 0 0 0 0 0 0 0 0 0 0 0 0 0 0 0 0 127 0" result="hardAlpha"/>
<feOffset dy="3.2287"/>
<feGaussianBlur stdDeviation="2.42152"/>
<feComposite in2="hardAlpha" operator="out"/>
<feColorMatrix type="matrix" values="0 0 0 0 0.552941 0 0 0 0 0.501961 0 0 0 0 0.905882 0 0 0 0.34 0"/>
<feBlend mode="normal" in2="BackgroundImageFix" result="effect1_dropShadow_9211_89861"/>
<feBlend mode="normal" in="SourceGraphic" in2="effect1_dropShadow_9211_89861" result="shape"/>
</filter>
<linearGradient id="paint0_linear_9211_89861" x1="215.354" y1="123.625" x2="0.540641" y2="22.9117" gradientUnits="userSpaceOnUse">
<stop stop-color="#F1F2F6"/>
<stop offset="1" stop-color="#E5E6EC"/>
</linearGradient>
<linearGradient id="paint1_linear_9211_89861" x1="102.487" y1="145.564" x2="91.5843" y2="150.136" gradientUnits="userSpaceOnUse">
<stop stop-color="#40447E"/>
<stop offset="1" stop-color="#3C3B6B"/>
</linearGradient>
<linearGradient id="paint2_linear_9211_89861" x1="84.818" y1="99.8125" x2="73.6796" y2="104.483" gradientUnits="userSpaceOnUse">
<stop stop-color="#40447E"/>
<stop offset="1" stop-color="#3C3B6B"/>
</linearGradient>
<linearGradient id="paint3_linear_9211_89861" x1="36.9055" y1="102.361" x2="139.94" y2="102.361" gradientUnits="userSpaceOnUse">
<stop stop-color="#40447E"/>
<stop offset="1" stop-color="#3C3B6B"/>
</linearGradient>
<linearGradient id="paint4_linear_9211_89861" x1="102.033" y1="77.2633" x2="22.6257" y2="206.859" gradientUnits="userSpaceOnUse">
<stop stop-color="#E2E2FA"/>
<stop offset="1" stop-color="#A4A5F0"/>
</linearGradient>
<linearGradient id="paint5_linear_9211_89861" x1="36.9055" y1="140.75" x2="192.122" y2="140.75" gradientUnits="userSpaceOnUse">
<stop stop-color="#40447E"/>
<stop offset="1" stop-color="#3C3B6B"/>
</linearGradient>
<clipPath id="clip0_9211_89861">
<rect width="214.709" height="180" fill="white" transform="translate(0.645752 0.5)"/>
</clipPath>
</defs>
</svg>
