<svg width="266" height="223" viewBox="0 0 266 223" fill="none" xmlns="http://www.w3.org/2000/svg">
<g clip-path="url(#clip0_9211_89606)">
<path d="M81.2234 7.17237C69.761 16.3405 76.4332 35.0549 61.1971 40.9402C46.3666 46.6695 33.2325 31.567 19.4007 36.3376C-1.11907 43.4148 -8.14746 89.0338 12.1029 121.135C18.1938 130.786 24.1425 135.092 24.9271 145.079C26.6047 166.523 1.39052 175.28 3.33068 186.055C7.69851 210.317 151.02 251.98 226.027 192.51C261.061 164.736 275.814 119.165 259.142 80.2966C229.016 10.0652 106.943 -13.3973 81.2234 7.17237Z" fill="url(#paint0_linear_9211_89606)"/>
<path opacity="0.3" d="M141.966 38.7482C136.231 31.343 123.249 39.7628 123.249 39.7628C123.249 39.7628 119.78 58.3025 117.145 59.7981C114.51 61.2936 117.011 43.3584 117.011 43.3584C111.408 45.0616 100.438 57.3342 100.438 57.3342C100.438 57.3342 108.405 74.0008 105.481 74.8015C102.557 75.6022 99.1856 59.688 99.1856 59.688C94.6271 63.4047 92.3011 71.4907 92.3011 71.4907C90.3501 83.9044 109.057 91.651 108.233 99.9352C108.233 99.9352 107.93 101.526 107.98 103.998L109.401 103.412C109.354 102.98 109.33 102.56 109.327 102.149L109.327 102.132C109.334 101.872 109.343 101.501 109.358 101.049C109.438 100.02 109.47 99.2709 109.466 98.7409C109.655 95.5362 110.824 89.8585 111.022 90.0398C115.627 94.2456 128.148 90.0909 134.346 85.8971C140.544 81.7032 136.791 81.0176 131.851 79.4231C126.911 77.8286 119.605 81.8016 116.847 81.525C114.09 81.2484 116.876 78.6618 121.536 77.1435C126.197 75.6251 130.337 79.2077 137.924 76.8891C145.512 74.5704 145.348 58.5442 145.348 58.5442C140.963 62.1896 130.772 63.1422 129.699 61.5488C128.627 59.9553 142.076 54.6022 143.943 53.2197C145.81 51.8372 147.697 46.1521 141.966 38.7482Z" fill="#A5A6F6"/>
<path opacity="0.85" d="M92.6236 69.4612C92.6236 69.4612 80.4793 54.729 79.0007 39.9165C78.8092 37.9513 81.2009 36.8312 82.6058 38.2313C82.6326 38.25 82.6522 38.2792 82.6758 38.3026C85.0331 40.7284 87.8446 58.4179 92.6236 69.4612Z" fill="#E1E1FA"/>
<path opacity="0.85" d="M95.7323 74.0612C95.7323 74.0612 85.2835 50.7185 89.1067 31.5714C89.3396 30.4037 90.4494 29.5813 91.6267 29.7746C92.3936 29.8995 93.2543 30.4496 94.0427 31.8849C96.1464 35.7147 93.5711 58.6845 95.7323 74.0612Z" fill="#E1E1FA"/>
<path d="M237.218 172.403L44.9219 170.814V175.505C44.9219 176.779 45.7607 177.861 46.8964 178.054L101.272 187.292C101.916 187.401 102.572 187.43 103.223 187.378L235.127 176.846C236.305 176.752 237.217 175.666 237.217 174.358L237.218 172.403Z" fill="url(#paint1_linear_9211_89606)"/>
<path d="M167.434 164.798L46.9102 173.379C44.7538 173.533 43 171.902 43 169.734V82.9234C42.9996 81.8839 43.4112 80.8867 44.1444 80.151C44.8776 79.4154 45.8724 79.0014 46.9102 79H167.434C169.212 79 170.648 80.5879 170.648 82.5466V161.022C170.648 162.981 169.212 164.671 167.434 164.798Z" fill="url(#paint2_linear_9211_89606)"/>
<path d="M169.356 164.798L48.8321 173.379C46.6757 173.533 44.9219 171.902 44.9219 169.734V82.9234C44.9215 81.8839 45.3331 80.8867 46.0663 80.151C46.7995 79.4154 47.7943 79.0014 48.8321 79H169.356C171.134 79 172.57 80.5879 172.57 82.5466V161.022C172.57 162.981 171.134 164.671 169.356 164.798Z" fill="url(#paint3_linear_9211_89606)"/>
<path d="M168.253 86.9453V156.171C168.253 157.781 167.069 159.166 165.601 159.265L143.145 160.755L61.8722 166.153L53.3428 166.719C51.5889 166.835 50.1621 165.495 50.1621 163.727V87.723C50.1613 86.875 50.4952 86.0611 51.091 85.4586C51.6868 84.8562 52.4962 84.5141 53.3428 84.5069L95.8836 84.3306L110.304 84.2697L121.79 84.2227L131.892 84.1801L165.599 84.0391C167.069 84.0347 168.253 85.3346 168.253 86.9453Z" fill="url(#paint4_linear_9211_89606)"/>
<g style="mix-blend-mode:soft-light" opacity="0.48">
<path d="M140.318 140.988C131.026 135.951 123.721 142.334 116.67 136.037C112.396 132.218 114.494 129.372 109.234 123.666C103.409 117.35 99.6157 119.472 93.7632 113.785C86.3578 106.594 90.0627 100.999 83.686 95.8356C75.9506 89.5723 67.6082 95.3699 60.2445 89.363C57.0683 86.7719 55.3254 83.0056 54.4155 79H47.2088C46.6007 79.0018 46.0182 79.2452 45.5893 79.677C45.1603 80.1087 44.92 80.6934 44.9212 81.3025V171.29C44.9161 171.585 44.973 171.879 45.0882 172.151C45.2035 172.423 45.3744 172.667 45.5901 172.869C45.8057 173.071 46.0612 173.225 46.3401 173.321C46.6189 173.418 46.9149 173.455 47.2088 173.429L170.043 164.645C170.646 164.601 171.181 164.247 171.524 163.732C162.532 163.403 157.006 160.366 153.476 157.226C146.569 151.084 147.767 145.027 140.318 140.988Z" fill="white"/>
</g>
<path d="M174.16 164.409L44.9219 173.442L101.272 183.015C101.916 183.125 102.572 183.154 103.223 183.102L237.218 172.403L176.215 164.471C175.534 164.382 174.846 164.361 174.16 164.409Z" fill="url(#paint5_linear_9211_89606)"/>
<g filter="url(#filter0_d_9211_89606)">
<path d="M212.858 154.272L212.859 111.498C212.86 110.593 212.335 109.851 211.688 109.848L121.28 109.601C120.637 109.6 120.11 110.34 120.11 111.245L120.109 154.018C120.108 154.924 120.633 155.666 121.279 155.668L211.688 155.91C212.331 155.917 212.858 155.177 212.858 154.272Z" fill="white"/>
<path d="M156.333 117.917L151.75 122.5L149.667 120.417" stroke="#A4A5F1" stroke-linecap="round" stroke-linejoin="round"/>
<path d="M156.333 129.917L151.75 134.5L149.667 132.417" stroke="#A4A5F1" stroke-linecap="round" stroke-linejoin="round"/>
<path d="M156.333 141.917L151.75 146.5L149.667 144.417" stroke="#A4A5F1" stroke-linecap="round" stroke-linejoin="round"/>
<path d="M127.12 117.013C127.159 116.977 127.205 116.95 127.256 116.933C127.306 116.916 127.36 116.909 127.413 116.914C128.565 117.016 130.715 116.469 132.119 115.053C132.216 114.954 132.394 115.01 132.506 115.092C134.068 116.243 136.658 116.481 137.556 116.53C137.646 116.535 137.732 116.571 137.797 116.633C137.862 116.694 137.903 116.776 137.912 116.865C138.73 124.647 133.589 127.466 132.523 127.964C132.466 127.991 132.402 128.003 132.339 127.999C132.275 127.996 132.214 127.977 132.16 127.943C126.846 124.681 127.074 120.439 127 117.295C126.999 117.243 127.009 117.19 127.03 117.142C127.05 117.093 127.081 117.049 127.12 117.013Z" fill="url(#paint6_linear_9211_89606)"/>
<path d="M212.858 154.272L212.858 150.754L120.106 150.506L120.106 154.022C120.105 154.928 120.63 155.67 121.276 155.672L211.685 155.914C212.332 155.917 212.858 155.177 212.858 154.272Z" fill="#5D5FEF"/>
<path opacity="0.3" d="M187.146 127.356L160.005 127.285L160 132.774L187.141 132.845L187.146 127.356Z" fill="#A4A5F1"/>
<path opacity="0.3" d="M187.203 139.89L160.062 139.819L160.058 145.308L187.198 145.379L187.203 139.89Z" fill="#A4A5F1"/>
<path opacity="0.3" d="M198.639 115.21L160.007 115.109L160.002 120.598L198.634 120.699L198.639 115.21Z" fill="#A4A5F1"/>
<path d="M179.32 122.046L160.004 121.996L160.003 123.219L179.319 123.269L179.32 122.046Z" fill="#A4A5F1"/>
<path d="M179.318 134.14L160.002 134.09L160.001 135.313L179.317 135.363L179.318 134.14Z" fill="#A4A5F1"/>
<path d="M179.375 146.674L160.06 146.624L160.058 147.847L179.374 147.897L179.375 146.674Z" fill="#A4A5F1"/>
</g>
</g>
<defs>
<filter id="filter0_d_9211_89606" x="114.106" y="107.601" width="104.753" height="58.313" filterUnits="userSpaceOnUse" color-interpolation-filters="sRGB">
<feFlood flood-opacity="0" result="BackgroundImageFix"/>
<feColorMatrix in="SourceAlpha" type="matrix" values="0 0 0 0 0 0 0 0 0 0 0 0 0 0 0 0 0 0 127 0" result="hardAlpha"/>
<feOffset dy="4"/>
<feGaussianBlur stdDeviation="3"/>
<feComposite in2="hardAlpha" operator="out"/>
<feColorMatrix type="matrix" values="0 0 0 0 0.552941 0 0 0 0 0.501961 0 0 0 0 0.905882 0 0 0 0.34 0"/>
<feBlend mode="normal" in2="BackgroundImageFix" result="effect1_dropShadow_9211_89606"/>
<feBlend mode="normal" in="SourceGraphic" in2="effect1_dropShadow_9211_89606" result="shape"/>
</filter>
<linearGradient id="paint0_linear_9211_89606" x1="266" y1="152.538" x2="-0.130223" y2="27.7656" gradientUnits="userSpaceOnUse">
<stop stop-color="#F1F2F6"/>
<stop offset="1" stop-color="#E5E6EC"/>
</linearGradient>
<linearGradient id="paint1_linear_9211_89606" x1="126.17" y1="179.718" x2="112.663" y2="185.382" gradientUnits="userSpaceOnUse">
<stop stop-color="#40447E"/>
<stop offset="1" stop-color="#3C3B6B"/>
</linearGradient>
<linearGradient id="paint2_linear_9211_89606" x1="104.28" y1="123.037" x2="90.4808" y2="128.823" gradientUnits="userSpaceOnUse">
<stop stop-color="#40447E"/>
<stop offset="1" stop-color="#3C3B6B"/>
</linearGradient>
<linearGradient id="paint3_linear_9211_89606" x1="44.9219" y1="126.194" x2="172.57" y2="126.194" gradientUnits="userSpaceOnUse">
<stop stop-color="#40447E"/>
<stop offset="1" stop-color="#3C3B6B"/>
</linearGradient>
<linearGradient id="paint4_linear_9211_89606" x1="125.607" y1="95.1012" x2="27.2308" y2="255.656" gradientUnits="userSpaceOnUse">
<stop stop-color="#E2E2FA"/>
<stop offset="1" stop-color="#A4A5F0"/>
</linearGradient>
<linearGradient id="paint5_linear_9211_89606" x1="44.9219" y1="173.755" x2="237.218" y2="173.755" gradientUnits="userSpaceOnUse">
<stop stop-color="#40447E"/>
<stop offset="1" stop-color="#3C3B6B"/>
</linearGradient>
<linearGradient id="paint6_linear_9211_89606" x1="126.496" y1="122.943" x2="135.731" y2="116.373" gradientUnits="userSpaceOnUse">
<stop offset="0.03" stop-color="#FF9086"/>
<stop offset="1" stop-color="#EE1E89"/>
</linearGradient>
<clipPath id="clip0_9211_89606">
<rect width="266" height="223" fill="white"/>
</clipPath>
</defs>
</svg>
