<svg width="216" height="181" viewBox="0 0 216 181" fill="none" xmlns="http://www.w3.org/2000/svg">
<g clip-path="url(#clip0_9211_89608)">
<path d="M66.2072 6.28936C56.9551 13.6897 62.3407 28.7954 50.0425 33.5459C38.0717 38.1705 27.4702 25.9801 16.3055 29.8308C-0.25753 35.5434 -5.93068 72.3658 10.4149 98.2773C15.3313 106.067 20.133 109.543 20.7663 117.604C22.1204 134.913 1.76814 141.981 3.33419 150.679C6.8598 170.262 122.545 203.892 183.089 155.889C211.367 133.47 223.276 96.6869 209.819 65.3134C185.502 8.62435 86.9674 -10.314 66.2072 6.28936Z" fill="url(#paint0_linear_9211_89608)"/>
<path opacity="0.3" d="M115.237 31.7766C110.608 25.7993 100.129 32.5956 100.129 32.5956C100.129 32.5956 97.3286 47.5604 95.202 48.7675C93.0755 49.9747 95.094 35.4979 95.094 35.4979C90.5713 36.8726 81.7168 46.7788 81.7168 46.7788C81.7168 46.7788 88.147 60.2316 85.7868 60.8779C83.4266 61.5243 80.7056 48.6787 80.7056 48.6787C77.0261 51.6787 75.1487 58.2055 75.1487 58.2055C73.5739 68.2256 88.6733 74.4784 88.0082 81.1652C88.0082 81.1652 87.7639 82.4496 87.8042 84.4447L88.9511 83.9713C88.9137 83.6232 88.8937 83.2836 88.8912 82.9523L88.8912 82.9384C88.8971 82.7289 88.9042 82.4295 88.9167 82.0641C88.9815 81.2339 89.0069 80.629 89.0041 80.2012C89.1564 77.6144 90.0999 73.0316 90.2597 73.178C93.9764 76.5727 104.083 73.2192 109.086 69.834C114.089 66.4488 111.06 65.8955 107.072 64.6084C103.085 63.3214 97.1877 66.5283 94.9619 66.305C92.736 66.0818 94.985 63.9939 98.7466 62.7683C102.508 61.5427 105.85 64.4345 111.974 62.563C118.099 60.6914 117.967 47.7555 117.967 47.7555C114.427 50.698 106.201 51.4669 105.336 50.1807C104.47 48.8945 115.326 44.5736 116.833 43.4577C118.34 42.3418 119.863 37.7529 115.237 31.7766Z" fill="#A5A6F6"/>
<path opacity="0.85" d="M75.4092 56.5673C75.4092 56.5673 65.6066 44.6758 64.4131 32.7196C64.2585 31.1333 66.1891 30.2292 67.323 31.3593C67.3447 31.3744 67.3605 31.398 67.3795 31.4168C69.2824 33.3749 71.5517 47.6534 75.4092 56.5673Z" fill="#E1E1FA"/>
<path opacity="0.85" d="M77.9183 60.2804C77.9183 60.2804 69.4842 41.4388 72.5702 25.9837C72.7582 25.0412 73.654 24.3774 74.6043 24.5334C75.2233 24.6342 75.9181 25.0782 76.5544 26.2368C78.2525 29.3281 76.1738 47.8687 77.9183 60.2804Z" fill="#E1E1FA"/>
<path d="M192.122 139.659L36.9055 138.377V142.164C36.9055 143.192 37.5826 144.065 38.4993 144.221L82.3899 151.677C82.9099 151.766 83.4389 151.789 83.9647 151.747L190.435 143.246C191.385 143.17 192.121 142.293 192.121 141.238L192.122 139.659Z" fill="url(#paint1_linear_9211_89608)"/>
<path d="M135.795 133.521L38.5105 140.447C36.7699 140.571 35.3542 139.255 35.3542 137.505V67.4337C35.3539 66.5946 35.6862 65.7897 36.278 65.1959C36.8698 64.6021 37.6728 64.2679 38.5105 64.2668H135.795C137.229 64.2668 138.389 65.5485 138.389 67.1296V130.473C138.389 132.054 137.229 133.418 135.795 133.521Z" fill="url(#paint2_linear_9211_89608)"/>
<path d="M137.346 133.521L40.0617 140.447C38.3212 140.571 36.9055 139.255 36.9055 137.505V67.4337C36.9052 66.5946 37.2375 65.7897 37.8293 65.1959C38.4211 64.6021 39.2241 64.2679 40.0617 64.2668H137.346C138.78 64.2668 139.94 65.5485 139.94 67.1296V130.473C139.94 132.054 138.78 133.418 137.346 133.521Z" fill="url(#paint3_linear_9211_89608)"/>
<path d="M136.456 70.68V126.557C136.456 127.857 135.499 128.975 134.315 129.055L116.189 130.257L50.5873 134.615L43.7026 135.072C42.287 135.165 41.1353 134.084 41.1353 132.656V71.3078C41.1346 70.6233 41.4041 69.9663 41.885 69.4801C42.366 68.9938 43.0193 68.7177 43.7026 68.7119L78.0405 68.5696L89.6799 68.5204L98.9515 68.4824L107.106 68.4481L134.313 68.3342C135.499 68.3307 136.456 69.38 136.456 70.68Z" fill="url(#paint4_linear_9211_89608)"/>
<g style="mix-blend-mode:soft-light" opacity="0.48">
<path d="M113.907 114.302C106.407 110.237 100.51 115.388 94.8189 110.305C91.3686 107.223 93.0624 104.926 88.8166 100.321C84.1146 95.2222 81.053 96.9349 76.3291 92.3441C70.3516 86.5398 73.3421 82.0236 68.195 77.8561C61.9512 72.8005 55.2174 77.4803 49.2736 72.6316C46.7098 70.5401 45.3031 67.5001 44.5686 64.2668H38.7515C38.2607 64.2683 37.7905 64.4648 37.4443 64.8133C37.0981 65.1618 36.9041 65.6337 36.905 66.1253V138.761C36.9009 138.999 36.9469 139.236 37.0399 139.456C37.1329 139.675 37.2709 139.873 37.4449 140.036C37.619 140.198 37.8252 140.323 38.0503 140.401C38.2754 140.479 38.5143 140.508 38.7515 140.488L137.9 133.397C138.387 133.362 138.818 133.076 139.095 132.661C131.837 132.395 127.377 129.943 124.528 127.409C118.952 122.451 119.92 117.562 113.907 114.302Z" fill="white"/>
</g>
<path d="M141.223 133.207L36.9055 140.498L82.3899 148.225C82.9099 148.314 83.4389 148.337 83.9647 148.295L192.122 139.66L142.882 133.257C142.332 133.185 141.777 133.168 141.223 133.207Z" fill="url(#paint5_linear_9211_89608)"/>
<g filter="url(#filter0_d_9211_89608)">
<path d="M172.459 125.024L172.46 90.498C172.461 89.7676 172.037 89.1689 171.515 89.1667L98.5404 88.9675C98.0208 88.9661 97.5959 89.5635 97.5958 90.2941L97.595 124.819C97.5938 125.551 98.0176 126.149 98.539 126.151L171.515 126.347C172.034 126.352 172.459 125.755 172.459 125.024Z" fill="white"/>
<path d="M126.834 95.6794L123.134 99.379L121.453 97.6974" stroke="#A4A5F1" stroke-width="0.807175" stroke-linecap="round" stroke-linejoin="round"/>
<path d="M126.834 105.365L123.134 109.065L121.453 107.383" stroke="#A4A5F1" stroke-width="0.807175" stroke-linecap="round" stroke-linejoin="round"/>
<path d="M126.834 115.052L123.134 118.751L121.453 117.07" stroke="#A4A5F1" stroke-width="0.807175" stroke-linecap="round" stroke-linejoin="round"/>
<path d="M103.254 94.9503C103.285 94.9212 103.323 94.8991 103.364 94.8852C103.404 94.8714 103.448 94.8662 103.491 94.8699C104.42 94.9524 106.155 94.511 107.289 93.3676C107.368 93.288 107.511 93.3331 107.601 93.3994C108.862 94.3282 110.953 94.5205 111.678 94.5599C111.75 94.5639 111.819 94.5934 111.872 94.643C111.925 94.6926 111.958 94.759 111.965 94.8305C112.625 101.112 108.476 103.388 107.615 103.79C107.569 103.811 107.518 103.821 107.466 103.818C107.415 103.815 107.365 103.8 107.322 103.773C103.033 101.14 103.216 97.7151 103.157 95.1779C103.156 95.1354 103.164 95.0931 103.181 95.0539C103.198 95.0147 103.222 94.9794 103.254 94.9503Z" fill="url(#paint6_linear_9211_89608)"/>
<path d="M172.46 125.024L172.46 122.185L97.5926 121.984L97.5925 124.823C97.5913 125.554 98.0151 126.153 98.5365 126.155L171.512 126.35C172.035 126.352 172.46 125.755 172.46 125.024Z" fill="#5D5FEF"/>
<path opacity="0.3" d="M151.705 103.299L129.798 103.241L129.794 107.672L151.701 107.729L151.705 103.299Z" fill="#A4A5F1"/>
<path opacity="0.3" d="M151.752 113.416L129.844 113.359L129.84 117.789L151.748 117.847L151.752 113.416Z" fill="#A4A5F1"/>
<path opacity="0.3" d="M160.982 93.4948L129.799 93.4136L129.795 97.8441L160.978 97.9254L160.982 93.4948Z" fill="#A4A5F1"/>
<path d="M145.388 99.013L129.797 98.9724L129.796 99.9596L145.388 100L145.388 99.013Z" fill="#A4A5F1"/>
<path d="M145.387 108.775L129.795 108.734L129.795 109.721L145.386 109.762L145.387 108.775Z" fill="#A4A5F1"/>
<path d="M145.433 118.892L129.842 118.851L129.841 119.838L145.432 119.879L145.433 118.892Z" fill="#A4A5F1"/>
</g>
</g>
<defs>
<filter id="filter0_d_9211_89608" x="92.7495" y="87.3532" width="84.5538" height="47.0689" filterUnits="userSpaceOnUse" color-interpolation-filters="sRGB">
<feFlood flood-opacity="0" result="BackgroundImageFix"/>
<feColorMatrix in="SourceAlpha" type="matrix" values="0 0 0 0 0 0 0 0 0 0 0 0 0 0 0 0 0 0 127 0" result="hardAlpha"/>
<feOffset dy="3.2287"/>
<feGaussianBlur stdDeviation="2.42152"/>
<feComposite in2="hardAlpha" operator="out"/>
<feColorMatrix type="matrix" values="0 0 0 0 0.552941 0 0 0 0 0.501961 0 0 0 0 0.905882 0 0 0 0.34 0"/>
<feBlend mode="normal" in2="BackgroundImageFix" result="effect1_dropShadow_9211_89608"/>
<feBlend mode="normal" in="SourceGraphic" in2="effect1_dropShadow_9211_89608" result="shape"/>
</filter>
<linearGradient id="paint0_linear_9211_89608" x1="215.354" y1="123.625" x2="0.540641" y2="22.9117" gradientUnits="userSpaceOnUse">
<stop stop-color="#F1F2F6"/>
<stop offset="1" stop-color="#E5E6EC"/>
</linearGradient>
<linearGradient id="paint1_linear_9211_89608" x1="102.487" y1="145.564" x2="91.5843" y2="150.136" gradientUnits="userSpaceOnUse">
<stop stop-color="#40447E"/>
<stop offset="1" stop-color="#3C3B6B"/>
</linearGradient>
<linearGradient id="paint2_linear_9211_89608" x1="84.818" y1="99.8125" x2="73.6796" y2="104.483" gradientUnits="userSpaceOnUse">
<stop stop-color="#40447E"/>
<stop offset="1" stop-color="#3C3B6B"/>
</linearGradient>
<linearGradient id="paint3_linear_9211_89608" x1="36.9055" y1="102.361" x2="139.94" y2="102.361" gradientUnits="userSpaceOnUse">
<stop stop-color="#40447E"/>
<stop offset="1" stop-color="#3C3B6B"/>
</linearGradient>
<linearGradient id="paint4_linear_9211_89608" x1="102.033" y1="77.2633" x2="22.6257" y2="206.859" gradientUnits="userSpaceOnUse">
<stop stop-color="#E2E2FA"/>
<stop offset="1" stop-color="#A4A5F0"/>
</linearGradient>
<linearGradient id="paint5_linear_9211_89608" x1="36.9055" y1="140.75" x2="192.122" y2="140.75" gradientUnits="userSpaceOnUse">
<stop stop-color="#40447E"/>
<stop offset="1" stop-color="#3C3B6B"/>
</linearGradient>
<linearGradient id="paint6_linear_9211_89608" x1="102.75" y1="99.7364" x2="110.205" y2="94.4334" gradientUnits="userSpaceOnUse">
<stop offset="0.03" stop-color="#FF9086"/>
<stop offset="1" stop-color="#EE1E89"/>
</linearGradient>
<clipPath id="clip0_9211_89608">
<rect width="214.709" height="180" fill="white" transform="translate(0.645752 0.5)"/>
</clipPath>
</defs>
</svg>
