<svg width="266" height="223" viewBox="0 0 266 223" fill="none" xmlns="http://www.w3.org/2000/svg">
<g clip-path="url(#clip0_9211_89453)">
<path d="M81.2234 7.17237C69.761 16.3405 76.4332 35.0549 61.1971 40.9402C46.3666 46.6695 33.2325 31.567 19.4007 36.3376C-1.11907 43.4148 -8.14746 89.0338 12.1029 121.135C18.1938 130.786 24.1425 135.092 24.9271 145.079C26.6047 166.523 1.39052 175.28 3.33068 186.055C7.69851 210.317 151.02 251.98 226.027 192.51C261.061 164.736 275.814 119.165 259.142 80.2966C229.016 10.0652 106.943 -13.3973 81.2234 7.17237Z" fill="url(#paint0_linear_9211_89453)"/>
<path opacity="0.3" d="M141.966 38.7482C136.231 31.343 123.249 39.7628 123.249 39.7628C123.249 39.7628 119.78 58.3025 117.145 59.7981C114.51 61.2936 117.011 43.3584 117.011 43.3584C111.408 45.0616 100.438 57.3342 100.438 57.3342C100.438 57.3342 108.405 74.0008 105.481 74.8015C102.557 75.6022 99.1856 59.688 99.1856 59.688C94.6271 63.4047 92.3011 71.4907 92.3011 71.4907C90.3501 83.9044 109.057 91.651 108.233 99.9352C108.233 99.9352 107.93 101.526 107.98 103.998L109.401 103.412C109.354 102.98 109.33 102.56 109.327 102.149L109.327 102.132C109.334 101.872 109.343 101.501 109.358 101.049C109.438 100.02 109.47 99.2709 109.466 98.7409C109.655 95.5362 110.824 89.8585 111.022 90.0398C115.627 94.2456 128.148 90.0909 134.346 85.8971C140.544 81.7032 136.791 81.0176 131.851 79.4231C126.911 77.8286 119.605 81.8016 116.847 81.525C114.09 81.2484 116.876 78.6618 121.536 77.1435C126.197 75.6251 130.337 79.2077 137.924 76.8891C145.512 74.5704 145.348 58.5442 145.348 58.5442C140.963 62.1896 130.772 63.1422 129.699 61.5488C128.627 59.9553 142.076 54.6022 143.943 53.2197C145.81 51.8372 147.697 46.1521 141.966 38.7482Z" fill="#A5A6F6"/>
<path opacity="0.85" d="M92.6236 69.4612C92.6236 69.4612 80.4793 54.729 79.0007 39.9165C78.8092 37.9513 81.2009 36.8312 82.6058 38.2313C82.6326 38.25 82.6522 38.2792 82.6758 38.3026C85.0331 40.7284 87.8446 58.4179 92.6236 69.4612Z" fill="#E1E1FA"/>
<path opacity="0.85" d="M95.7323 74.0612C95.7323 74.0612 85.2835 50.7185 89.1067 31.5714C89.3396 30.4037 90.4494 29.5813 91.6267 29.7746C92.3936 29.8995 93.2543 30.4496 94.0427 31.8849C96.1464 35.7147 93.5711 58.6845 95.7323 74.0612Z" fill="#E1E1FA"/>
<path d="M237.218 172.403L44.9219 170.814V175.505C44.9219 176.779 45.7607 177.861 46.8964 178.054L101.272 187.292C101.916 187.401 102.572 187.43 103.223 187.378L235.127 176.846C236.305 176.752 237.217 175.666 237.217 174.358L237.218 172.403Z" fill="url(#paint1_linear_9211_89453)"/>
<path d="M167.434 164.798L46.9102 173.379C44.7538 173.533 43 171.902 43 169.734V82.9234C42.9996 81.8839 43.4112 80.8867 44.1444 80.151C44.8776 79.4154 45.8724 79.0014 46.9102 79H167.434C169.212 79 170.648 80.5879 170.648 82.5466V161.022C170.648 162.981 169.212 164.671 167.434 164.798Z" fill="url(#paint2_linear_9211_89453)"/>
<path d="M169.356 164.798L48.8321 173.379C46.6757 173.533 44.9219 171.902 44.9219 169.734V82.9234C44.9215 81.8839 45.3331 80.8867 46.0663 80.151C46.7995 79.4154 47.7943 79.0014 48.8321 79H169.356C171.134 79 172.57 80.5879 172.57 82.5466V161.022C172.57 162.981 171.134 164.671 169.356 164.798Z" fill="url(#paint3_linear_9211_89453)"/>
<path d="M168.253 86.9453V156.171C168.253 157.781 167.069 159.166 165.601 159.265L143.145 160.755L61.8722 166.153L53.3428 166.719C51.5889 166.835 50.1621 165.495 50.1621 163.727V87.723C50.1613 86.875 50.4952 86.0611 51.091 85.4586C51.6868 84.8562 52.4962 84.5141 53.3428 84.5069L95.8836 84.3306L110.304 84.2697L121.79 84.2227L131.892 84.1801L165.599 84.0391C167.069 84.0347 168.253 85.3346 168.253 86.9453Z" fill="url(#paint4_linear_9211_89453)"/>
<g style="mix-blend-mode:soft-light" opacity="0.48">
<path d="M140.318 140.988C131.026 135.951 123.721 142.334 116.67 136.037C112.396 132.218 114.494 129.372 109.234 123.666C103.409 117.35 99.6157 119.472 93.7632 113.785C86.3578 106.594 90.0627 100.999 83.686 95.8356C75.9506 89.5723 67.6082 95.3699 60.2445 89.363C57.0683 86.7719 55.3254 83.0056 54.4155 79H47.2088C46.6007 79.0018 46.0182 79.2452 45.5893 79.677C45.1603 80.1087 44.92 80.6934 44.9212 81.3025V171.29C44.9161 171.585 44.973 171.879 45.0882 172.151C45.2035 172.423 45.3744 172.667 45.5901 172.869C45.8057 173.071 46.0612 173.225 46.3401 173.321C46.6189 173.418 46.9149 173.455 47.2088 173.429L170.043 164.645C170.646 164.601 171.181 164.247 171.524 163.732C162.532 163.403 157.006 160.366 153.476 157.226C146.569 151.084 147.767 145.027 140.318 140.988Z" fill="white"/>
</g>
<path d="M174.16 164.409L44.9219 173.442L101.272 183.015C101.916 183.125 102.572 183.154 103.223 183.102L237.218 172.403L176.215 164.471C175.534 164.382 174.846 164.361 174.16 164.409Z" fill="url(#paint5_linear_9211_89453)"/>
<path d="M163.781 197.699L205.098 186.629C205.972 186.396 206.553 185.697 206.388 185.072L183.227 97.6806C183.062 97.0584 182.211 96.7414 181.336 96.9756L140.021 108.045C139.145 108.278 138.565 108.977 138.729 109.602L161.895 196.993C162.055 197.616 162.906 197.933 163.781 197.699Z" fill="white"/>
<g opacity="0.5" clip-path="url(#clip1_9211_89453)">
<path d="M171.964 117.499L177.769 114.89L179.854 115.73C180.184 115.863 180.545 115.923 180.912 115.903L181.157 115.878C181.48 115.861 181.755 115.664 181.875 115.363C181.994 115.063 181.931 114.73 181.718 114.503L181.54 114.294C181.297 114.035 180.995 113.828 180.665 113.696L178.579 112.856L175.755 106.248C175.611 105.911 175.345 105.651 175.007 105.514L174.412 105.275C174.319 105.238 174.214 105.254 174.137 105.318C174.06 105.381 174.023 105.482 174.043 105.581L175.197 111.608C174.411 111.347 173.745 111.153 172.934 110.917L172.102 110.676L171.638 108.423C171.619 108.332 171.557 108.257 171.472 108.223L170.964 108.018C170.888 107.988 170.801 107.993 170.728 108.034C170.656 108.075 170.606 108.146 170.593 108.228L170.199 110.661L168.813 112.696C168.802 112.712 168.793 112.73 168.785 112.748C168.762 112.806 168.759 112.869 168.778 112.93C168.802 113.01 168.862 113.074 168.938 113.105L169.445 113.309C169.531 113.344 169.627 113.333 169.703 113.28L171.584 111.971L172.353 112.375C173.101 112.767 173.716 113.089 174.465 113.445L170.27 116.792C170.187 116.85 170.145 116.948 170.157 117.047C170.169 117.147 170.234 117.232 170.327 117.269L170.921 117.509C171.26 117.645 171.631 117.642 171.964 117.499Z" fill="#E44295"/>
</g>
<path d="M163.78 197.699L167.178 196.789L143.412 107.133L140.016 108.043C139.14 108.276 138.559 108.975 138.724 109.6L161.89 196.991C162.055 197.616 162.906 197.933 163.78 197.699Z" fill="#E56EAB"/>
<path opacity="0.3" d="M179.206 151.273L172.25 125.039L166.947 126.455L173.903 152.689L179.206 151.273Z" fill="#E56EAB"/>
<path opacity="0.3" d="M167.113 154.574L160.157 128.34L154.854 129.756L161.81 155.99L167.113 154.574Z" fill="#A4A5F1"/>
<path opacity="0.3" d="M193.911 159.231L184.01 121.89L178.707 123.306L188.608 160.647L193.911 159.231Z" fill="#E56EAB"/>
<path d="M182.309 142.341L177.358 123.67L176.177 123.985L181.127 142.656L182.309 142.341Z" fill="#E56EAB"/>
<path d="M170.626 145.469L165.675 126.798L164.493 127.113L169.444 145.784L170.626 145.469Z" fill="#A4A5F1"/>
<path d="M158.535 148.768L153.584 130.098L152.402 130.413L157.353 149.084L158.535 148.768Z" fill="#A4A5F1"/>
<g filter="url(#filter0_d_9211_89453)">
<path d="M172.005 192.634L202.299 162.437C202.941 161.799 203.096 160.903 202.641 160.443L138.989 96.2398C138.536 95.7827 137.64 95.9324 136.999 96.5714L106.705 126.768C106.063 127.406 105.908 128.302 106.362 128.761L170.018 192.962C170.468 193.423 171.364 193.273 172.005 192.634Z" fill="white"/>
<g opacity="0.5" clip-path="url(#clip2_9211_89453)">
<path d="M139.109 119.033L142.84 113.878L145.066 113.566C145.418 113.517 145.761 113.389 146.069 113.189L146.269 113.044C146.541 112.868 146.681 112.561 146.635 112.24C146.588 111.92 146.367 111.663 146.07 111.573L145.811 111.481C145.471 111.377 145.107 111.349 144.754 111.398L142.528 111.71L136.785 107.391C136.492 107.171 136.132 107.077 135.77 107.128L135.136 107.217C135.036 107.231 134.953 107.298 134.919 107.391C134.883 107.484 134.902 107.59 134.968 107.666L138.974 112.315C138.162 112.48 137.488 112.644 136.667 112.844L135.827 113.05L134.301 111.328C134.239 111.259 134.148 111.225 134.057 111.238L133.515 111.314C133.433 111.325 133.361 111.374 133.318 111.445C133.276 111.517 133.268 111.603 133.297 111.681L134.169 113.987L133.983 116.441C133.981 116.461 133.982 116.481 133.985 116.5C133.993 116.562 134.023 116.618 134.069 116.662C134.13 116.718 134.213 116.745 134.295 116.733L134.837 116.657C134.928 116.645 135.006 116.587 135.045 116.504L136.023 114.431L136.891 114.398C137.735 114.365 138.428 114.337 139.255 114.273L137.288 119.265C137.245 119.357 137.258 119.463 137.317 119.542C137.377 119.623 137.476 119.665 137.575 119.651L138.21 119.562C138.572 119.511 138.891 119.323 139.109 119.033Z" fill="#5D5FEF"/>
</g>
<path d="M172.005 192.634L174.497 190.151L109.191 124.286L106.701 126.768C106.058 127.407 105.903 128.303 106.358 128.762L170.013 192.963C170.468 193.423 171.364 193.273 172.005 192.634Z" fill="#A4A5F1"/>
<path opacity="0.3" d="M162.227 144.7L143.116 125.428L139.225 129.3L158.336 148.572L162.227 144.7Z" fill="#A4A5F1"/>
<path opacity="0.3" d="M153.39 153.59L134.279 134.318L130.388 138.19L149.499 157.462L153.39 153.59Z" fill="#A4A5F1"/>
<path opacity="0.3" d="M178.942 144.265L151.74 116.834L147.849 120.705L175.052 148.137L178.942 144.265Z" fill="#A4A5F1"/>
<path d="M160.462 135.409L146.861 121.693L145.994 122.556L159.595 136.271L160.462 135.409Z" fill="#A4A5F1"/>
<path d="M151.896 143.946L138.295 130.23L137.428 131.093L151.029 144.808L151.896 143.946Z" fill="#A4A5F1"/>
<path d="M143.059 152.835L129.458 139.12L128.591 139.983L142.192 153.698L143.059 152.835Z" fill="#A4A5F1"/>
</g>
</g>
<defs>
<filter id="filter0_d_9211_89453" x="100.097" y="93.9749" width="108.805" height="109.255" filterUnits="userSpaceOnUse" color-interpolation-filters="sRGB">
<feFlood flood-opacity="0" result="BackgroundImageFix"/>
<feColorMatrix in="SourceAlpha" type="matrix" values="0 0 0 0 0 0 0 0 0 0 0 0 0 0 0 0 0 0 127 0" result="hardAlpha"/>
<feOffset dy="4"/>
<feGaussianBlur stdDeviation="3"/>
<feComposite in2="hardAlpha" operator="out"/>
<feColorMatrix type="matrix" values="0 0 0 0 0.552941 0 0 0 0 0.501961 0 0 0 0 0.905882 0 0 0 0.34 0"/>
<feBlend mode="normal" in2="BackgroundImageFix" result="effect1_dropShadow_9211_89453"/>
<feBlend mode="normal" in="SourceGraphic" in2="effect1_dropShadow_9211_89453" result="shape"/>
</filter>
<linearGradient id="paint0_linear_9211_89453" x1="266" y1="152.538" x2="-0.130223" y2="27.7656" gradientUnits="userSpaceOnUse">
<stop stop-color="#F1F2F6"/>
<stop offset="1" stop-color="#E5E6EC"/>
</linearGradient>
<linearGradient id="paint1_linear_9211_89453" x1="126.17" y1="179.718" x2="112.663" y2="185.382" gradientUnits="userSpaceOnUse">
<stop stop-color="#40447E"/>
<stop offset="1" stop-color="#3C3B6B"/>
</linearGradient>
<linearGradient id="paint2_linear_9211_89453" x1="104.28" y1="123.037" x2="90.4808" y2="128.823" gradientUnits="userSpaceOnUse">
<stop stop-color="#40447E"/>
<stop offset="1" stop-color="#3C3B6B"/>
</linearGradient>
<linearGradient id="paint3_linear_9211_89453" x1="44.9219" y1="126.194" x2="172.57" y2="126.194" gradientUnits="userSpaceOnUse">
<stop stop-color="#40447E"/>
<stop offset="1" stop-color="#3C3B6B"/>
</linearGradient>
<linearGradient id="paint4_linear_9211_89453" x1="125.607" y1="95.1012" x2="27.2308" y2="255.656" gradientUnits="userSpaceOnUse">
<stop stop-color="#E2E2FA"/>
<stop offset="1" stop-color="#A4A5F0"/>
</linearGradient>
<linearGradient id="paint5_linear_9211_89453" x1="44.9219" y1="173.755" x2="237.218" y2="173.755" gradientUnits="userSpaceOnUse">
<stop stop-color="#40447E"/>
<stop offset="1" stop-color="#3C3B6B"/>
</linearGradient>
<clipPath id="clip0_9211_89453">
<rect width="266" height="223" fill="white"/>
</clipPath>
<clipPath id="clip1_9211_89453">
<rect width="12.8988" height="12.8988" fill="white" transform="translate(179.35 104.154) rotate(74.6401)"/>
</clipPath>
<clipPath id="clip2_9211_89453">
<rect width="12.8988" height="12.8988" fill="white" transform="translate(138.857 103.783) rotate(44.7309)"/>
</clipPath>
</defs>
</svg>
