<svg width="834" height="255" viewBox="0 0 834 255" fill="none" xmlns="http://www.w3.org/2000/svg">
<g clip-path="url(#clip0_9208_62509)">
<rect x="-53.5088" width="941.018" height="255" fill="#D5D6FF"/>
<rect width="834" height="255" fill="#D9D9D9"/>
<mask id="mask0_9208_62509" style="mask-type:luminance" maskUnits="userSpaceOnUse" x="-743" y="-194" width="2198" height="594">
<path d="M1454.32 -193.702H-742.118V399.664H1454.32V-193.702Z" fill="white"/>
</mask>
<g mask="url(#mask0_9208_62509)">
<path d="M-741.372 400.411L1455.06 400.411V-196.801L-741.372 -196.801V400.411Z" fill="url(#paint0_linear_9208_62509)"/>
<path fill-rule="evenodd" clip-rule="evenodd" d="M512.396 35.3168C512.391 35.686 512.24 36.0381 511.977 36.2971C511.714 36.5562 511.36 36.7013 510.991 36.7013C510.651 36.6585 510.338 36.4932 510.112 36.2362C509.885 35.9793 509.76 35.6484 509.76 35.3058C509.76 34.9632 509.885 34.6323 510.112 34.3754C510.338 34.1184 510.651 33.953 510.991 33.9103C511.363 33.9103 511.721 34.0585 511.985 34.3222C512.248 34.586 512.396 34.9437 512.396 35.3168Z" fill="#09B9EA"/>
<path fill-rule="evenodd" clip-rule="evenodd" d="M396.644 108.65C396.643 108.929 396.56 109.201 396.405 109.433C396.249 109.665 396.029 109.845 395.771 109.951C395.512 110.057 395.229 110.083 394.955 110.027C394.682 109.971 394.432 109.835 394.236 109.636C394.04 109.437 393.908 109.185 393.856 108.91C393.805 108.636 393.836 108.353 393.945 108.096C394.055 107.839 394.239 107.621 394.473 107.469C394.707 107.318 394.981 107.239 395.26 107.243C395.629 107.249 395.981 107.4 396.24 107.663C396.498 107.926 396.644 108.28 396.644 108.65Z" fill="#09B9EA"/>
<path fill-rule="evenodd" clip-rule="evenodd" d="M308.677 51.4001C308.681 51.6801 308.602 51.955 308.449 52.1896C308.296 52.4243 308.077 52.6079 307.819 52.7171C307.562 52.8263 307.277 52.856 307.002 52.8024C306.728 52.7488 306.475 52.6144 306.277 52.4164C306.08 52.2184 305.945 51.9658 305.892 51.6909C305.838 51.4161 305.868 51.1315 305.977 50.8736C306.086 50.6157 306.27 50.3963 306.504 50.2434C306.739 50.0905 307.013 50.0112 307.293 50.0155C307.66 50.0155 308.012 50.1614 308.272 50.4211C308.531 50.6807 308.677 51.0329 308.677 51.4001Z" fill="#0970C0"/>
<path fill-rule="evenodd" clip-rule="evenodd" d="M242.608 19.4702C242.608 19.8395 242.463 20.1939 242.204 20.4571C241.945 20.7202 241.593 20.8709 241.224 20.8767C240.851 20.8767 240.494 20.7285 240.23 20.4648C239.966 20.201 239.818 19.8432 239.818 19.4702C239.818 19.0972 239.966 18.7394 240.23 18.4757C240.494 18.2119 240.851 18.0637 241.224 18.0637C241.593 18.0695 241.945 18.2202 242.204 18.4834C242.463 18.7465 242.608 19.101 242.608 19.4702Z" fill="#0970C0"/>
<path fill-rule="evenodd" clip-rule="evenodd" d="M99.5985 166.427C99.5985 166.801 99.4505 167.158 99.1868 167.422C98.9232 167.686 98.5656 167.834 98.1928 167.834C97.82 167.834 97.4624 167.686 97.1988 167.422C96.9352 167.158 96.7871 166.801 96.7871 166.427C96.7871 166.054 96.9352 165.697 97.1988 165.433C97.4624 165.169 97.82 165.021 98.1928 165.021C98.5656 165.021 98.9232 165.169 99.1868 165.433C99.4505 165.697 99.5985 166.054 99.5985 166.427Z" fill="#095CC0"/>
<path fill-rule="evenodd" clip-rule="evenodd" d="M330.029 50.0164C330.023 50.3856 329.873 50.7377 329.61 50.9967C329.347 51.2558 328.993 51.4009 328.624 51.4009C328.257 51.4009 327.905 51.255 327.645 50.9954C327.386 50.7357 327.24 50.3836 327.24 50.0164C327.24 49.6471 327.385 49.2926 327.644 49.0295C327.903 48.7664 328.255 48.6156 328.624 48.6099C328.996 48.6099 329.354 48.758 329.617 49.0218C329.881 49.2856 330.029 49.6433 330.029 50.0164Z" fill="#095CC0"/>
<path fill-rule="evenodd" clip-rule="evenodd" d="M379.598 7.60095C379.598 7.9702 379.453 8.32466 379.194 8.58781C378.935 8.85096 378.583 9.00168 378.214 9.00745C377.842 9.00745 377.484 8.85927 377.22 8.5955C376.957 8.33174 376.809 7.97398 376.809 7.60095C376.809 7.22793 376.957 6.87019 377.22 6.60642C377.484 6.34265 377.842 6.19446 378.214 6.19446C378.583 6.20023 378.935 6.35095 379.194 6.6141C379.453 6.87724 379.598 7.2317 379.598 7.60095Z" fill="#0970C0"/>
<path fill-rule="evenodd" clip-rule="evenodd" d="M96.5654 13.7332C96.5654 14.0113 96.4829 14.2833 96.3285 14.5146C96.174 14.7459 95.9544 14.9261 95.6976 15.0326C95.4407 15.139 95.1581 15.1669 94.8854 15.1126C94.6127 15.0584 94.3622 14.9244 94.1656 14.7277C93.969 14.531 93.8352 14.2804 93.7809 14.0075C93.7267 13.7347 93.7545 13.4519 93.8609 13.1949C93.9673 12.9379 94.1475 12.7182 94.3786 12.5637C94.6098 12.4091 94.8816 12.3267 95.1597 12.3267C95.5325 12.3267 95.89 12.4748 96.1537 12.7386C96.4173 13.0024 96.5654 13.3601 96.5654 13.7332Z" fill="#0970C0"/>
<path fill-rule="evenodd" clip-rule="evenodd" d="M107.175 209.434C107.175 209.713 107.093 209.984 106.938 210.216C106.784 210.447 106.564 210.627 106.307 210.734C106.051 210.84 105.768 210.868 105.495 210.814C105.223 210.76 104.972 210.626 104.776 210.429C104.579 210.232 104.445 209.982 104.391 209.709C104.337 209.436 104.364 209.153 104.471 208.896C104.577 208.639 104.757 208.419 104.989 208.265C105.22 208.11 105.491 208.028 105.77 208.028C106.142 208.028 106.5 208.176 106.763 208.44C107.027 208.704 107.175 209.061 107.175 209.434Z" fill="#0970C0"/>
<path fill-rule="evenodd" clip-rule="evenodd" d="M702.387 199.018C702.387 199.391 702.238 199.749 701.975 200.013C701.711 200.277 701.354 200.425 700.981 200.425C700.608 200.425 700.251 200.277 699.987 200.013C699.723 199.749 699.575 199.391 699.575 199.018C699.575 198.645 699.723 198.288 699.987 198.024C700.251 197.76 700.608 197.612 700.981 197.612C701.354 197.612 701.711 197.76 701.975 198.024C702.238 198.288 702.387 198.645 702.387 199.018Z" fill="#0970C0"/>
<path fill-rule="evenodd" clip-rule="evenodd" d="M587.095 137.309C587.095 137.676 586.949 138.028 586.69 138.288C586.43 138.548 586.078 138.693 585.711 138.693C585.431 138.698 585.157 138.618 584.922 138.466C584.688 138.313 584.504 138.093 584.395 137.835C584.286 137.578 584.256 137.293 584.31 137.018C584.363 136.743 584.497 136.491 584.695 136.293C584.893 136.095 585.146 135.96 585.42 135.907C585.695 135.853 585.98 135.883 586.237 135.992C586.495 136.101 586.714 136.285 586.867 136.519C587.02 136.754 587.099 137.029 587.095 137.309Z" fill="#0970C0"/>
<path fill-rule="evenodd" clip-rule="evenodd" d="M488.608 238.18C488.608 238.459 488.525 238.732 488.37 238.964C488.214 239.196 487.994 239.376 487.735 239.482C487.477 239.587 487.193 239.614 486.92 239.558C486.647 239.502 486.396 239.366 486.201 239.167C486.005 238.968 485.873 238.715 485.821 238.441C485.77 238.166 485.801 237.883 485.91 237.626C486.02 237.37 486.204 237.152 486.438 237C486.672 236.848 486.946 236.769 487.225 236.774C487.408 236.774 487.59 236.81 487.759 236.881C487.929 236.952 488.082 237.056 488.211 237.187C488.34 237.318 488.441 237.473 488.509 237.644C488.578 237.814 488.611 237.996 488.608 238.18Z" fill="#0970C0"/>
<path fill-rule="evenodd" clip-rule="evenodd" d="M268.042 183.634C268.042 183.913 267.959 184.186 267.804 184.418C267.648 184.65 267.428 184.83 267.169 184.936C266.911 185.041 266.628 185.068 266.354 185.012C266.081 184.956 265.831 184.82 265.635 184.621C265.439 184.422 265.307 184.169 265.255 183.895C265.204 183.621 265.235 183.337 265.344 183.081C265.454 182.824 265.638 182.606 265.872 182.454C266.106 182.302 266.38 182.223 266.659 182.228C267.028 182.233 267.38 182.384 267.638 182.647C267.897 182.91 268.042 183.265 268.042 183.634Z" fill="#92FFFF"/>
<path fill-rule="evenodd" clip-rule="evenodd" d="M790.992 48.0385C790.992 48.4115 790.844 48.7692 790.58 49.033C790.317 49.2968 789.959 49.4449 789.586 49.4449C789.214 49.4449 788.856 49.2968 788.592 49.033C788.329 48.7692 788.181 48.4115 788.181 48.0385C788.181 47.6654 788.329 47.3077 788.592 47.0439C788.856 46.7801 789.214 46.632 789.586 46.632C789.959 46.632 790.317 46.7801 790.58 47.0439C790.844 47.3077 790.992 47.6654 790.992 48.0385Z" fill="#09FFFF"/>
<path fill-rule="evenodd" clip-rule="evenodd" d="M191.368 188.229C191.362 188.598 191.211 188.951 190.948 189.21C190.685 189.469 190.331 189.614 189.962 189.614C189.595 189.614 189.243 189.468 188.983 189.208C188.724 188.949 188.578 188.596 188.578 188.229C188.578 187.86 188.723 187.506 188.982 187.242C189.241 186.979 189.593 186.829 189.962 186.823C190.335 186.823 190.692 186.971 190.956 187.235C191.219 187.498 191.368 187.856 191.368 188.229Z" fill="#09FFFF"/>
<path fill-rule="evenodd" clip-rule="evenodd" d="M231.979 208.027C231.982 208.211 231.949 208.393 231.881 208.564C231.812 208.734 231.711 208.89 231.582 209.021C231.453 209.151 231.3 209.255 231.13 209.326C230.961 209.397 230.779 209.434 230.596 209.434C230.398 209.459 230.197 209.441 230.006 209.382C229.816 209.324 229.64 209.225 229.49 209.093C229.341 208.961 229.221 208.799 229.139 208.617C229.057 208.435 229.015 208.238 229.015 208.038C229.015 207.839 229.057 207.642 229.139 207.46C229.221 207.278 229.341 207.116 229.49 206.984C229.64 206.852 229.816 206.753 230.006 206.694C230.197 206.635 230.398 206.618 230.596 206.643C230.777 206.643 230.957 206.679 231.125 206.748C231.293 206.818 231.446 206.92 231.574 207.048C231.703 207.177 231.805 207.33 231.874 207.498C231.944 207.666 231.979 207.846 231.979 208.027Z" fill="#09FFFF"/>
<path d="M693.14 182.756C693.916 182.756 694.545 182.127 694.545 181.35C694.545 180.573 693.916 179.943 693.14 179.943C692.363 179.943 691.734 180.573 691.734 181.35C691.734 182.127 692.363 182.756 693.14 182.756Z" fill="#09FFFF"/>
<path fill-rule="evenodd" clip-rule="evenodd" d="M676.03 43.9964C676.035 44.2764 675.956 44.5513 675.803 44.786C675.65 45.0206 675.431 45.2043 675.173 45.3134C674.915 45.4226 674.631 45.4523 674.356 45.3987C674.081 45.3451 673.829 45.2108 673.631 45.0127C673.433 44.8147 673.299 44.5621 673.245 44.2872C673.192 44.0124 673.221 43.7278 673.33 43.4699C673.44 43.212 673.623 42.9926 673.858 42.8397C674.092 42.6869 674.367 42.6075 674.647 42.6119C675.014 42.6119 675.366 42.7577 675.625 43.0174C675.885 43.277 676.03 43.6292 676.03 43.9964Z" fill="#0970C0"/>
<path d="M817.548 92.8948C818.324 92.8948 818.954 92.2651 818.954 91.4883C818.954 90.7115 818.324 90.0818 817.548 90.0818C816.771 90.0818 816.142 90.7115 816.142 91.4883C816.142 92.2651 816.771 92.8948 817.548 92.8948Z" fill="#0970C0"/>
<path fill-rule="evenodd" clip-rule="evenodd" d="M1150.04 254.378L297.432 257.806C297.432 257.806 297.739 257.147 298.332 256.048C301.517 250.005 313.048 230.248 327.501 229.083C336.287 228.38 346.588 235.215 354.605 242.027C359.309 246.044 363.714 250.4 367.783 255.059L368.816 253.565C370.858 250.686 375.405 244.642 378.019 244.115C378.754 243.939 379.523 243.955 380.25 244.163C380.977 244.371 381.639 244.763 382.17 245.302C382.426 245.566 382.647 245.861 382.829 246.181C382.829 246.181 383.817 241.412 385.992 234.292C389.462 223.084 395.876 206.074 406.133 192.668C414.106 182.185 424.429 173.9 437.454 172.34C457.398 169.988 473.827 182.009 485.337 194.756C491.821 202.019 497.458 209.996 502.139 218.534C503.172 220.446 503.721 221.567 503.721 221.567C508.452 220.138 513.363 219.398 518.305 219.369C522.731 219.265 527.113 220.278 531.044 222.314C541.587 228.248 554.7 251.389 555.601 252.972C555.601 252.972 561.07 249.565 564.386 249.565C567.703 249.565 572.601 254.334 572.601 254.334C581.047 246.927 589.937 240.043 599.222 233.72C611.104 225.743 624.656 218.337 634.76 218.095C654.418 217.501 676.668 241.324 682.049 247.455C682.862 248.356 683.279 248.884 683.279 248.884C688.899 247.579 694.601 246.661 700.345 246.137C705.134 246.137 737.246 254.927 737.246 254.927C738.008 250.292 739.072 245.711 740.43 241.214C746.778 219.435 764.591 178.164 809.662 166.758C853.261 155.77 888.448 185.042 905.58 203.524C909.658 207.869 913.445 212.48 916.914 217.326C918.526 215.152 920.548 213.315 922.866 211.919C928.379 208.425 938.088 205.327 953.133 209.722C959.305 211.59 966.114 217.765 969.716 221.391C971.298 222.996 972.264 224.072 972.264 224.072C972.5 216.094 973.68 208.171 975.778 200.47C982.17 176.669 1000.16 144.32 1050.83 150.957C1108.9 158.517 1135.24 211.326 1145.04 238.313C1147.02 243.566 1148.69 248.93 1150.04 254.378Z" fill="#110846"/>
<path fill-rule="evenodd" clip-rule="evenodd" d="M421.573 254.817C413.6 256.333 398.049 257.322 387.353 245.587C388.627 243.685 390.276 242.063 392.199 240.82C394.121 239.577 396.276 238.739 398.532 238.357C410.832 236.906 419.377 250.773 421.573 254.817Z" fill="url(#paint1_linear_9208_62509)"/>
<path fill-rule="evenodd" clip-rule="evenodd" d="M418.983 248.796C418.983 248.796 506.247 214.908 526.213 219.677C546.178 224.446 555.667 253.016 555.667 253.016L418.983 248.796Z" fill="url(#paint2_linear_9208_62509)"/>
<path fill-rule="evenodd" clip-rule="evenodd" d="M682.2 247.497C671.702 249.167 629.816 254.287 599.373 233.761C611.256 225.784 624.808 218.378 634.911 218.136C654.569 217.543 676.775 241.431 682.2 247.497Z" fill="url(#paint3_linear_9208_62509)"/>
<path fill-rule="evenodd" clip-rule="evenodd" d="M905.734 203.678C869.712 218.622 790.553 245.938 740.584 241.345C746.932 219.567 764.745 178.295 809.816 166.889C853.393 155.857 888.602 185.173 905.734 203.678Z" fill="url(#paint4_linear_9208_62509)"/>
<path fill-rule="evenodd" clip-rule="evenodd" d="M810.123 246.18C810.123 246.18 845.266 225.764 878.696 217.611C912.125 209.457 982.455 253.674 982.455 253.674L810.123 246.18Z" fill="url(#paint5_linear_9208_62509)"/>
<path fill-rule="evenodd" clip-rule="evenodd" d="M354.605 242.026C337.199 251.032 317.926 255.834 298.332 256.047C301.517 250.003 313.048 230.246 327.501 229.082C336.33 228.378 346.588 235.213 354.605 242.026Z" fill="url(#paint6_linear_9208_62509)"/>
<path fill-rule="evenodd" clip-rule="evenodd" d="M382.19 245.302C381.773 246.972 378.983 256.4 368.77 254.202V253.565C370.813 250.686 375.359 244.642 377.973 244.115C378.718 243.926 379.5 243.937 380.24 244.145C380.98 244.353 381.653 244.752 382.19 245.302Z" fill="url(#paint7_linear_9208_62509)"/>
<path fill-rule="evenodd" clip-rule="evenodd" d="M485.357 194.755C467.149 209.369 435.63 227.368 386.013 234.312C389.483 223.104 395.897 206.095 406.154 192.689C414.127 182.206 424.45 173.921 437.475 172.361C457.419 169.987 473.848 182.096 485.357 194.755Z" fill="url(#paint8_linear_9208_62509)"/>
<path fill-rule="evenodd" clip-rule="evenodd" d="M233.207 259.937L-390.58 258.882L-347.464 252.289C-347.464 252.289 -346.937 250.421 -345.905 247.454C-341.973 236.18 -330.662 208.776 -312.958 206.93C-295.255 205.083 -284.075 218.885 -280.012 224.84C-279.199 226.049 -278.694 226.906 -278.474 227.302V227.521C-279.579 214.297 -279.38 200.996 -277.881 187.81C-273.357 146.055 -254.445 84.6962 -183.435 69.5764C-88.7024 49.402 -32.7153 169.965 -19.0096 203.787C-16.8131 209.237 -15.6929 212.446 -15.6929 212.446C-15.4962 204.662 -14.5697 196.914 -12.9255 189.304C-8.53262 168.932 2.44955 142.033 31.0032 139.22C73.8996 134.978 119.08 227.609 125.955 242.334C126.57 243.608 126.878 244.312 126.878 244.312L233.207 259.937Z" fill="#110846"/>
<path fill-rule="evenodd" clip-rule="evenodd" d="M126.22 242.356C97.9081 245.784 25.7332 247.96 -12.7263 189.327C-8.33345 168.954 2.64872 142.055 31.2024 139.242C74.1646 135.001 119.345 227.632 126.22 242.356Z" fill="url(#paint9_linear_9208_62509)"/>
<path fill-rule="evenodd" clip-rule="evenodd" d="M-26.8077 248.401C-26.8077 248.401 -29.8827 214.799 -4.84335 214.843C20.196 214.887 46.3994 252.862 46.3994 252.862L-26.8077 248.401Z" fill="url(#paint10_linear_9208_62509)"/>
<path fill-rule="evenodd" clip-rule="evenodd" d="M76.1836 254.047C76.1836 254.047 113.215 244.905 139.88 245.477C166.545 246.048 210.166 256.882 210.166 256.882L76.1836 254.047Z" fill="url(#paint11_linear_9208_62509)"/>
<path fill-rule="evenodd" clip-rule="evenodd" d="M506.116 548.291L498.67 547.741L490.39 547.302L459.42 545.61L320.737 536.028L321.638 417.465L321.814 263.19L372.968 262.223L373.034 285.496L411.121 286.968L411.889 164.471L421.663 161.241L421.729 157.746L433.963 152.824L442.442 154.824L442.42 158.296L443.584 158.494L455.774 160.406L457.421 312.131L457.883 312.153L465.944 312.373L463.989 207.787V207.677L463.791 197.238L498.209 196.447L499.11 196.425L505.106 201.831L506.116 548.291Z" fill="url(#paint12_linear_9208_62509)"/>
<path fill-rule="evenodd" clip-rule="evenodd" d="M506.092 547.432L498.646 546.883L498.207 195.611L499.086 195.589L505.104 200.973L506.092 547.432Z" fill="url(#paint13_linear_9208_62509)"/>
<path fill-rule="evenodd" clip-rule="evenodd" d="M442.396 157.438L443.56 157.636L433.874 157.218L433.939 151.988L442.44 153.966L442.396 157.438Z" fill="url(#paint14_linear_9208_62509)"/>
<path fill-rule="evenodd" clip-rule="evenodd" d="M458.123 493.833L447.075 500.514L443.561 157.636L455.751 159.548L457.421 311.296L457.926 311.318L458.123 493.833Z" fill="url(#paint15_linear_9208_62509)"/>
<path fill-rule="evenodd" clip-rule="evenodd" d="M637.241 409.003L629.773 408.761L621.515 408.585L590.523 407.86L451.862 403.772L452.741 353.27L452.917 287.539L504.071 287.099L504.159 297.032L542.245 297.648L543.014 245.454L552.788 244.091L552.854 242.597L565.088 240.509L573.567 241.344L573.523 242.838L574.709 242.926L586.899 243.739L588.546 308.394H589.008L597.047 308.482L595.114 263.914V263.87L594.916 259.409L629.334 259.079H630.235L636.231 261.386L637.241 409.003Z" fill="url(#paint16_linear_9208_62509)"/>
<path fill-rule="evenodd" clip-rule="evenodd" d="M573.503 242.465L574.689 242.553L565.003 242.377L565.069 240.135L573.547 240.992L573.503 242.465Z" fill="url(#paint17_linear_9208_62509)"/>
<path fill-rule="evenodd" clip-rule="evenodd" d="M589.248 385.796L578.2 388.653L574.686 242.553L586.854 243.367L588.523 308.021L589.05 308.043L589.248 385.796Z" fill="url(#paint18_linear_9208_62509)"/>
<path d="M473.323 200.402H467.722V210.093H473.323V200.402Z" fill="url(#paint19_linear_9208_62509)"/>
<path d="M482.107 212.776H476.506V222.468H482.107V212.776Z" fill="url(#paint20_linear_9208_62509)"/>
<path d="M482.108 226.291H476.507V235.982H482.108V226.291Z" fill="url(#paint21_linear_9208_62509)"/>
<path d="M453.642 164.274H448.042V173.966H453.642V164.274Z" fill="url(#paint22_linear_9208_62509)"/>
<path d="M447.185 177.7H441.584V187.391H447.185V177.7Z" fill="url(#paint23_linear_9208_62509)"/>
<path d="M453.642 212.008H448.042V221.699H453.642V212.008Z" fill="url(#paint24_linear_9208_62509)"/>
<path d="M420.123 212.776H414.522V222.468H420.123V212.776Z" fill="url(#paint25_linear_9208_62509)"/>
<path d="M426.384 200.402H420.783V210.093H426.384V200.402Z" fill="url(#paint26_linear_9208_62509)"/>
<path d="M476.11 253.87H470.509V263.561H476.11V253.87Z" fill="url(#paint27_linear_9208_62509)"/>
<path d="M484.896 253.87H479.295V263.561H484.896V253.87Z" fill="url(#paint28_linear_9208_62509)"/>
<path d="M552.745 252.375H547.145V262.067H552.745V252.375Z" fill="url(#paint29_linear_9208_62509)"/>
<path style="mix-blend-mode:screen" opacity="0.79" d="M482.108 258.333C499.794 258.333 514.132 243.988 514.132 226.292C514.132 208.596 499.794 194.25 482.108 194.25C464.422 194.25 450.084 208.596 450.084 226.292C450.084 243.988 464.422 258.333 482.108 258.333Z" fill="url(#paint30_radial_9208_62509)"/>
<path style="mix-blend-mode:screen" opacity="0.79" d="M552.745 298.814C570.431 298.814 584.769 284.469 584.769 266.773C584.769 249.077 570.431 234.731 552.745 234.731C535.058 234.731 520.721 249.077 520.721 266.773C520.721 284.469 535.058 298.814 552.745 298.814Z" fill="url(#paint31_radial_9208_62509)"/>
<path fill-rule="evenodd" clip-rule="evenodd" d="M831.078 571.96L823.632 571.41L815.352 570.971L784.382 569.279L645.721 559.697L646.6 441.134L646.775 286.881L697.93 285.892L697.996 309.165L736.082 310.637L736.873 188.14L746.647 184.91L746.691 181.415L758.925 176.515L767.404 178.493L767.382 181.965L768.568 182.163L780.736 184.075L782.383 335.822H782.845L790.905 336.064L788.973 231.456V231.346L788.753 220.907L823.193 220.116H824.072L830.068 225.5L831.078 571.96Z" fill="url(#paint32_linear_9208_62509)"/>
<path fill-rule="evenodd" clip-rule="evenodd" d="M831.056 571.102L823.61 570.552L823.17 219.28L824.049 219.258L830.067 224.664L831.056 571.102Z" fill="url(#paint33_linear_9208_62509)"/>
<path fill-rule="evenodd" clip-rule="evenodd" d="M767.36 181.129L768.524 181.305L758.837 180.888L758.903 175.657L767.403 177.635L767.36 181.129Z" fill="url(#paint34_linear_9208_62509)"/>
<path fill-rule="evenodd" clip-rule="evenodd" d="M783.084 517.502L772.058 524.183L768.521 181.306L780.712 183.218L782.381 334.966L782.908 334.988L783.084 517.502Z" fill="url(#paint35_linear_9208_62509)"/>
<path d="M772.19 192.272H766.589V201.964H772.19V192.272Z" fill="url(#paint36_linear_9208_62509)"/>
<path d="M778.604 204.36H773.003V214.051H778.604V204.36Z" fill="url(#paint37_linear_9208_62509)"/>
<path d="M778.604 216.554H773.003V226.246H778.604V216.554Z" fill="url(#paint38_linear_9208_62509)"/>
<path d="M769.38 232.071H763.779V241.762H769.38V232.071Z" fill="url(#paint39_linear_9208_62509)"/>
<path style="mix-blend-mode:screen" opacity="0.79" d="M775.815 248.598C793.501 248.598 807.839 234.252 807.839 216.556C807.839 198.86 793.501 184.514 775.815 184.514C758.128 184.514 743.791 198.86 743.791 216.556C743.791 234.252 758.128 248.598 775.815 248.598Z" fill="url(#paint40_radial_9208_62509)"/>
<path fill-rule="evenodd" clip-rule="evenodd" d="M72.6045 481.241L80.0724 480.692L88.331 480.252L119.323 478.56L257.984 468.978L257.105 350.415L256.929 196.162L205.774 195.173L205.686 218.446L167.6 219.919L166.304 142.166L157.123 136.935L157.057 133.463L144.274 129.683L135.774 131.661L135.796 135.99L134.632 136.188L122.442 138.1L121.3 245.104L120.838 245.126L112.799 245.345L114.337 118.475V118.387L114.534 107.926L80.1164 107.157L79.2158 107.135L73.2196 112.519L72.6045 481.241Z" fill="url(#paint41_linear_9208_62509)"/>
<path fill-rule="evenodd" clip-rule="evenodd" d="M72.5625 481.241L80.0084 480.692L80.0523 107.157L79.1738 107.135L73.1774 112.519L72.5625 481.241Z" fill="url(#paint42_linear_9208_62509)"/>
<path fill-rule="evenodd" clip-rule="evenodd" d="M135.817 135.134L135.795 135.991L144.34 134.914L144.274 129.684L135.773 131.661L135.817 135.134Z" fill="url(#paint43_linear_9208_62509)"/>
<path fill-rule="evenodd" clip-rule="evenodd" d="M120.708 427.728L131.734 434.409L134.743 136.276L122.553 138.188L121.41 245.191L120.883 245.213L120.708 427.728Z" fill="url(#paint44_linear_9208_62509)"/>
<path fill-rule="evenodd" clip-rule="evenodd" d="M205.686 218.446L210.167 473.681L198.284 472.89L195.89 219.15L205.686 218.446Z" fill="url(#paint45_linear_9208_62509)"/>
<path fill-rule="evenodd" clip-rule="evenodd" d="M-114.421 342.634L-106.954 342.392L-98.695 342.195L-67.7032 341.491L126.857 336.744L125.978 286.22L125.803 220.489L74.6477 220.071L74.5817 229.983L36.4737 230.62L36.2101 99.5081L26.4359 98.1455L26.37 96.6511L-41.7633 95.2227L-50.2416 96.0797L-50.2197 97.5522L-51.3837 97.6401L-63.574 98.4532L-65.7265 242.004L-66.1876 242.026L-74.2267 242.114L-72.2938 197.545V197.501L-72.0961 193.04L-106.514 192.71H-107.415L-113.411 194.996L-114.421 342.634Z" fill="url(#paint46_linear_9208_62509)"/>
<path fill-rule="evenodd" clip-rule="evenodd" d="M74.5823 229.983L79.0411 338.745L67.1583 338.393L64.7861 230.291L74.5823 229.983Z" fill="url(#paint47_linear_9208_62509)"/>
<path d="M97.3792 120.144H93.1841V127.396H97.3792V120.144Z" fill="url(#paint48_linear_9208_62509)"/>
<path d="M106.166 120.803H101.971V128.055H106.166V120.803Z" fill="url(#paint49_linear_9208_62509)"/>
<path d="M106.166 135.287H101.971V142.539H106.166V135.287Z" fill="url(#paint50_linear_9208_62509)"/>
<path d="M97.8198 147.044H92.7681V155.769H97.8198V147.044Z" fill="url(#paint51_linear_9208_62509)"/>
<path d="M130.677 144.098H125.845V152.427H130.677V144.098Z" fill="url(#paint52_linear_9208_62509)"/>
<path d="M138.191 154.691H133.358V163.02H138.191V154.691Z" fill="url(#paint53_linear_9208_62509)"/>
<path d="M138.191 167.217H133.359V175.546H138.191V167.217Z" fill="url(#paint54_linear_9208_62509)"/>
<path style="mix-blend-mode:screen" d="M1454.32 232.49H-742.119V417.664H1454.32V232.49Z" fill="url(#paint55_linear_9208_62509)"/>
<path fill-rule="evenodd" clip-rule="evenodd" d="M333.408 295.912C291.983 297.26 252.352 298.307 214.515 299.054C-103.836 305.428 -298.946 292.242 -403.32 280.836C-396.775 280.836 -390.412 280.748 -384.233 280.572C-312.585 278.946 -267.822 271.298 -245.858 274.397C-226.946 277.056 -227.627 281.341 -232.372 284.77C-235.906 286.995 -239.707 288.767 -243.683 290.044C-243.683 290.044 -217.48 287.429 -183.765 284.55C-129.337 279.913 -55.3391 274.573 -40.3813 278.462C-32.1218 280.48 -24.299 283.988 -17.2968 288.813C-13.9242 291.049 -10.9846 293.879 -8.62085 297.164C-8.62085 297.164 -3.94247 253.014 28.9601 245.454C32.837 244.593 36.809 244.239 40.7769 244.399C74.58 245.629 97.2033 276.221 105.682 289.978C108.185 293.978 109.438 296.571 109.438 296.571C109.479 292.983 110.375 289.457 112.051 286.286C113.2 284.189 115.002 282.525 117.182 281.545C119.362 280.565 121.802 280.324 124.132 280.858C128.472 281.555 132.589 283.257 136.154 285.829C139.72 288.4 142.636 291.77 144.668 295.67C144.76 295.825 144.841 295.987 144.91 296.153L153.871 295.45C171.86 294.088 211.308 291.319 218.93 292.681C226.551 294.044 303.163 295.406 333.408 295.912Z" fill="#110846"/>
<path fill-rule="evenodd" clip-rule="evenodd" d="M105.702 289.978C100.036 297.186 39.6996 299.472 21.601 289.846C4.33701 280.66 0.207725 255.98 28.959 245.454C32.836 244.593 36.8079 244.239 40.7759 244.399C74.6229 245.629 97.2462 276.221 105.702 289.978Z" fill="url(#paint56_linear_9208_62509)"/>
<path opacity="0.5" fill-rule="evenodd" clip-rule="evenodd" d="M261.41 33.2499C261.41 33.2499 183.195 38.7221 90.8128 10.8559L56.812 -3.80246C66.5173 -6.43016 76.4844 -7.97066 86.5298 -8.39556C99.7084 -8.59335 107.33 6.7023 108.187 8.48239V8.65821C113.35 5.57813 118.748 2.91068 124.33 0.680727C140.342 -5.91222 166.502 -13.3842 194.858 -7.73626C226.75 -1.429 240.983 17.6246 246.628 28.8326C249.286 33.8653 261.41 33.2499 261.41 33.2499Z" fill="url(#paint57_linear_9208_62509)"/>
<path fill-rule="evenodd" clip-rule="evenodd" d="M535.699 33.2708C536.38 36.4574 536.644 38.6331 536.644 38.6331C536.644 38.6331 501.347 51.819 490.387 44.6766C491.946 38.1366 494.153 31.7685 496.976 25.667C501.105 16.9862 507.233 8.48134 515.47 7.75612C528.275 6.61334 533.722 24.1506 535.699 33.2708Z" fill="url(#paint58_linear_9208_62509)"/>
<path fill-rule="evenodd" clip-rule="evenodd" d="M450.699 43.9088C453.731 45.3376 457.106 45.8791 460.432 45.4708C463.759 45.0625 466.903 43.721 469.5 41.6013C469.5 41.6013 467.128 28.6571 461.461 29.4483C455.794 30.2394 450.699 43.9088 450.699 43.9088Z" fill="url(#paint59_linear_9208_62509)"/>
<path fill-rule="evenodd" clip-rule="evenodd" d="M534.009 27.0746C527.024 33.228 503.259 49.9082 491.376 39.4254C495.769 26.2395 504.818 3.86742 513.077 3.1422C525.772 1.99942 531.988 17.9544 534.009 27.0746Z" fill="url(#paint60_linear_9208_62509)"/>
<path fill-rule="evenodd" clip-rule="evenodd" d="M589.536 19.9522C589.536 26.7869 589.8 31.3361 589.8 31.3361C589.8 31.3361 651.761 26.0397 684.993 15.9525C684.993 15.9525 678.821 6.01915 665.708 -11.4302C653.672 -27.539 637.638 -42.505 620.418 -40.593C593.797 -37.6701 589.844 0.437119 589.536 19.9522Z" fill="url(#paint61_linear_9208_62509)"/>
<path fill-rule="evenodd" clip-rule="evenodd" d="M769.029 -1.91291H768.634C694.13 17.8659 655.803 13.0091 655.803 13.0091C659.952 5.68979 664.475 -1.41071 669.355 -8.26412C674.846 -15.846 681.04 -22.9444 685.85 -24.6366C705.728 -31.5152 769.029 -1.91291 769.029 -1.91291Z" fill="url(#paint62_linear_9208_62509)"/>
<path fill-rule="evenodd" clip-rule="evenodd" d="M769.028 -1.91291H768.632C718.707 0.0869484 686.002 -4.70393 669.354 -8.26412C674.845 -15.846 681.039 -22.9444 685.849 -24.6366C705.726 -31.5152 769.028 -1.91291 769.028 -1.91291Z" fill="url(#paint63_linear_9208_62509)"/>
<path fill-rule="evenodd" clip-rule="evenodd" d="M589.536 19.9539C608.14 19.4704 645.413 14.9212 665.796 -11.5165C653.76 -27.6253 637.726 -42.5913 620.506 -40.6793C593.797 -37.6685 589.844 0.438728 589.536 19.9539Z" fill="url(#paint64_linear_9208_62509)"/>
<path fill-rule="evenodd" clip-rule="evenodd" d="M709.986 10.1747C687.231 15.5589 641.413 25.3385 615.231 23.3606C631.867 13.1179 650.056 5.65093 669.088 1.25223C701.793 -5.8242 708.602 4.41684 709.986 10.1747Z" fill="url(#paint65_linear_9208_62509)"/>
<path fill-rule="evenodd" clip-rule="evenodd" d="M249.309 33.0522C249.309 33.0522 182.362 34.4367 89.9799 6.54851L55.0127 -4.2859C55.0127 -4.2859 71.7056 -12.5271 85.7628 -12.7029C98.9414 -12.9007 106.563 2.39495 107.42 4.17505V4.35086C112.589 1.28183 117.986 -1.38519 123.563 -3.62662C139.553 -10.2196 165.735 -17.6696 194.091 -12.0436C225.961 -5.71437 240.216 13.3173 245.861 24.5473C247.304 27.254 248.46 30.1046 249.309 33.0522Z" fill="url(#paint66_linear_9208_62509)"/>
<path fill-rule="evenodd" clip-rule="evenodd" d="M261.409 33.2499C225.124 34.2828 155.058 22.2617 123.583 -3.62662C139.573 -10.2196 165.754 -17.6696 194.088 -12.0436C225.981 -5.73635 255.699 22.0199 261.409 33.2499Z" fill="url(#paint67_linear_9208_62509)"/>
<path fill-rule="evenodd" clip-rule="evenodd" d="M107.44 4.35059C107.44 4.35059 84.6413 2.15294 85.6956 -12.7032C98.8742 -12.901 106.496 2.39468 107.352 4.17477L107.44 4.35059Z" fill="url(#paint68_linear_9208_62509)"/>
<path fill-rule="evenodd" clip-rule="evenodd" d="M234.327 243.498L233.756 287.077L233.734 287.099L232.043 417.068L231.713 443.154L231.538 455.835L153.454 453.505L150.555 453.417L131.336 452.824L131.248 443.154L131.226 440.671L130.963 408.585L130.436 348.15L129.535 244.113L134.345 243.629L137.245 243.344L146.008 242.465L153.257 241.74L234.327 243.498Z" fill="url(#paint69_linear_9208_62509)"/>
<path fill-rule="evenodd" clip-rule="evenodd" d="M153.542 442.869V455.352L131.446 453.835L131.424 452.539L131.336 442.869L131.314 440.386L131.051 408.3L130.524 347.865L129.623 243.828V243.784L134.433 243.3L137.355 243.015L146.096 242.158L153.345 241.454L153.542 442.869Z" fill="#1B1E85"/>
<path fill-rule="evenodd" clip-rule="evenodd" d="M167.358 248.334L163.976 248.29L163.954 245.477L167.336 245.521L167.358 248.334Z" fill="#1B1E85"/>
<path fill-rule="evenodd" clip-rule="evenodd" d="M186.755 248.619L183.395 248.575V245.784L186.755 245.828V248.619Z" fill="#1B1E85"/>
<path fill-rule="evenodd" clip-rule="evenodd" d="M205.95 248.904L202.611 248.86L202.633 246.069L205.95 246.135V248.904Z" fill="#1B1E85"/>
<path fill-rule="evenodd" clip-rule="evenodd" d="M224.949 249.19L221.676 249.146L221.698 246.377L224.993 246.421L224.949 249.19Z" fill="#1B1E85"/>
<path fill-rule="evenodd" clip-rule="evenodd" d="M147.107 194.907L146.096 242.157V242.179L146.03 245.343L146.008 245.365L142.78 395.729L141.813 440.583L131.314 440.385L-6.59985 437.879L-12.0909 437.792L-48.6175 437.11L-52.0659 195.611L-6.9732 192.885L147.107 194.907Z" fill="url(#paint70_linear_9208_62509)"/>
<path fill-rule="evenodd" clip-rule="evenodd" d="M138.366 216.271L130.13 432.278L127.362 432.299L135.401 217.589L115.304 217.435L115.326 216.095L138.366 216.271Z" fill="#1B1E85"/>
<path fill-rule="evenodd" clip-rule="evenodd" d="M135.4 217.587L127.361 432.298H110.954L115.303 217.434L135.4 217.587Z" fill="#1B1E85"/>
<path fill-rule="evenodd" clip-rule="evenodd" d="M102.014 216.005L95.5122 432.319H92.7227L99.0265 217.323L78.7314 217.191L78.7534 215.829L102.014 216.005Z" fill="#1B1E85"/>
<path fill-rule="evenodd" clip-rule="evenodd" d="M99.0269 217.326L92.7232 432.322L76.1401 432.344L78.7319 217.194L99.0269 217.326Z" fill="#1B1E85"/>
<path fill-rule="evenodd" clip-rule="evenodd" d="M65.3139 215.741L60.5695 432.364H57.7362L62.3048 217.06L41.812 216.928V215.566L65.3139 215.741Z" fill="#1B1E85"/>
<path opacity="0.4" fill-rule="evenodd" clip-rule="evenodd" d="M62.302 217.06L57.7334 432.364L41.0186 432.386L41.8092 216.928L62.302 217.06Z" fill="url(#paint71_linear_9208_62509)"/>
<path fill-rule="evenodd" clip-rule="evenodd" d="M28.2136 215.478L25.2704 432.408H22.415L25.2045 216.819L4.51404 216.665L4.49219 215.302L28.2136 215.478Z" fill="#1B1E85"/>
<path opacity="0.4" fill-rule="evenodd" clip-rule="evenodd" d="M25.2032 216.819L22.4137 432.408L5.5231 432.43L4.5127 216.665L25.2032 216.819Z" fill="url(#paint72_linear_9208_62509)"/>
<path fill-rule="evenodd" clip-rule="evenodd" d="M19.647 200.842L13.2115 200.776L13.1675 197.523L19.625 197.589L19.647 200.842Z" fill="#1B1E85"/>
<path fill-rule="evenodd" clip-rule="evenodd" d="M56.505 201.172L50.1353 201.106V197.875L56.505 197.941V201.172Z" fill="#1B1E85"/>
<path d="M86.6553 198.201L86.626 201.431L92.9515 201.489L92.9808 198.258L86.6553 198.201Z" fill="#1B1E85"/>
<path fill-rule="evenodd" clip-rule="evenodd" d="M129.142 201.854L122.882 201.788L122.948 198.579L129.208 198.645L129.142 201.854Z" fill="#1B1E85"/>
<path d="M777.988 10.3728L778.713 17.0097L791.299 24.1521L791.87 24.5037H791.892L796.394 27.0749L1018.92 29.8879L1021.13 30.0198L1034.25 30.8329H1046.61V25.4926L1045.23 23.9982L1033.24 10.3728H777.988Z" fill="#1B1E85"/>
<path d="M791.102 19.6249L791.299 24.152V24.5037L791.563 30.2615L791.651 32.613L791.936 39.2719L792.595 54.4356L793.496 74.8738V75.0056L793.759 81.6645L795.275 116.915L795.604 124.453L795.758 128.145L796.263 139.858L807.685 406.169L807.707 406.389L807.75 407.752L834.657 407.906L904.394 408.279L983.048 408.719L1026.05 408.96V408.873L1026.03 406.169L1024.74 307.099L1024.67 301.671L1024.6 297.276L1024.34 277.431V276.091V275.893L1024.27 272.421L1023.81 236.841L1023.64 222.71L1023.51 213.699L1023.35 201.546L1023.24 193.305V192.426L1023.07 179.856L1022.96 171.087V170.164L1022.87 163.725L1022.74 153.616L1022.72 152.737L1022.65 147.242V147.22L1022.56 140.759L1022.54 139.133V138.803L1022.52 137.727L1022.47 132.848L1022.45 132.167V131.397L1022.43 130.474L1022.41 128.145L1022.39 126.563L1022.36 124.277L1022.34 123.178L1022.32 121.332L1022.28 118.409L1022.25 116.915L1022.23 115.157V114.168L1022.19 111.245L1022.14 107.069L1021.77 78.8076V78.7856L1021.62 66.8524L1021.46 56.6113L1021.24 39.2719L1021.18 31.9097L1021.13 30.0198V29.8439L1021.05 24.152V24.1301L1020.98 19.6249H791.102Z" fill="url(#paint73_linear_9208_62509)"/>
<path d="M777.988 10.3728L778.713 17.0097H1031.19L1033.24 10.3728H777.988Z" fill="url(#paint74_linear_9208_62509)"/>
<path opacity="0.4" d="M822.949 88.2325L841.443 88.1447L841.465 89.7929L823.345 89.8808L822.949 88.2325Z" fill="#D59BDA"/>
<path opacity="0.4" d="M823.74 142.187L842.212 142.099L842.234 143.747L824.136 143.835L823.74 142.187Z" fill="#D59BDA"/>
<path opacity="0.4" d="M825.695 192.798L842.828 192.732L842.849 194.381L826.047 194.469L825.695 192.798Z" fill="#D59BDA"/>
<path opacity="0.4" d="M826.419 244.684L843.574 244.596L843.596 246.266L826.793 246.332L826.419 244.684Z" fill="#D59BDA"/>
<g style="mix-blend-mode:multiply" opacity="0.5">
<path d="M840.872 45.4025L822.905 45.3805H821.566L821.39 38.0183L817.832 32.2166L840.674 32.1287L840.762 37.9305L840.806 40.0182L840.872 45.4025Z" fill="#C46A9F"/>
</g>
<path style="mix-blend-mode:screen" opacity="0.4" d="M832.24 96.9157L833.031 158.736L825.651 158.78L822.905 45.3808L822.773 40.0845L840.806 40.0186L840.872 45.4028L841.597 96.8717L832.24 96.9157Z" fill="url(#paint75_linear_9208_62509)"/>
<path style="mix-blend-mode:overlay" opacity="0.2" d="M1454.31 -206.053H-742.12V411.992H1454.31V-206.053Z" fill="url(#paint76_radial_9208_62509)"/>
</g>
<rect opacity="0.83" x="-53.5088" width="941.018" height="255" fill="url(#paint77_linear_9208_62509)"/>
</g>
<defs>
<linearGradient id="paint0_linear_9208_62509" x1="356.867" y1="400.411" x2="356.867" y2="-196.801" gradientUnits="userSpaceOnUse">
<stop stop-color="#7879F1"/>
<stop offset="0.26" stop-color="#A5A6F6"/>
<stop offset="0.61" stop-color="#5D5FEF"/>
<stop offset="1" stop-color="#1F2746"/>
</linearGradient>
<linearGradient id="paint1_linear_9208_62509" x1="437.805" y1="318.79" x2="392.87" y2="226.443" gradientUnits="userSpaceOnUse">
<stop stop-color="#000452"/>
<stop offset="1" stop-color="#0E2F73"/>
</linearGradient>
<linearGradient id="paint2_linear_9208_62509" x1="483.756" y1="420.85" x2="488.967" y2="173.285" gradientUnits="userSpaceOnUse">
<stop stop-color="#000452"/>
<stop offset="1" stop-color="#0E2F73"/>
</linearGradient>
<linearGradient id="paint3_linear_9208_62509" x1="638.338" y1="357.006" x2="641.548" y2="204.247" gradientUnits="userSpaceOnUse">
<stop stop-color="#000452"/>
<stop offset="1" stop-color="#0E2F73"/>
</linearGradient>
<linearGradient id="paint4_linear_9208_62509" x1="820.117" y1="367.424" x2="823.613" y2="200.996" gradientUnits="userSpaceOnUse">
<stop stop-color="#000452"/>
<stop offset="1" stop-color="#0E2F73"/>
</linearGradient>
<linearGradient id="paint5_linear_9208_62509" x1="892.511" y1="429.464" x2="897.723" y2="181.899" gradientUnits="userSpaceOnUse">
<stop stop-color="#000452"/>
<stop offset="1" stop-color="#0E2F73"/>
</linearGradient>
<linearGradient id="paint6_linear_9208_62509" x1="331.366" y1="272.419" x2="323.825" y2="236.402" gradientUnits="userSpaceOnUse">
<stop stop-color="#000452"/>
<stop offset="1" stop-color="#0E2F73"/>
</linearGradient>
<linearGradient id="paint7_linear_9208_62509" x1="377.995" y1="261.806" x2="374.983" y2="247.434" gradientUnits="userSpaceOnUse">
<stop stop-color="#000452"/>
<stop offset="1" stop-color="#0E2F73"/>
</linearGradient>
<linearGradient id="paint8_linear_9208_62509" x1="530.077" y1="312.746" x2="404.391" y2="182.078" gradientUnits="userSpaceOnUse">
<stop stop-color="#000452"/>
<stop offset="1" stop-color="#0E2F73"/>
</linearGradient>
<linearGradient id="paint9_linear_9208_62509" x1="15.2782" y1="407.092" x2="72.27" y2="144.486" gradientUnits="userSpaceOnUse">
<stop stop-color="#000452"/>
<stop offset="1" stop-color="#0E2F73"/>
</linearGradient>
<linearGradient id="paint10_linear_9208_62509" x1="-4.448" y1="361.074" x2="17.8041" y2="183.024" gradientUnits="userSpaceOnUse">
<stop stop-color="#000452"/>
<stop offset="1" stop-color="#0E2F73"/>
</linearGradient>
<linearGradient id="paint11_linear_9208_62509" x1="128.195" y1="375.27" x2="150.469" y2="197.219" gradientUnits="userSpaceOnUse">
<stop stop-color="#000452"/>
<stop offset="1" stop-color="#0E2F73"/>
</linearGradient>
<linearGradient id="paint12_linear_9208_62509" x1="413.427" y1="548.291" x2="413.427" y2="152.824" gradientUnits="userSpaceOnUse">
<stop stop-color="#0D30A3"/>
<stop offset="1" stop-color="#171B80"/>
</linearGradient>
<linearGradient id="paint13_linear_9208_62509" x1="502.139" y1="547.432" x2="502.139" y2="195.589" gradientUnits="userSpaceOnUse">
<stop stop-color="#0D30A3"/>
<stop offset="1" stop-color="#171B80"/>
</linearGradient>
<linearGradient id="paint14_linear_9208_62509" x1="438.728" y1="157.636" x2="438.728" y2="151.988" gradientUnits="userSpaceOnUse">
<stop stop-color="#0D30A3"/>
<stop offset="1" stop-color="#171B80"/>
</linearGradient>
<linearGradient id="paint15_linear_9208_62509" x1="450.853" y1="500.514" x2="450.853" y2="157.636" gradientUnits="userSpaceOnUse">
<stop stop-color="#0D30A3"/>
<stop offset="1" stop-color="#171B80"/>
</linearGradient>
<linearGradient id="paint16_linear_9208_62509" x1="544.552" y1="409.003" x2="544.552" y2="240.509" gradientUnits="userSpaceOnUse">
<stop stop-color="#0D30A3"/>
<stop offset="1" stop-color="#171B80"/>
</linearGradient>
<linearGradient id="paint17_linear_9208_62509" x1="569.835" y1="242.553" x2="569.835" y2="240.135" gradientUnits="userSpaceOnUse">
<stop stop-color="#0D30A3"/>
<stop offset="1" stop-color="#171B80"/>
</linearGradient>
<linearGradient id="paint18_linear_9208_62509" x1="581.956" y1="388.653" x2="581.956" y2="242.553" gradientUnits="userSpaceOnUse">
<stop stop-color="#0D30A3"/>
<stop offset="1" stop-color="#171B80"/>
</linearGradient>
<linearGradient id="paint19_linear_9208_62509" x1="470.512" y1="210.093" x2="470.512" y2="200.402" gradientUnits="userSpaceOnUse">
<stop stop-color="#FFD05A"/>
<stop offset="1" stop-color="#FFEE00"/>
</linearGradient>
<linearGradient id="paint20_linear_9208_62509" x1="479.296" y1="222.468" x2="479.296" y2="212.776" gradientUnits="userSpaceOnUse">
<stop stop-color="#FFD05A"/>
<stop offset="1" stop-color="#FFEE00"/>
</linearGradient>
<linearGradient id="paint21_linear_9208_62509" x1="479.296" y1="235.982" x2="479.296" y2="226.291" gradientUnits="userSpaceOnUse">
<stop stop-color="#FFD05A"/>
<stop offset="1" stop-color="#FFEE00"/>
</linearGradient>
<linearGradient id="paint22_linear_9208_62509" x1="450.853" y1="173.944" x2="450.853" y2="164.274" gradientUnits="userSpaceOnUse">
<stop stop-color="#FFD05A"/>
<stop offset="1" stop-color="#FFEE00"/>
</linearGradient>
<linearGradient id="paint23_linear_9208_62509" x1="444.373" y1="187.369" x2="444.373" y2="177.7" gradientUnits="userSpaceOnUse">
<stop stop-color="#FFD05A"/>
<stop offset="1" stop-color="#FFEE00"/>
</linearGradient>
<linearGradient id="paint24_linear_9208_62509" x1="450.853" y1="221.699" x2="450.853" y2="212.008" gradientUnits="userSpaceOnUse">
<stop stop-color="#FFD05A"/>
<stop offset="1" stop-color="#FFEE00"/>
</linearGradient>
<linearGradient id="paint25_linear_9208_62509" x1="417.333" y1="222.468" x2="417.333" y2="212.776" gradientUnits="userSpaceOnUse">
<stop stop-color="#FFD05A"/>
<stop offset="1" stop-color="#FFEE00"/>
</linearGradient>
<linearGradient id="paint26_linear_9208_62509" x1="423.573" y1="210.093" x2="423.573" y2="200.402" gradientUnits="userSpaceOnUse">
<stop stop-color="#FFD05A"/>
<stop offset="1" stop-color="#FFEE00"/>
</linearGradient>
<linearGradient id="paint27_linear_9208_62509" x1="473.321" y1="263.561" x2="473.321" y2="253.87" gradientUnits="userSpaceOnUse">
<stop stop-color="#FFD05A"/>
<stop offset="1" stop-color="#FFEE00"/>
</linearGradient>
<linearGradient id="paint28_linear_9208_62509" x1="482.107" y1="263.561" x2="482.107" y2="253.87" gradientUnits="userSpaceOnUse">
<stop stop-color="#FFD05A"/>
<stop offset="1" stop-color="#FFEE00"/>
</linearGradient>
<linearGradient id="paint29_linear_9208_62509" x1="549.956" y1="262.067" x2="549.956" y2="252.375" gradientUnits="userSpaceOnUse">
<stop stop-color="#FFD05A"/>
<stop offset="1" stop-color="#FFEE00"/>
</linearGradient>
<radialGradient id="paint30_radial_9208_62509" cx="0" cy="0" r="1" gradientUnits="userSpaceOnUse" gradientTransform="translate(482.108 226.292) scale(32.024 32.0417)">
<stop stop-color="#FF9E54"/>
<stop offset="0.14" stop-color="#CF8044"/>
<stop offset="0.38" stop-color="#87532C"/>
<stop offset="0.59" stop-color="#4D3019"/>
<stop offset="0.77" stop-color="#23160C"/>
<stop offset="0.92" stop-color="#090603"/>
<stop offset="1"/>
</radialGradient>
<radialGradient id="paint31_radial_9208_62509" cx="0" cy="0" r="1" gradientUnits="userSpaceOnUse" gradientTransform="translate(552.745 266.773) scale(32.024 32.0417)">
<stop stop-color="#FF9E54"/>
<stop offset="0.14" stop-color="#CF8044"/>
<stop offset="0.38" stop-color="#87532C"/>
<stop offset="0.59" stop-color="#4D3019"/>
<stop offset="0.77" stop-color="#23160C"/>
<stop offset="0.92" stop-color="#090603"/>
<stop offset="1"/>
</radialGradient>
<linearGradient id="paint32_linear_9208_62509" x1="738.389" y1="571.96" x2="738.389" y2="176.493" gradientUnits="userSpaceOnUse">
<stop stop-color="#0D30A3"/>
<stop offset="1" stop-color="#171B80"/>
</linearGradient>
<linearGradient id="paint33_linear_9208_62509" x1="827.124" y1="571.102" x2="827.124" y2="219.258" gradientUnits="userSpaceOnUse">
<stop stop-color="#0D30A3"/>
<stop offset="1" stop-color="#171B80"/>
</linearGradient>
<linearGradient id="paint34_linear_9208_62509" x1="763.691" y1="181.305" x2="763.691" y2="175.657" gradientUnits="userSpaceOnUse">
<stop stop-color="#0D30A3"/>
<stop offset="1" stop-color="#171B80"/>
</linearGradient>
<linearGradient id="paint35_linear_9208_62509" x1="775.814" y1="524.183" x2="775.814" y2="181.306" gradientUnits="userSpaceOnUse">
<stop stop-color="#0D30A3"/>
<stop offset="1" stop-color="#171B80"/>
</linearGradient>
<linearGradient id="paint36_linear_9208_62509" x1="769.4" y1="201.942" x2="769.4" y2="192.272" gradientUnits="userSpaceOnUse">
<stop stop-color="#FFD05A"/>
<stop offset="1" stop-color="#FFEE00"/>
</linearGradient>
<linearGradient id="paint37_linear_9208_62509" x1="775.815" y1="214.029" x2="775.815" y2="204.36" gradientUnits="userSpaceOnUse">
<stop stop-color="#FFD05A"/>
<stop offset="1" stop-color="#FFEE00"/>
</linearGradient>
<linearGradient id="paint38_linear_9208_62509" x1="775.815" y1="226.246" x2="775.815" y2="216.554" gradientUnits="userSpaceOnUse">
<stop stop-color="#FFD05A"/>
<stop offset="1" stop-color="#FFEE00"/>
</linearGradient>
<linearGradient id="paint39_linear_9208_62509" x1="766.591" y1="241.762" x2="766.591" y2="232.071" gradientUnits="userSpaceOnUse">
<stop stop-color="#FFD05A"/>
<stop offset="1" stop-color="#FFEE00"/>
</linearGradient>
<radialGradient id="paint40_radial_9208_62509" cx="0" cy="0" r="1" gradientUnits="userSpaceOnUse" gradientTransform="translate(775.815 216.556) scale(32.0241 32.0417)">
<stop stop-color="#FF9E54"/>
<stop offset="0.14" stop-color="#CF8044"/>
<stop offset="0.38" stop-color="#87532C"/>
<stop offset="0.59" stop-color="#4D3019"/>
<stop offset="0.77" stop-color="#23160C"/>
<stop offset="0.92" stop-color="#090603"/>
<stop offset="1"/>
</radialGradient>
<linearGradient id="paint41_linear_9208_62509" x1="165.294" y1="481.241" x2="165.294" y2="107.135" gradientUnits="userSpaceOnUse">
<stop stop-color="#0D30A3"/>
<stop offset="1" stop-color="#171B80"/>
</linearGradient>
<linearGradient id="paint42_linear_9208_62509" x1="76.3184" y1="481.241" x2="76.3184" y2="107.135" gradientUnits="userSpaceOnUse">
<stop stop-color="#0D30A3"/>
<stop offset="1" stop-color="#171B80"/>
</linearGradient>
<linearGradient id="paint43_linear_9208_62509" x1="140.057" y1="135.991" x2="140.057" y2="129.684" gradientUnits="userSpaceOnUse">
<stop stop-color="#0D30A3"/>
<stop offset="1" stop-color="#171B80"/>
</linearGradient>
<linearGradient id="paint44_linear_9208_62509" x1="127.714" y1="434.409" x2="127.714" y2="136.276" gradientUnits="userSpaceOnUse">
<stop stop-color="#0D30A3"/>
<stop offset="1" stop-color="#171B80"/>
</linearGradient>
<linearGradient id="paint45_linear_9208_62509" x1="203.029" y1="473.681" x2="203.029" y2="218.446" gradientUnits="userSpaceOnUse">
<stop stop-color="#0D30A3"/>
<stop offset="1" stop-color="#171B80"/>
</linearGradient>
<linearGradient id="paint46_linear_9208_62509" x1="6.2287" y1="342.634" x2="6.2287" y2="95.2227" gradientUnits="userSpaceOnUse">
<stop stop-color="#0D30A3"/>
<stop offset="1" stop-color="#171B80"/>
</linearGradient>
<linearGradient id="paint47_linear_9208_62509" x1="71.9026" y1="338.745" x2="71.9026" y2="229.983" gradientUnits="userSpaceOnUse">
<stop stop-color="#0D30A3"/>
<stop offset="1" stop-color="#171B80"/>
</linearGradient>
<linearGradient id="paint48_linear_9208_62509" x1="95.2926" y1="127.396" x2="95.2926" y2="120.144" gradientUnits="userSpaceOnUse">
<stop stop-color="#FFD05A"/>
<stop offset="1" stop-color="#FFEE00"/>
</linearGradient>
<linearGradient id="paint49_linear_9208_62509" x1="104.079" y1="128.033" x2="104.079" y2="120.803" gradientUnits="userSpaceOnUse">
<stop stop-color="#FFD05A"/>
<stop offset="1" stop-color="#FFEE00"/>
</linearGradient>
<linearGradient id="paint50_linear_9208_62509" x1="104.079" y1="142.539" x2="104.079" y2="135.287" gradientUnits="userSpaceOnUse">
<stop stop-color="#FFD05A"/>
<stop offset="1" stop-color="#FFEE00"/>
</linearGradient>
<linearGradient id="paint51_linear_9208_62509" x1="95.2939" y1="155.747" x2="95.2939" y2="147.044" gradientUnits="userSpaceOnUse">
<stop stop-color="#FFD05A"/>
<stop offset="1" stop-color="#FFEE00"/>
</linearGradient>
<linearGradient id="paint52_linear_9208_62509" x1="128.261" y1="152.427" x2="128.261" y2="144.098" gradientUnits="userSpaceOnUse">
<stop stop-color="#FFD05A"/>
<stop offset="1" stop-color="#FFEE00"/>
</linearGradient>
<linearGradient id="paint53_linear_9208_62509" x1="135.774" y1="163.02" x2="135.774" y2="154.691" gradientUnits="userSpaceOnUse">
<stop stop-color="#FFD05A"/>
<stop offset="1" stop-color="#FFEE00"/>
</linearGradient>
<linearGradient id="paint54_linear_9208_62509" x1="135.775" y1="175.546" x2="135.775" y2="167.217" gradientUnits="userSpaceOnUse">
<stop stop-color="#FFD05A"/>
<stop offset="1" stop-color="#FFEE00"/>
</linearGradient>
<linearGradient id="paint55_linear_9208_62509" x1="353.748" y1="234.512" x2="357.442" y2="376.436" gradientUnits="userSpaceOnUse">
<stop/>
<stop offset="0.34" stop-color="#611A56"/>
<stop offset="0.67" stop-color="#B531A1"/>
<stop offset="0.89" stop-color="#E940CF"/>
<stop offset="1" stop-color="#FD45E1"/>
</linearGradient>
<linearGradient id="paint56_linear_9208_62509" x1="38.7147" y1="390.956" x2="40.1048" y2="251.229" gradientUnits="userSpaceOnUse">
<stop stop-color="#000452"/>
<stop offset="1" stop-color="#0E2F73"/>
</linearGradient>
<linearGradient id="paint57_linear_9208_62509" x1="158.893" y1="-119.978" x2="159.19" y2="86.0462" gradientUnits="userSpaceOnUse">
<stop stop-color="#4875FF"/>
<stop offset="0.07" stop-color="#4F85FF"/>
<stop offset="0.22" stop-color="#5CA2FF"/>
<stop offset="0.38" stop-color="#65B9FF"/>
<stop offset="0.55" stop-color="#6DC9FF"/>
<stop offset="0.75" stop-color="#71D3FF"/>
<stop offset="1" stop-color="#72D6FF"/>
</linearGradient>
<linearGradient id="paint58_linear_9208_62509" x1="585.954" y1="75.18" x2="480.493" y2="11.2581" gradientUnits="userSpaceOnUse">
<stop stop-color="#000452"/>
<stop offset="1" stop-color="#0E2F73"/>
</linearGradient>
<linearGradient id="paint59_linear_9208_62509" x1="461.439" y1="71.8409" x2="460.604" y2="53.6005" gradientUnits="userSpaceOnUse">
<stop stop-color="#000452"/>
<stop offset="1" stop-color="#0E2F73"/>
</linearGradient>
<linearGradient id="paint60_linear_9208_62509" x1="584.087" y1="46.5238" x2="505.557" y2="22.4181" gradientUnits="userSpaceOnUse">
<stop stop-color="#000452"/>
<stop offset="1" stop-color="#0E2F73"/>
</linearGradient>
<linearGradient id="paint61_linear_9208_62509" x1="727.014" y1="258.814" x2="530.465" y2="-256.01" gradientUnits="userSpaceOnUse">
<stop stop-color="#000452"/>
<stop offset="1" stop-color="#0E2F73"/>
</linearGradient>
<linearGradient id="paint62_linear_9208_62509" x1="708.122" y1="41.161" x2="719.622" y2="-56.1714" gradientUnits="userSpaceOnUse">
<stop stop-color="#000452"/>
<stop offset="1" stop-color="#0E2F73"/>
</linearGradient>
<linearGradient id="paint63_linear_9208_62509" x1="712.645" y1="32.3045" x2="722.76" y2="-26.239" gradientUnits="userSpaceOnUse">
<stop stop-color="#000452"/>
<stop offset="1" stop-color="#0E2F73"/>
</linearGradient>
<linearGradient id="paint64_linear_9208_62509" x1="690.836" y1="48.831" x2="605.184" y2="-15.4706" gradientUnits="userSpaceOnUse">
<stop stop-color="#000452"/>
<stop offset="1" stop-color="#0E2F73"/>
</linearGradient>
<linearGradient id="paint65_linear_9208_62509" x1="506.456" y1="111.14" x2="495.125" y2="-11.1781" gradientUnits="userSpaceOnUse">
<stop stop-color="#000452"/>
<stop offset="1" stop-color="#0E2F73"/>
</linearGradient>
<linearGradient id="paint66_linear_9208_62509" x1="140.099" y1="-95.6921" x2="164.542" y2="127.421" gradientUnits="userSpaceOnUse">
<stop stop-color="#000452"/>
<stop offset="1" stop-color="#0E2F73"/>
</linearGradient>
<linearGradient id="paint67_linear_9208_62509" x1="99.229" y1="108.525" x2="218.02" y2="-10.6883" gradientUnits="userSpaceOnUse">
<stop stop-color="#000452"/>
<stop offset="1" stop-color="#0E2F73"/>
</linearGradient>
<linearGradient id="paint68_linear_9208_62509" x1="72.1634" y1="14.9668" x2="112.781" y2="-16.8445" gradientUnits="userSpaceOnUse">
<stop stop-color="#000452"/>
<stop offset="1" stop-color="#0E2F73"/>
</linearGradient>
<linearGradient id="paint69_linear_9208_62509" x1="182.535" y1="191.633" x2="179.786" y2="431.221" gradientUnits="userSpaceOnUse">
<stop stop-color="#4B1ED9"/>
<stop offset="0.88" stop-color="#3B3FD0"/>
<stop offset="1" stop-color="#3844CF"/>
</linearGradient>
<linearGradient id="paint70_linear_9208_62509" x1="48.2013" y1="135.329" x2="45.0349" y2="411.771" gradientUnits="userSpaceOnUse">
<stop stop-color="#4B1ED9"/>
<stop offset="0.88" stop-color="#3B3FD0"/>
<stop offset="1" stop-color="#3844CF"/>
</linearGradient>
<linearGradient id="paint71_linear_9208_62509" x1="41.0186" y1="324.657" x2="62.302" y2="324.657" gradientUnits="userSpaceOnUse">
<stop stop-color="#FFD05A"/>
<stop offset="1" stop-color="#FFEE00"/>
</linearGradient>
<linearGradient id="paint72_linear_9208_62509" x1="4.5127" y1="324.547" x2="25.2032" y2="324.547" gradientUnits="userSpaceOnUse">
<stop stop-color="#FFD05A"/>
<stop offset="1" stop-color="#FFEE00"/>
</linearGradient>
<linearGradient id="paint73_linear_9208_62509" x1="902.615" y1="311.143" x2="912.663" y2="148.078" gradientUnits="userSpaceOnUse">
<stop stop-color="#4B1ED9"/>
<stop offset="0.88" stop-color="#3B3FD0"/>
<stop offset="1" stop-color="#3844CF"/>
</linearGradient>
<linearGradient id="paint74_linear_9208_62509" x1="1033.24" y1="13.6913" x2="777.988" y2="13.6913" gradientUnits="userSpaceOnUse">
<stop stop-color="#4B1ED9"/>
<stop offset="0.88" stop-color="#3B3FD0"/>
<stop offset="1" stop-color="#3844CF"/>
</linearGradient>
<linearGradient id="paint75_linear_9208_62509" x1="827.803" y1="156.198" x2="823.994" y2="107.818" gradientUnits="userSpaceOnUse">
<stop stop-color="#131C86"/>
<stop offset="1" stop-color="#0D62D4"/>
</linearGradient>
<radialGradient id="paint76_radial_9208_62509" cx="0" cy="0" r="1" gradientUnits="userSpaceOnUse" gradientTransform="translate(395.579 94.432) scale(645.362 393.731)">
<stop stop-color="#FDD300"/>
<stop offset="0.14" stop-color="#E4A90B"/>
<stop offset="0.37" stop-color="#C06E1B"/>
<stop offset="0.57" stop-color="#A43E27"/>
<stop offset="0.75" stop-color="#901C30"/>
<stop offset="0.9" stop-color="#830836"/>
<stop offset="1" stop-color="#7F0038"/>
</radialGradient>
<linearGradient id="paint77_linear_9208_62509" x1="417" y1="-10.4318" x2="417" y2="227.761" gradientUnits="userSpaceOnUse">
<stop stop-color="#7879F1"/>
<stop offset="1" stop-color="#1B1C32"/>
</linearGradient>
<clipPath id="clip0_9208_62509">
<rect width="834" height="255" fill="white"/>
</clipPath>
</defs>
</svg>
