<svg width="390" height="452" viewBox="0 0 390 452" fill="none" xmlns="http://www.w3.org/2000/svg">
<g clip-path="url(#clip0_9208_63839)">
<rect width="390" height="414.793" fill="#D5D6FF"/>
<mask id="mask0_9208_63839" style="mask-type:alpha" maskUnits="userSpaceOnUse" x="0" y="0" width="390" height="547">
<rect width="390" height="546.044" fill="#D9D9D9"/>
</mask>
<g mask="url(#mask0_9208_63839)">
<mask id="mask1_9208_63839" style="mask-type:luminance" maskUnits="userSpaceOnUse" x="-885" y="-41" width="2093" height="568">
<path d="M1207.69 -40.1245H-884.675V526.006H1207.69V-40.1245Z" fill="white"/>
</mask>
<g mask="url(#mask1_9208_63839)">
<path d="M-883.964 526.719L1208.4 526.719V-43.0809L-883.964 -43.0809V526.719Z" fill="url(#paint0_linear_9208_63839)"/>
<path fill-rule="evenodd" clip-rule="evenodd" d="M336.217 34.8779C336.217 35.2302 336.079 35.5683 335.833 35.8194C335.586 36.0705 335.251 36.2143 334.899 36.2198C334.544 36.2198 334.204 36.0784 333.952 35.8268C333.701 35.5751 333.56 35.2338 333.56 34.8779C333.566 34.5256 333.709 34.1896 333.96 33.9425C334.21 33.6953 334.548 33.5568 334.899 33.5569C335.249 33.5569 335.584 33.6961 335.831 33.9438C336.079 34.1915 336.217 34.5275 336.217 34.8779Z" fill="#09B9EA"/>
<path fill-rule="evenodd" clip-rule="evenodd" d="M310.4 178.382C310.394 178.735 310.251 179.071 310 179.318C309.75 179.565 309.412 179.703 309.061 179.703C308.737 179.663 308.439 179.505 308.224 179.26C308.008 179.015 307.889 178.699 307.889 178.372C307.889 178.045 308.008 177.729 308.224 177.484C308.439 177.239 308.737 177.081 309.061 177.041C309.416 177.041 309.756 177.182 310.008 177.434C310.259 177.685 310.4 178.027 310.4 178.382Z" fill="#09B9EA"/>
<path fill-rule="evenodd" clip-rule="evenodd" d="M200.131 248.349C200.131 248.616 200.052 248.876 199.904 249.097C199.756 249.318 199.546 249.49 199.3 249.591C199.054 249.692 198.784 249.717 198.523 249.664C198.263 249.61 198.024 249.48 197.838 249.291C197.651 249.101 197.526 248.86 197.476 248.598C197.427 248.336 197.457 248.066 197.561 247.821C197.666 247.576 197.841 247.368 198.064 247.223C198.287 247.078 198.548 247.003 198.813 247.007C199.165 247.013 199.5 247.157 199.747 247.408C199.993 247.659 200.131 247.997 200.131 248.349Z" fill="#09B9EA"/>
<path fill-rule="evenodd" clip-rule="evenodd" d="M237.794 411.836C237.794 412.187 237.655 412.523 237.407 412.77C237.16 413.018 236.825 413.157 236.475 413.157C236.124 413.157 235.786 413.019 235.536 412.772C235.285 412.525 235.142 412.189 235.136 411.836C235.136 411.48 235.277 411.139 235.528 410.887C235.78 410.636 236.12 410.494 236.475 410.494C236.827 410.5 237.162 410.644 237.409 410.895C237.655 411.146 237.794 411.484 237.794 411.836Z" fill="#09B9EA"/>
<path fill-rule="evenodd" clip-rule="evenodd" d="M116.332 193.727C116.336 193.995 116.261 194.257 116.115 194.481C115.97 194.705 115.761 194.88 115.515 194.984C115.27 195.088 114.999 195.116 114.737 195.065C114.476 195.014 114.235 194.886 114.047 194.697C113.858 194.508 113.73 194.267 113.679 194.005C113.628 193.743 113.656 193.471 113.76 193.225C113.864 192.979 114.039 192.77 114.262 192.624C114.486 192.478 114.748 192.402 115.014 192.406C115.364 192.406 115.699 192.546 115.946 192.793C116.193 193.041 116.332 193.377 116.332 193.727Z" fill="#0970C0"/>
<path fill-rule="evenodd" clip-rule="evenodd" d="M53.3941 163.263C53.3941 163.616 53.2559 163.954 53.0093 164.205C52.7627 164.456 52.4275 164.6 52.076 164.605C51.7208 164.605 51.3801 164.464 51.129 164.212C50.8779 163.961 50.7368 163.619 50.7368 163.263C50.7368 162.907 50.8779 162.566 51.129 162.314C51.3801 162.063 51.7208 161.921 52.076 161.921C52.4275 161.927 52.7627 162.071 53.0093 162.322C53.2559 162.573 53.3941 162.911 53.3941 163.263Z" fill="#0970C0"/>
<path fill-rule="evenodd" clip-rule="evenodd" d="M136.673 192.407C136.668 192.76 136.524 193.096 136.274 193.343C136.023 193.59 135.686 193.728 135.334 193.728C134.985 193.728 134.649 193.589 134.402 193.341C134.155 193.094 134.016 192.758 134.016 192.407C134.016 192.055 134.154 191.717 134.401 191.466C134.648 191.215 134.983 191.071 135.334 191.065C135.689 191.065 136.03 191.207 136.281 191.458C136.532 191.71 136.673 192.051 136.673 192.407Z" fill="#095CC0"/>
<path fill-rule="evenodd" clip-rule="evenodd" d="M183.894 151.939C183.894 152.291 183.755 152.629 183.509 152.88C183.262 153.131 182.927 153.275 182.575 153.281C182.22 153.281 181.88 153.139 181.629 152.888C181.377 152.636 181.236 152.295 181.236 151.939C181.236 151.583 181.377 151.241 181.629 150.99C181.88 150.738 182.22 150.597 182.575 150.597C182.927 150.602 183.262 150.746 183.509 150.997C183.755 151.248 183.894 151.586 183.894 151.939Z" fill="#0970C0"/>
<path fill-rule="evenodd" clip-rule="evenodd" d="M381.559 275.693C381.559 276.043 381.42 276.379 381.173 276.627C380.926 276.875 380.59 277.014 380.241 277.014C379.974 277.018 379.712 276.943 379.489 276.797C379.266 276.651 379.091 276.441 378.987 276.195C378.883 275.949 378.855 275.678 378.906 275.416C378.957 275.153 379.084 274.912 379.273 274.723C379.462 274.534 379.702 274.406 379.964 274.355C380.225 274.304 380.496 274.332 380.742 274.436C380.987 274.541 381.196 274.716 381.342 274.94C381.488 275.164 381.563 275.426 381.559 275.693Z" fill="#0970C0"/>
<path fill-rule="evenodd" clip-rule="evenodd" d="M287.739 371.934C287.739 372.201 287.66 372.461 287.512 372.682C287.364 372.903 287.153 373.075 286.907 373.176C286.661 373.277 286.391 373.302 286.131 373.249C285.87 373.195 285.632 373.065 285.445 372.876C285.259 372.686 285.133 372.445 285.084 372.183C285.034 371.921 285.064 371.651 285.169 371.406C285.273 371.161 285.448 370.953 285.671 370.808C285.894 370.663 286.155 370.588 286.421 370.592C286.596 370.592 286.769 370.627 286.93 370.695C287.091 370.763 287.238 370.862 287.36 370.987C287.483 371.112 287.58 371.26 287.645 371.422C287.71 371.585 287.742 371.759 287.739 371.934Z" fill="#0970C0"/>
<path fill-rule="evenodd" clip-rule="evenodd" d="M298.852 127.471C298.852 127.738 298.773 127.998 298.624 128.219C298.476 128.44 298.266 128.612 298.02 128.713C297.774 128.814 297.504 128.839 297.243 128.786C296.983 128.732 296.745 128.602 296.558 128.412C296.372 128.223 296.246 127.982 296.197 127.72C296.147 127.458 296.177 127.188 296.281 126.943C296.386 126.698 296.561 126.49 296.784 126.345C297.007 126.2 297.268 126.125 297.533 126.129C297.708 126.129 297.881 126.164 298.043 126.232C298.204 126.3 298.35 126.399 298.473 126.524C298.596 126.648 298.692 126.797 298.757 126.959C298.822 127.122 298.854 127.296 298.852 127.471Z" fill="#09FFFF"/>
<path fill-rule="evenodd" clip-rule="evenodd" d="M77.6235 319.892C77.6235 320.158 77.5444 320.419 77.3963 320.64C77.2482 320.861 77.0378 321.033 76.7919 321.134C76.546 321.235 76.2757 321.26 76.0154 321.207C75.7551 321.153 75.5165 321.023 75.3301 320.833C75.1437 320.644 75.0178 320.403 74.9685 320.141C74.9193 319.879 74.9488 319.609 75.0533 319.364C75.1579 319.119 75.3328 318.911 75.5557 318.766C75.7787 318.621 76.0396 318.546 76.3053 318.55C76.6568 318.556 76.9921 318.7 77.2387 318.951C77.4854 319.202 77.6236 319.54 77.6235 319.892Z" fill="#92FFFF"/>
<path fill-rule="evenodd" clip-rule="evenodd" d="M323.582 8.10121C323.576 8.45347 323.433 8.78944 323.182 9.03658C322.931 9.28373 322.594 9.42223 322.242 9.42218C321.919 9.3814 321.621 9.22362 321.405 8.97846C321.189 8.73331 321.07 8.41764 321.07 8.09073C321.07 7.76382 321.189 7.44815 321.405 7.203C321.621 6.95784 321.919 6.80006 322.242 6.75928C322.598 6.75928 322.938 6.90066 323.189 7.15232C323.44 7.40398 323.582 7.74531 323.582 8.10121Z" fill="#09FFFF"/>
<path fill-rule="evenodd" clip-rule="evenodd" d="M4.5816 324.276C4.5761 324.628 4.4326 324.964 4.18206 325.211C3.93152 325.459 3.59401 325.597 3.24245 325.597C2.89285 325.597 2.55759 325.458 2.31038 325.21C2.06317 324.962 1.92432 324.626 1.92432 324.276C1.92427 323.924 2.06248 323.586 2.3091 323.334C2.55573 323.083 2.89094 322.94 3.24245 322.934C3.59761 322.934 3.93827 323.075 4.18941 323.327C4.44054 323.579 4.5816 323.92 4.5816 324.276Z" fill="#09FFFF"/>
<path fill-rule="evenodd" clip-rule="evenodd" d="M183.164 33.5562C183.124 33.8806 182.966 34.1789 182.722 34.3952C182.477 34.6114 182.162 34.7308 181.836 34.7308C181.509 34.7308 181.195 34.6114 180.95 34.3952C180.705 34.1789 180.548 33.8806 180.507 33.5562C180.483 33.3674 180.5 33.1756 180.556 32.9937C180.612 32.8118 180.706 32.6438 180.831 32.5011C180.957 32.3583 181.112 32.244 181.285 32.1657C181.458 32.0874 181.646 32.0469 181.836 32.0469C182.026 32.0469 182.213 32.0874 182.387 32.1657C182.56 32.244 182.714 32.3583 182.84 32.5011C182.966 32.6438 183.06 32.8118 183.115 32.9937C183.171 33.1756 183.188 33.3674 183.164 33.5562Z" fill="#09FFFF"/>
<path fill-rule="evenodd" clip-rule="evenodd" d="M138.01 110.068C138.01 110.333 137.932 110.592 137.785 110.813C137.637 111.034 137.428 111.206 137.184 111.307C136.939 111.409 136.67 111.435 136.41 111.384C136.15 111.332 135.912 111.204 135.724 111.016C135.537 110.829 135.409 110.59 135.358 110.329C135.306 110.069 135.333 109.799 135.434 109.554C135.535 109.309 135.707 109.099 135.927 108.952C136.147 108.804 136.406 108.726 136.671 108.726C137.026 108.726 137.367 108.867 137.618 109.119C137.869 109.37 138.01 109.712 138.01 110.068Z" fill="#09FFFF"/>
<path fill-rule="evenodd" clip-rule="evenodd" d="M4.76638 119.9C4.72568 120.225 4.56825 120.523 4.32361 120.739C4.07897 120.956 3.76392 121.075 3.4377 121.075C3.11148 121.075 2.7965 120.956 2.55186 120.739C2.30722 120.523 2.14979 120.225 2.10909 119.9C2.0854 119.712 2.10207 119.52 2.15801 119.338C2.21394 119.156 2.30787 118.988 2.43354 118.845C2.5592 118.703 2.71369 118.588 2.88684 118.51C3.05998 118.432 3.24774 118.391 3.4377 118.391C3.62766 118.391 3.81549 118.432 3.98863 118.51C4.16178 118.588 4.31627 118.703 4.44193 118.845C4.5676 118.988 4.66153 119.156 4.71746 119.338C4.7734 119.52 4.79007 119.712 4.76638 119.9Z" fill="#09FFFF"/>
<path fill-rule="evenodd" clip-rule="evenodd" d="M43.2696 343.166C43.2724 343.341 43.2404 343.515 43.1754 343.678C43.1104 343.84 43.0137 343.988 42.891 344.113C42.7684 344.238 42.6221 344.337 42.4608 344.405C42.2995 344.473 42.1263 344.508 41.9514 344.508C41.763 344.531 41.5716 344.515 41.3901 344.459C41.2086 344.403 41.041 344.308 40.8985 344.183C40.7561 344.057 40.642 343.902 40.5638 343.728C40.4857 343.555 40.4453 343.367 40.4453 343.176C40.4453 342.986 40.4857 342.798 40.5638 342.624C40.642 342.451 40.7561 342.296 40.8985 342.17C41.041 342.044 41.2086 341.95 41.3901 341.894C41.5716 341.838 41.763 341.821 41.9514 341.845C42.1245 341.845 42.296 341.879 42.4559 341.945C42.6159 342.012 42.7612 342.109 42.8836 342.232C43.006 342.354 43.1031 342.5 43.1693 342.66C43.2356 342.82 43.2696 342.992 43.2696 343.166Z" fill="#09FFFF"/>
<path d="M1207.69 419.511H-884.676V546.388H1207.69V419.511Z" fill="url(#paint1_linear_9208_63839)"/>
<path fill-rule="evenodd" clip-rule="evenodd" d="M917.835 387.389L105.621 390.66C105.621 390.66 105.914 390.031 106.478 388.982C109.512 383.216 120.497 364.366 134.265 363.255C142.635 362.584 152.448 369.105 160.085 375.605C164.566 379.437 168.762 383.593 172.639 388.039L173.622 386.613C175.568 383.866 179.9 378.1 182.389 377.597C183.09 377.428 183.822 377.444 184.515 377.643C185.208 377.841 185.838 378.215 186.344 378.729C186.587 378.981 186.798 379.263 186.972 379.568C186.972 379.568 187.913 375.018 189.985 368.224C193.291 357.531 199.4 341.302 209.172 328.511C216.767 318.51 226.601 310.605 239.009 309.116C258.008 306.872 273.658 318.342 284.622 330.503C290.799 337.433 296.169 345.044 300.629 353.19C301.612 355.015 302.136 356.084 302.136 356.084C306.642 354.72 311.321 354.014 316.029 353.987C320.245 353.887 324.419 354.854 328.165 356.797C338.208 362.458 350.699 384.537 351.557 386.047C351.557 386.047 356.767 382.797 359.927 382.797C363.086 382.797 367.752 387.347 367.752 387.347C375.798 380.279 384.267 373.711 393.112 367.679C404.431 360.068 417.341 353.002 426.966 352.771C445.693 352.205 466.888 374.934 472.015 380.784C472.789 381.644 473.186 382.147 473.186 382.147C478.54 380.902 483.971 380.026 489.444 379.526C494.005 379.526 524.596 387.913 524.596 387.913C525.322 383.49 526.335 379.12 527.63 374.829C533.677 354.05 550.646 314.673 593.581 303.79C635.115 293.306 668.634 321.235 684.955 338.869C688.84 343.015 692.446 347.414 695.751 352.037C697.287 349.963 699.213 348.211 701.422 346.879C706.673 343.545 715.922 340.589 730.254 344.782C736.134 346.565 742.62 352.456 746.052 355.916C747.558 357.447 748.479 358.474 748.479 358.474C748.704 350.862 749.827 343.303 751.827 335.955C757.915 313.247 775.052 282.382 823.323 288.714C878.645 295.927 903.732 346.313 913.064 372.061C914.952 377.073 916.545 382.191 917.835 387.389Z" fill="#110846"/>
<path fill-rule="evenodd" clip-rule="evenodd" d="M223.88 387.808C216.285 389.255 201.471 390.198 191.281 379.001C192.495 377.187 194.066 375.639 195.897 374.453C197.728 373.267 199.781 372.468 201.931 372.103C213.648 370.719 221.787 383.95 223.88 387.808Z" fill="url(#paint2_linear_9208_63839)"/>
<path fill-rule="evenodd" clip-rule="evenodd" d="M221.413 382.063C221.413 382.063 304.542 349.731 323.562 354.281C342.581 358.831 351.62 386.089 351.62 386.089L221.413 382.063Z" fill="url(#paint3_linear_9208_63839)"/>
<path fill-rule="evenodd" clip-rule="evenodd" d="M160.085 375.604C143.504 384.196 125.145 388.778 106.479 388.981C109.512 383.215 120.497 364.365 134.265 363.254C142.676 362.583 152.448 369.104 160.085 375.604Z" fill="url(#paint4_linear_9208_63839)"/>
<path fill-rule="evenodd" clip-rule="evenodd" d="M186.363 378.729C185.966 380.323 183.309 389.318 173.579 387.221V386.613C175.525 383.866 179.856 378.1 182.346 377.597C183.056 377.417 183.801 377.427 184.506 377.625C185.211 377.824 185.851 378.205 186.363 378.729Z" fill="url(#paint5_linear_9208_63839)"/>
<path fill-rule="evenodd" clip-rule="evenodd" d="M284.642 330.502C267.296 344.446 237.271 361.619 190.004 368.244C193.31 357.551 199.42 341.322 209.191 328.531C216.787 318.53 226.621 310.625 239.028 309.136C258.027 306.872 273.678 318.425 284.642 330.502Z" fill="url(#paint6_linear_9208_63839)"/>
<path fill-rule="evenodd" clip-rule="evenodd" d="M44.4388 392.693L-549.793 391.686L-508.72 385.396C-508.72 385.396 -508.218 383.614 -507.234 380.783C-503.489 370.026 -492.713 343.88 -475.849 342.118C-458.984 340.357 -448.334 353.525 -444.463 359.207C-443.689 360.36 -443.208 361.178 -442.999 361.555V361.765C-444.051 349.147 -443.861 336.457 -442.434 323.876C-438.123 284.037 -420.108 225.495 -352.462 211.07C-262.218 191.821 -208.884 306.85 -195.828 339.12C-193.735 344.32 -192.668 347.381 -192.668 347.381C-192.481 339.955 -191.598 332.563 -190.032 325.302C-185.847 305.865 -175.385 280.2 -148.184 277.516C-107.32 273.47 -64.2805 361.849 -57.7314 375.897C-57.1455 377.113 -56.8526 377.784 -56.8526 377.784L44.4388 392.693Z" fill="#110846"/>
<path fill-rule="evenodd" clip-rule="evenodd" d="M-105.145 387.074C-105.145 387.074 -69.8677 378.351 -44.4664 378.896C-19.0651 379.441 22.4893 389.778 22.4893 389.778L-105.145 387.074Z" fill="url(#paint7_linear_9208_63839)"/>
<path fill-rule="evenodd" clip-rule="evenodd" d="M304.418 667.811L297.325 667.287L289.437 666.868L259.934 665.253L127.822 656.111L128.68 542.99L128.848 395.796L177.579 394.873L177.641 417.078L213.923 418.483L214.655 301.609L223.966 298.527L224.029 295.193L235.684 290.496L243.76 292.404L243.739 295.717L244.848 295.906L256.461 297.73L258.03 442.491L258.47 442.512L266.148 442.722L264.286 342.936V342.831L264.098 332.872L296.885 332.117L297.743 332.096L303.455 337.254L304.418 667.811Z" fill="url(#paint8_linear_9208_63839)"/>
<path fill-rule="evenodd" clip-rule="evenodd" d="M304.395 666.992L297.302 666.468L296.883 331.319L297.72 331.298L303.453 336.435L304.395 666.992Z" fill="url(#paint9_linear_9208_63839)"/>
<path fill-rule="evenodd" clip-rule="evenodd" d="M243.716 294.899L244.825 295.087L235.598 294.689L235.66 289.699L243.758 291.586L243.716 294.899Z" fill="url(#paint10_linear_9208_63839)"/>
<path fill-rule="evenodd" clip-rule="evenodd" d="M258.699 615.853L248.174 622.227L244.826 295.088L256.439 296.912L258.029 441.695L258.51 441.716L258.699 615.853Z" fill="url(#paint11_linear_9208_63839)"/>
<path fill-rule="evenodd" clip-rule="evenodd" d="M177.638 417.078L173.391 660.598L184.71 659.843L186.97 417.749L177.638 417.078Z" fill="url(#paint12_linear_9208_63839)"/>
<path fill-rule="evenodd" clip-rule="evenodd" d="M429.329 534.916L422.215 534.685L414.348 534.518L384.825 533.826L252.734 529.926L253.571 481.742L253.738 419.027L302.469 418.608L302.553 428.085L338.835 428.672L339.567 378.874L348.878 377.574L348.941 376.148L360.595 374.156L368.672 374.953L368.63 376.379L369.76 376.462L381.372 377.238L382.942 438.926H383.381L391.039 439.009L389.198 396.487V396.445L389.01 392.188L421.797 391.874H422.655L428.367 394.075L429.329 534.916Z" fill="url(#paint13_linear_9208_63839)"/>
<path fill-rule="evenodd" clip-rule="evenodd" d="M368.612 376.022L369.741 376.106L360.514 375.939L360.577 373.8L368.653 374.618L368.612 376.022Z" fill="url(#paint14_linear_9208_63839)"/>
<path fill-rule="evenodd" clip-rule="evenodd" d="M383.611 512.775L373.086 515.501L369.738 376.107L381.33 376.883L382.92 438.57L383.422 438.591L383.611 512.775Z" fill="url(#paint15_linear_9208_63839)"/>
<path fill-rule="evenodd" clip-rule="evenodd" d="M302.555 428.085L298.286 531.834L309.606 531.52L311.887 428.358L302.555 428.085Z" fill="url(#paint16_linear_9208_63839)"/>
<path d="M273.178 335.89H267.843V345.137H273.178V335.89Z" fill="url(#paint17_linear_9208_63839)"/>
<path d="M281.546 347.697H276.211V356.943H281.546V347.697Z" fill="url(#paint18_linear_9208_63839)"/>
<path d="M281.546 360.591H276.211V369.838H281.546V360.591Z" fill="url(#paint19_linear_9208_63839)"/>
<path d="M254.43 301.421H249.094V310.667H254.43V301.421Z" fill="url(#paint20_linear_9208_63839)"/>
<path d="M248.278 314.23H242.942V323.477H248.278V314.23Z" fill="url(#paint21_linear_9208_63839)"/>
<path d="M254.43 346.963H249.094V356.21H254.43V346.963Z" fill="url(#paint22_linear_9208_63839)"/>
<path d="M222.499 347.697H217.163V356.943H222.499V347.697Z" fill="url(#paint23_linear_9208_63839)"/>
<path d="M228.463 335.89H223.127V345.137H228.463V335.89Z" fill="url(#paint24_linear_9208_63839)"/>
<path d="M275.833 386.904H270.498V396.151H275.833V386.904Z" fill="url(#paint25_linear_9208_63839)"/>
<path d="M284.203 386.904H278.867V396.151H284.203V386.904Z" fill="url(#paint26_linear_9208_63839)"/>
<path d="M348.837 385.479H343.502V394.725H348.837V385.479Z" fill="url(#paint27_linear_9208_63839)"/>
<path d="M355.428 399.213H350.092V408.46H355.428V399.213Z" fill="url(#paint28_linear_9208_63839)"/>
<path style="mix-blend-mode:screen" opacity="0.79" d="M281.547 391.163C298.395 391.163 312.053 377.476 312.053 360.592C312.053 343.708 298.395 330.021 281.547 330.021C264.698 330.021 251.04 343.708 251.04 360.592C251.04 377.476 264.698 391.163 281.547 391.163Z" fill="url(#paint29_radial_9208_63839)"/>
<path style="mix-blend-mode:screen" opacity="0.79" d="M348.837 429.786C365.685 429.786 379.343 416.098 379.343 399.215C379.343 382.331 365.685 368.644 348.837 368.644C331.988 368.644 318.33 382.331 318.33 399.215C318.33 416.098 331.988 429.786 348.837 429.786Z" fill="url(#paint30_radial_9208_63839)"/>
<path fill-rule="evenodd" clip-rule="evenodd" d="M-108.554 603.839L-101.44 603.315L-93.5728 602.895L-64.0495 601.281L68.0415 592.139L67.2045 479.018L67.0372 331.845L18.3059 330.901L18.2223 353.106L-18.0594 354.511L-19.2938 280.327L-28.0399 275.337L-28.1027 272.024L-40.2803 268.417L-48.3778 270.304L-48.3568 274.435L-49.4657 274.624L-61.0784 276.448L-62.1664 378.54L-62.6058 378.561L-70.2638 378.771L-68.7993 257.724V257.64L-68.6109 247.659L-101.398 246.925L-102.256 246.904L-107.968 252.041L-108.554 603.839Z" fill="url(#paint31_linear_9208_63839)"/>
<path fill-rule="evenodd" clip-rule="evenodd" d="M18.2221 353.106L22.4905 596.626L11.1709 595.872L8.89014 353.777L18.2221 353.106Z" fill="url(#paint32_linear_9208_63839)"/>
<path style="mix-blend-mode:screen" d="M1207.69 366.505H-884.676V543.18H1207.69V366.505Z" fill="url(#paint33_linear_9208_63839)"/>
<path fill-rule="evenodd" clip-rule="evenodd" d="M139.892 427.016C100.43 428.302 62.6768 429.302 26.6323 430.015C-276.635 436.095 -462.5 423.515 -561.929 412.632C-555.694 412.632 -549.633 412.548 -543.747 412.381C-475.494 410.829 -432.851 403.532 -411.928 406.489C-393.912 409.026 -394.561 413.115 -399.08 416.386C-402.448 418.509 -406.068 420.199 -409.856 421.418C-409.856 421.418 -384.894 418.923 -352.776 416.176C-300.928 411.752 -230.436 406.657 -216.187 410.368C-208.319 412.293 -200.866 415.64 -194.196 420.244C-190.983 422.377 -188.183 425.077 -185.931 428.211C-185.931 428.211 -181.474 386.087 -150.131 378.874C-146.438 378.053 -142.654 377.715 -138.874 377.868C-106.672 379.042 -85.121 408.229 -77.0444 421.355C-74.6591 425.171 -73.4665 427.645 -73.4665 427.645C-73.4274 424.222 -72.5738 420.858 -70.9765 417.832C-69.8819 415.832 -68.166 414.244 -66.0891 413.309C-64.0123 412.374 -61.6878 412.144 -59.4685 412.653C-55.3342 413.318 -51.4121 414.942 -48.0154 417.396C-44.6187 419.85 -41.8413 423.065 -39.905 426.786C-39.8173 426.934 -39.7404 427.088 -39.6747 427.247L-31.1379 426.576C-14.0015 425.276 23.5774 422.634 30.838 423.934C38.0984 425.234 111.08 426.534 139.892 427.016Z" fill="#110846"/>
<path fill-rule="evenodd" clip-rule="evenodd" d="M139.894 427.018C100.432 428.304 62.6791 429.304 26.6346 430.017C-8.93563 429.891 -41.9741 429.618 -41.158 428.905C-37.892 427.727 -34.5007 426.932 -31.0519 426.536C-13.9155 425.236 23.6634 422.594 30.9239 423.894C38.1844 425.194 111.082 426.536 139.894 427.018Z" fill="url(#paint34_linear_9208_63839)"/>
<path opacity="0.5" fill-rule="evenodd" clip-rule="evenodd" d="M71.3057 176.411C71.3057 176.411 -3.20342 181.632 -91.2083 155.044L-123.598 141.059C-114.353 138.552 -104.858 137.082 -95.2884 136.677C-82.7343 136.488 -75.4737 151.081 -74.6577 152.78V152.948C-69.7393 150.009 -64.597 147.464 -59.2788 145.336C-44.0255 139.046 -19.1054 131.917 7.90703 137.306C38.2882 143.323 51.8467 161.502 57.2241 172.196C59.7559 176.998 71.3057 176.411 71.3057 176.411Z" fill="url(#paint35_linear_9208_63839)"/>
<path fill-rule="evenodd" clip-rule="evenodd" d="M332.599 176.43C333.247 179.471 333.498 181.546 333.498 181.546C333.498 181.546 299.874 194.127 289.433 187.313C290.918 181.073 293.021 174.997 295.71 169.175C299.644 160.893 305.482 152.779 313.328 152.087C325.526 150.996 330.715 167.729 332.599 176.43Z" fill="url(#paint36_linear_9208_63839)"/>
<path fill-rule="evenodd" clip-rule="evenodd" d="M251.625 186.58C254.514 187.943 257.729 188.46 260.898 188.07C264.067 187.681 267.062 186.401 269.536 184.378C269.536 184.378 267.276 172.028 261.878 172.783C256.48 173.538 251.625 186.58 251.625 186.58Z" fill="url(#paint37_linear_9208_63839)"/>
<path fill-rule="evenodd" clip-rule="evenodd" d="M330.989 170.519C324.335 176.39 301.696 192.304 290.376 182.303C294.561 169.722 303.181 148.377 311.048 147.685C323.142 146.594 329.064 161.817 330.989 170.519Z" fill="url(#paint38_linear_9208_63839)"/>
<path fill-rule="evenodd" clip-rule="evenodd" d="M383.885 163.723C383.885 170.244 384.136 174.584 384.136 174.584C384.136 174.584 443.162 169.531 474.819 159.907C474.819 159.907 468.94 150.43 456.448 133.781C444.982 118.412 429.708 104.133 413.304 105.957C387.944 108.746 384.178 145.104 383.885 163.723Z" fill="url(#paint39_linear_9208_63839)"/>
<path fill-rule="evenodd" clip-rule="evenodd" d="M383.885 163.725C401.608 163.263 437.115 158.923 456.532 133.699C445.066 118.329 429.792 104.05 413.388 105.874C387.944 108.747 384.178 145.105 383.885 163.725Z" fill="url(#paint40_linear_9208_63839)"/>
<path fill-rule="evenodd" clip-rule="evenodd" d="M59.7781 176.222C59.7781 176.222 -3.99718 177.543 -92.0021 150.934L-125.312 140.597C-125.312 140.597 -109.411 132.734 -96.0194 132.567C-83.4652 132.378 -76.2047 146.972 -75.3887 148.67V148.838C-70.4645 145.91 -65.3231 143.365 -60.0098 141.226C-44.7774 134.936 -19.8364 127.828 7.17604 133.196C37.5363 139.234 51.1157 157.393 56.4931 168.107C57.8677 170.69 58.9687 173.409 59.7781 176.222Z" fill="url(#paint41_linear_9208_63839)"/>
<path fill-rule="evenodd" clip-rule="evenodd" d="M71.3047 176.41C36.7388 177.396 -30.0076 165.926 -59.9912 141.226C-44.7588 134.936 -19.8178 127.828 7.17367 133.196C37.5548 139.213 65.8646 165.696 71.3047 176.41Z" fill="url(#paint42_linear_9208_63839)"/>
<path fill-rule="evenodd" clip-rule="evenodd" d="M389.576 480.548L153.139 477.339C153.139 477.339 206.578 446.097 230.306 434.188C239.7 429.449 249.137 426.199 256.9 426.325C287.49 426.828 329.588 449.264 352.73 463.102C363.066 469.393 389.576 480.548 389.576 480.548Z" fill="#110846"/>
<path fill-rule="evenodd" clip-rule="evenodd" d="M357.75 465.848L355.198 465.744C296.967 462.493 241.08 444.776 234.301 431.985C243.696 427.268 253.132 424.018 260.895 424.143C291.485 424.626 334.609 452.01 357.75 465.848Z" fill="url(#paint43_linear_9208_63839)"/>
<path fill-rule="evenodd" clip-rule="evenodd" d="M609.797 457.903C588.664 459.433 414.056 471.343 132.737 471.532C5.89819 471.532 -142.681 469.288 -308.752 462.579L-329.069 461.74C-355.697 460.608 -382.752 459.363 -410.231 458.008C-347.46 454.464 -330.722 451.34 -302.475 450.669C-279.312 450.103 -265.063 451.508 -256.338 453.562C-242.612 456.77 -242.549 461.614 -242.863 463.04C-242.194 460.943 -239.243 452.409 -234.828 449.809C-233.86 449.189 -232.7 448.943 -231.564 449.117C-229.299 449.398 -227.086 450.006 -224.994 450.92C-224.54 451.097 -224.137 451.386 -223.823 451.759C-214.602 441.776 -203.576 433.637 -191.328 427.772C-179.703 422.1 -166.858 419.398 -153.938 419.909C-132.823 421.014 -112.627 428.919 -96.3557 442.449C-94.0667 444.313 -91.9131 446.338 -89.9112 448.509C-89.9112 448.509 -88.7186 435.551 -73.8419 431.735L-72.7957 431.504C-64.5304 429.871 -55.9929 430.274 -47.9174 432.678C-46.9319 432.957 -45.9612 433.286 -45.0091 433.664C-45.0091 433.664 -43.4607 434.062 -30.6345 421.859C-20.0747 412.18 -7.57773 404.868 6.02374 400.409C24.4993 393.888 49.3566 389.569 82.6462 390.428C146.359 392.064 191.638 415.464 219.215 435.824C227.444 441.855 235.201 448.507 242.419 455.722C245.732 458.988 248.841 462.454 251.73 466.101C252.164 462.682 253.335 459.398 255.162 456.477C255.996 455.123 257.108 453.962 258.425 453.073C259.742 452.183 261.233 451.585 262.799 451.319C267.82 450.522 273.721 454.338 278.261 458.238C280.877 460.496 283.318 462.949 285.564 465.577C285.564 465.577 286.652 450.899 304.939 440.604C313.057 436.075 324.607 432.427 340.97 431.399C342.769 431.399 344.568 431.232 346.368 431.19C371.121 430.854 395.015 438.57 413.093 446.643C423.354 451.201 433.245 456.55 442.68 462.641L445.065 464.256C445.065 464.256 522.064 457.295 528.759 456.959C534.472 456.687 591.865 457.609 609.797 457.903Z" fill="#110846"/>
<path fill-rule="evenodd" clip-rule="evenodd" d="M242.461 455.744C214.214 476.418 103.884 469.646 64.3378 461.279C34.2496 454.989 -61.9155 425.634 6.04453 400.473C24.5201 393.952 49.3774 389.632 82.6669 390.492C146.379 392.128 191.658 415.528 219.236 435.887C227.47 441.904 235.235 448.542 242.461 455.744Z" fill="url(#paint44_linear_9208_63839)"/>
<path fill-rule="evenodd" clip-rule="evenodd" d="M137.318 471.489H132.652C5.81302 471.489 -142.766 469.246 -308.837 462.536L-107.133 466.918C-107.133 466.918 -161.032 454.841 -158.94 452.115C-103.011 449.305 -42.8972 466.184 -42.8972 466.184L-71.3325 463.941C-71.3325 463.941 -61.8331 466.981 -39.0891 468.134C-16.3451 469.287 -0.0874634 468.763 -0.0874634 468.763C-0.0874634 468.763 -10.3191 468.092 -29.5479 462.578C-48.7768 457.063 -56.1001 452.618 -56.1001 452.618C-56.1001 452.618 -54.9911 437.123 -23.0616 440.415C8.86789 443.707 76.7861 470.336 76.7861 470.336L137.318 471.489Z" fill="url(#paint45_linear_9208_63839)"/>
<path fill-rule="evenodd" clip-rule="evenodd" d="M442.723 462.661C410.249 468.197 335.112 462.661 326.743 460.565C317.913 458.468 287.908 437.269 346.411 431.21C371.164 430.874 395.058 438.59 413.136 446.663C423.397 451.221 433.288 456.57 442.723 462.661Z" fill="url(#paint46_linear_9208_63839)"/>
<path fill-rule="evenodd" clip-rule="evenodd" d="M278.22 458.048C272.717 458.971 262.674 459.893 255.204 456.287C256.04 454.934 257.153 453.775 258.47 452.886C259.786 451.997 261.276 451.398 262.841 451.129C267.8 450.332 273.701 454.148 278.22 458.048Z" fill="url(#paint47_linear_9208_63839)"/>
<path fill-rule="evenodd" clip-rule="evenodd" d="M1473.63 502.941C1440.59 504.472 1167.71 516.382 727.975 516.549C529.765 516.57 297.512 514.264 38.059 507.554L6.29693 506.695C-35.2993 505.59 -77.5581 504.339 -120.479 502.941C-22.2848 499.377 3.89067 496.274 47.914 495.582C84.112 495.036 106.375 496.42 119.996 498.475C141.464 501.704 141.547 506.548 141.066 507.974C142.112 505.877 146.737 497.343 153.62 494.743C155.225 494.096 156.965 493.859 158.684 494.051C162.167 494.306 165.616 494.91 168.978 495.854C169.639 496.006 170.264 496.283 170.82 496.672C186.385 486.053 203.522 477.958 221.601 472.685C240.516 466.887 260.249 464.224 280.02 464.801C324.127 466.227 355.115 479.478 369.992 487.362C373.48 489.17 376.849 491.201 380.077 493.443C380.077 493.443 381.939 480.485 405.185 476.669L406.818 476.417C419.758 474.771 432.876 475.167 445.694 477.591C448.602 478.136 450.255 478.556 450.255 478.556C450.255 478.556 452.661 478.975 472.706 466.772C485.03 459.265 503.255 451.34 529.974 445.301C558.849 438.759 597.704 434.46 649.72 435.32C749.296 436.935 820.06 460.356 863.142 480.715C875.642 486.549 887.747 493.196 899.381 500.614C904.463 503.781 909.354 507.247 914.028 510.993C914.801 507.316 916.669 503.96 919.384 501.369C922.659 498.341 926.866 496.522 931.311 496.211C939.178 495.414 948.405 499.23 955.478 503.13C959.453 505.304 963.27 507.757 966.902 510.469C966.902 510.469 968.597 495.791 997.179 485.496C1009.88 480.946 1027.92 477.319 1053.5 476.291C1056.31 476.186 1059.11 476.102 1061.87 476.082C1100.56 475.725 1137.91 483.462 1166.18 491.535C1181.87 495.97 1197.3 501.311 1212.38 507.533C1214.83 508.561 1216.12 509.148 1216.12 509.148C1216.12 509.148 1336.46 502.186 1346.94 501.851C1355.89 501.662 1445.59 502.585 1473.63 502.941Z" fill="#110846"/>
<path fill-rule="evenodd" clip-rule="evenodd" d="M45.5059 377.008L44.962 418.587L44.941 418.608L43.3299 542.612L43.016 567.5L42.8487 579.599L-31.5349 577.376L-34.2968 577.292L-52.605 576.726L-52.6888 567.5L-52.7098 565.131L-52.9608 534.518L-53.463 476.857L-54.3208 377.595L-49.7385 377.134L-46.9766 376.861L-38.6281 376.022L-31.7233 375.331L45.5059 377.008Z" fill="url(#paint48_linear_9208_63839)"/>
<path fill-rule="evenodd" clip-rule="evenodd" d="M41.2177 394.348L37.0748 572.49H35.6938L39.7322 395.417L29.647 395.312L29.6679 394.201L41.2177 394.348Z" fill="#1B1E85"/>
<path fill-rule="evenodd" clip-rule="evenodd" d="M39.7301 395.418L35.6917 572.491H27.4688L29.6449 395.313L39.7301 395.418Z" fill="#1B1E85"/>
<path fill-rule="evenodd" clip-rule="evenodd" d="M22.9923 394.119L19.7282 572.513H18.3263L21.4858 395.209L11.3169 395.104V393.993L22.9923 394.119Z" fill="#1B1E85"/>
<path fill-rule="evenodd" clip-rule="evenodd" d="M21.4866 395.208L18.3271 572.512L10.0205 572.533L11.3178 395.104L21.4866 395.208Z" fill="#1B1E85"/>
<path fill-rule="evenodd" clip-rule="evenodd" d="M4.58081 393.909L2.21643 572.555H0.793633L3.07437 394.999L-7.17827 394.894L-7.19922 393.762L4.58081 393.909Z" fill="#1B1E85"/>
<path opacity="0.4" fill-rule="evenodd" clip-rule="evenodd" d="M3.07305 395L0.792314 572.556L-7.57715 572.577L-7.17959 394.896L3.07305 395Z" fill="url(#paint49_linear_9208_63839)"/>
<path fill-rule="evenodd" clip-rule="evenodd" d="M0.187709 381.894L-3.01367 381.852V379.189L0.187709 379.231V381.894Z" fill="#1B1E85"/>
<path fill-rule="evenodd" clip-rule="evenodd" d="M18.4734 382.166L15.293 382.124L15.3139 379.461L18.4734 379.524V382.166Z" fill="#1B1E85"/>
<path fill-rule="evenodd" clip-rule="evenodd" d="M36.5722 382.439L33.4546 382.398L33.4754 379.756L36.614 379.798L36.5722 382.439Z" fill="#1B1E85"/>
<path fill-rule="evenodd" clip-rule="evenodd" d="M214.78 423.433L213.839 468.513V468.534L213.755 471.554L213.734 471.575L210.658 615.036L209.758 657.832L199.757 657.643L68.3564 655.253L63.1255 655.169L28.3504 654.519L25.0444 424.104L68.0216 421.504L214.78 423.433Z" fill="url(#paint50_linear_9208_63839)"/>
<path fill-rule="evenodd" clip-rule="evenodd" d="M68.3564 655.232V657.601L28.3504 655.924L28.3295 654.498L25.0444 424.083V424.041L68.0006 421.483L68.3564 655.232Z" fill="#1B1E85"/>
<path fill-rule="evenodd" clip-rule="evenodd" d="M206.473 443.791L198.606 649.883L195.97 649.904L203.628 445.049L184.503 444.902L184.524 443.623L206.473 443.791Z" fill="#1B1E85"/>
<path fill-rule="evenodd" clip-rule="evenodd" d="M203.627 445.049L195.969 649.904L180.339 649.925L184.503 444.902L203.627 445.049Z" fill="#1B1E85"/>
<path fill-rule="evenodd" clip-rule="evenodd" d="M171.843 443.539L165.629 649.925L162.971 649.946L168.998 444.797L149.664 444.671V443.371L171.843 443.539Z" fill="#1B1E85"/>
<path opacity="0.4" fill-rule="evenodd" clip-rule="evenodd" d="M168.998 444.797L162.972 649.946H147.196L149.665 444.671L168.998 444.797Z" fill="url(#paint51_linear_9208_63839)"/>
<path fill-rule="evenodd" clip-rule="evenodd" d="M136.859 443.288L132.339 649.967H129.661L133.993 444.546L114.471 444.42V443.12L136.859 443.288Z" fill="#1B1E85"/>
<path fill-rule="evenodd" clip-rule="evenodd" d="M133.993 444.546L129.662 649.967L113.718 649.988L114.471 444.42L133.993 444.546Z" fill="#1B1E85"/>
<path fill-rule="evenodd" clip-rule="evenodd" d="M101.54 443.036L98.7157 650.009H96.0165L98.6529 444.315L78.9428 444.169L78.9219 442.869L101.54 443.036Z" fill="#1B1E85"/>
<path fill-rule="evenodd" clip-rule="evenodd" d="M98.6534 444.315L96.017 650.009L79.9267 650.03L78.9434 444.168L98.6534 444.315Z" fill="#1B1E85"/>
<path fill-rule="evenodd" clip-rule="evenodd" d="M93.3809 429.072L87.2293 429.009L87.2085 425.906L93.3391 425.969L93.3809 429.072Z" fill="#1B1E85"/>
<path fill-rule="evenodd" clip-rule="evenodd" d="M128.489 429.384L122.4 429.343V426.239L128.489 426.302V429.384Z" fill="#1B1E85"/>
<path d="M157.176 426.522L157.148 429.604L163.174 429.659L163.202 426.577L157.176 426.522Z" fill="#1B1E85"/>
<path fill-rule="evenodd" clip-rule="evenodd" d="M197.661 430.038L191.719 429.975L191.761 426.913L197.724 426.976L197.661 430.038Z" fill="#1B1E85"/>
<path style="mix-blend-mode:overlay" opacity="0.2" d="M1207.69 -51.9082H-884.676V537.769H1207.69V-51.9082Z" fill="url(#paint52_radial_9208_63839)"/>
</g>
</g>
<rect opacity="0.83" width="390" height="488.918" fill="url(#paint53_linear_9208_63839)"/>
</g>
<defs>
<linearGradient id="paint0_linear_9208_63839" x1="162.24" y1="526.719" x2="162.24" y2="-43.0809" gradientUnits="userSpaceOnUse">
<stop stop-color="#7879F1"/>
<stop offset="0.26" stop-color="#A5A6F6"/>
<stop offset="0.61" stop-color="#5D5FEF"/>
<stop offset="1" stop-color="#1F2746"/>
</linearGradient>
<linearGradient id="paint1_linear_9208_63839" x1="156.444" y1="551.399" x2="172.412" y2="336.4" gradientUnits="userSpaceOnUse">
<stop stop-color="#000452"/>
<stop offset="1" stop-color="#0E2F73"/>
</linearGradient>
<linearGradient id="paint2_linear_9208_63839" x1="239.342" y1="448.845" x2="196.429" y2="360.788" gradientUnits="userSpaceOnUse">
<stop stop-color="#000452"/>
<stop offset="1" stop-color="#0E2F73"/>
</linearGradient>
<linearGradient id="paint3_linear_9208_63839" x1="283.116" y1="546.22" x2="288.096" y2="310.018" gradientUnits="userSpaceOnUse">
<stop stop-color="#000452"/>
<stop offset="1" stop-color="#0E2F73"/>
</linearGradient>
<linearGradient id="paint4_linear_9208_63839" x1="137.948" y1="404.602" x2="130.742" y2="370.242" gradientUnits="userSpaceOnUse">
<stop stop-color="#000452"/>
<stop offset="1" stop-color="#0E2F73"/>
</linearGradient>
<linearGradient id="paint5_linear_9208_63839" x1="182.367" y1="394.476" x2="179.489" y2="380.765" gradientUnits="userSpaceOnUse">
<stop stop-color="#000452"/>
<stop offset="1" stop-color="#0E2F73"/>
</linearGradient>
<linearGradient id="paint6_linear_9208_63839" x1="327.243" y1="443.078" x2="207.318" y2="318.594" gradientUnits="userSpaceOnUse">
<stop stop-color="#000452"/>
<stop offset="1" stop-color="#0E2F73"/>
</linearGradient>
<linearGradient id="paint7_linear_9208_63839" x1="-55.5978" y1="502.732" x2="-34.3139" y2="332.862" gradientUnits="userSpaceOnUse">
<stop stop-color="#000452"/>
<stop offset="1" stop-color="#0E2F73"/>
</linearGradient>
<linearGradient id="paint8_linear_9208_63839" x1="216.12" y1="667.811" x2="216.12" y2="290.496" gradientUnits="userSpaceOnUse">
<stop stop-color="#0D30A3"/>
<stop offset="1" stop-color="#171B80"/>
</linearGradient>
<linearGradient id="paint9_linear_9208_63839" x1="300.629" y1="666.992" x2="300.629" y2="331.298" gradientUnits="userSpaceOnUse">
<stop stop-color="#0D30A3"/>
<stop offset="1" stop-color="#171B80"/>
</linearGradient>
<linearGradient id="paint10_linear_9208_63839" x1="240.222" y1="295.087" x2="240.222" y2="289.699" gradientUnits="userSpaceOnUse">
<stop stop-color="#0D30A3"/>
<stop offset="1" stop-color="#171B80"/>
</linearGradient>
<linearGradient id="paint11_linear_9208_63839" x1="251.773" y1="622.227" x2="251.773" y2="295.088" gradientUnits="userSpaceOnUse">
<stop stop-color="#0D30A3"/>
<stop offset="1" stop-color="#171B80"/>
</linearGradient>
<linearGradient id="paint12_linear_9208_63839" x1="180.17" y1="660.598" x2="180.17" y2="417.078" gradientUnits="userSpaceOnUse">
<stop stop-color="#0D30A3"/>
<stop offset="1" stop-color="#171B80"/>
</linearGradient>
<linearGradient id="paint13_linear_9208_63839" x1="341.032" y1="534.916" x2="341.032" y2="374.156" gradientUnits="userSpaceOnUse">
<stop stop-color="#0D30A3"/>
<stop offset="1" stop-color="#171B80"/>
</linearGradient>
<linearGradient id="paint14_linear_9208_63839" x1="365.117" y1="376.106" x2="365.117" y2="373.8" gradientUnits="userSpaceOnUse">
<stop stop-color="#0D30A3"/>
<stop offset="1" stop-color="#171B80"/>
</linearGradient>
<linearGradient id="paint15_linear_9208_63839" x1="376.664" y1="515.501" x2="376.664" y2="376.107" gradientUnits="userSpaceOnUse">
<stop stop-color="#0D30A3"/>
<stop offset="1" stop-color="#171B80"/>
</linearGradient>
<linearGradient id="paint16_linear_9208_63839" x1="305.086" y1="531.834" x2="305.086" y2="428.085" gradientUnits="userSpaceOnUse">
<stop stop-color="#0D30A3"/>
<stop offset="1" stop-color="#171B80"/>
</linearGradient>
<linearGradient id="paint17_linear_9208_63839" x1="270.5" y1="345.137" x2="270.5" y2="335.89" gradientUnits="userSpaceOnUse">
<stop stop-color="#FFD05A"/>
<stop offset="1" stop-color="#FFEE00"/>
</linearGradient>
<linearGradient id="paint18_linear_9208_63839" x1="278.868" y1="356.943" x2="278.868" y2="347.697" gradientUnits="userSpaceOnUse">
<stop stop-color="#FFD05A"/>
<stop offset="1" stop-color="#FFEE00"/>
</linearGradient>
<linearGradient id="paint19_linear_9208_63839" x1="278.868" y1="369.838" x2="278.868" y2="360.591" gradientUnits="userSpaceOnUse">
<stop stop-color="#FFD05A"/>
<stop offset="1" stop-color="#FFEE00"/>
</linearGradient>
<linearGradient id="paint20_linear_9208_63839" x1="251.772" y1="310.646" x2="251.772" y2="301.421" gradientUnits="userSpaceOnUse">
<stop stop-color="#FFD05A"/>
<stop offset="1" stop-color="#FFEE00"/>
</linearGradient>
<linearGradient id="paint21_linear_9208_63839" x1="245.6" y1="323.456" x2="245.6" y2="314.23" gradientUnits="userSpaceOnUse">
<stop stop-color="#FFD05A"/>
<stop offset="1" stop-color="#FFEE00"/>
</linearGradient>
<linearGradient id="paint22_linear_9208_63839" x1="251.772" y1="356.21" x2="251.772" y2="346.963" gradientUnits="userSpaceOnUse">
<stop stop-color="#FFD05A"/>
<stop offset="1" stop-color="#FFEE00"/>
</linearGradient>
<linearGradient id="paint23_linear_9208_63839" x1="219.841" y1="356.943" x2="219.841" y2="347.697" gradientUnits="userSpaceOnUse">
<stop stop-color="#FFD05A"/>
<stop offset="1" stop-color="#FFEE00"/>
</linearGradient>
<linearGradient id="paint24_linear_9208_63839" x1="225.785" y1="345.137" x2="225.785" y2="335.89" gradientUnits="userSpaceOnUse">
<stop stop-color="#FFD05A"/>
<stop offset="1" stop-color="#FFEE00"/>
</linearGradient>
<linearGradient id="paint25_linear_9208_63839" x1="273.176" y1="396.151" x2="273.176" y2="386.904" gradientUnits="userSpaceOnUse">
<stop stop-color="#FFD05A"/>
<stop offset="1" stop-color="#FFEE00"/>
</linearGradient>
<linearGradient id="paint26_linear_9208_63839" x1="281.545" y1="396.151" x2="281.545" y2="386.904" gradientUnits="userSpaceOnUse">
<stop stop-color="#FFD05A"/>
<stop offset="1" stop-color="#FFEE00"/>
</linearGradient>
<linearGradient id="paint27_linear_9208_63839" x1="346.18" y1="394.725" x2="346.18" y2="385.479" gradientUnits="userSpaceOnUse">
<stop stop-color="#FFD05A"/>
<stop offset="1" stop-color="#FFEE00"/>
</linearGradient>
<linearGradient id="paint28_linear_9208_63839" x1="352.771" y1="408.46" x2="352.771" y2="399.213" gradientUnits="userSpaceOnUse">
<stop stop-color="#FFD05A"/>
<stop offset="1" stop-color="#FFEE00"/>
</linearGradient>
<radialGradient id="paint29_radial_9208_63839" cx="0" cy="0" r="1" gradientUnits="userSpaceOnUse" gradientTransform="translate(281.547 360.592) scale(30.5067 30.571)">
<stop stop-color="#FF9E54"/>
<stop offset="0.14" stop-color="#CF8044"/>
<stop offset="0.38" stop-color="#87532C"/>
<stop offset="0.59" stop-color="#4D3019"/>
<stop offset="0.77" stop-color="#23160C"/>
<stop offset="0.92" stop-color="#090603"/>
<stop offset="1"/>
</radialGradient>
<radialGradient id="paint30_radial_9208_63839" cx="0" cy="0" r="1" gradientUnits="userSpaceOnUse" gradientTransform="translate(348.837 399.215) scale(30.5067 30.571)">
<stop stop-color="#FF9E54"/>
<stop offset="0.14" stop-color="#CF8044"/>
<stop offset="0.38" stop-color="#87532C"/>
<stop offset="0.59" stop-color="#4D3019"/>
<stop offset="0.77" stop-color="#23160C"/>
<stop offset="0.92" stop-color="#090603"/>
<stop offset="1"/>
</radialGradient>
<linearGradient id="paint31_linear_9208_63839" x1="-20.2564" y1="603.839" x2="-20.2564" y2="246.904" gradientUnits="userSpaceOnUse">
<stop stop-color="#0D30A3"/>
<stop offset="1" stop-color="#171B80"/>
</linearGradient>
<linearGradient id="paint32_linear_9208_63839" x1="15.6903" y1="596.626" x2="15.6903" y2="353.106" gradientUnits="userSpaceOnUse">
<stop stop-color="#0D30A3"/>
<stop offset="1" stop-color="#171B80"/>
</linearGradient>
<linearGradient id="paint33_linear_9208_63839" x1="159.268" y1="368.434" x2="162.798" y2="503.844" gradientUnits="userSpaceOnUse">
<stop/>
<stop offset="0.34" stop-color="#611A56"/>
<stop offset="0.67" stop-color="#B531A1"/>
<stop offset="0.89" stop-color="#E940CF"/>
<stop offset="1" stop-color="#FD45E1"/>
</linearGradient>
<linearGradient id="paint34_linear_9208_63839" x1="26.8141" y1="476.926" x2="32.2647" y2="415.941" gradientUnits="userSpaceOnUse">
<stop stop-color="#000452"/>
<stop offset="1" stop-color="#0E2F73"/>
</linearGradient>
<linearGradient id="paint35_linear_9208_63839" x1="-26.3535" y1="30.2156" x2="-26.0703" y2="226.783" gradientUnits="userSpaceOnUse">
<stop stop-color="#4875FF"/>
<stop offset="0.07" stop-color="#4F85FF"/>
<stop offset="0.22" stop-color="#5CA2FF"/>
<stop offset="0.38" stop-color="#65B9FF"/>
<stop offset="0.55" stop-color="#6DC9FF"/>
<stop offset="0.75" stop-color="#71D3FF"/>
<stop offset="1" stop-color="#72D6FF"/>
</linearGradient>
<linearGradient id="paint36_linear_9208_63839" x1="380.472" y1="216.416" x2="279.925" y2="155.567" gradientUnits="userSpaceOnUse">
<stop stop-color="#000452"/>
<stop offset="1" stop-color="#0E2F73"/>
</linearGradient>
<linearGradient id="paint37_linear_9208_63839" x1="261.857" y1="213.23" x2="261.059" y2="195.827" gradientUnits="userSpaceOnUse">
<stop stop-color="#000452"/>
<stop offset="1" stop-color="#0E2F73"/>
</linearGradient>
<linearGradient id="paint38_linear_9208_63839" x1="378.695" y1="189.075" x2="303.865" y2="166.141" gradientUnits="userSpaceOnUse">
<stop stop-color="#000452"/>
<stop offset="1" stop-color="#0E2F73"/>
</linearGradient>
<linearGradient id="paint39_linear_9208_63839" x1="514.849" y1="391.621" x2="327.105" y2="-99.3782" gradientUnits="userSpaceOnUse">
<stop stop-color="#000452"/>
<stop offset="1" stop-color="#0E2F73"/>
</linearGradient>
<linearGradient id="paint40_linear_9208_63839" x1="480.385" y1="191.276" x2="398.701" y2="130.048" gradientUnits="userSpaceOnUse">
<stop stop-color="#000452"/>
<stop offset="1" stop-color="#0E2F73"/>
</linearGradient>
<linearGradient id="paint41_linear_9208_63839" x1="-44.2579" y1="53.3866" x2="-20.9012" y2="266.251" gradientUnits="userSpaceOnUse">
<stop stop-color="#000452"/>
<stop offset="1" stop-color="#0E2F73"/>
</linearGradient>
<linearGradient id="paint42_linear_9208_63839" x1="-83.1913" y1="248.231" x2="30.1478" y2="134.665" gradientUnits="userSpaceOnUse">
<stop stop-color="#000452"/>
<stop offset="1" stop-color="#0E2F73"/>
</linearGradient>
<linearGradient id="paint43_linear_9208_63839" x1="282.823" y1="528.836" x2="300.702" y2="421.073" gradientUnits="userSpaceOnUse">
<stop stop-color="#000452"/>
<stop offset="1" stop-color="#0E2F73"/>
</linearGradient>
<linearGradient id="paint44_linear_9208_63839" x1="87.4585" y1="536.994" x2="120.355" y2="405.684" gradientUnits="userSpaceOnUse">
<stop stop-color="#000452"/>
<stop offset="1" stop-color="#0E2F73"/>
</linearGradient>
<linearGradient id="paint45_linear_9208_63839" x1="-104.455" y1="557.583" x2="-73.8875" y2="410.394" gradientUnits="userSpaceOnUse">
<stop stop-color="#000452"/>
<stop offset="1" stop-color="#0E2F73"/>
</linearGradient>
<linearGradient id="paint46_linear_9208_63839" x1="340.636" y1="586.183" x2="385.672" y2="422.766" gradientUnits="userSpaceOnUse">
<stop stop-color="#000452"/>
<stop offset="1" stop-color="#0E2F73"/>
</linearGradient>
<linearGradient id="paint47_linear_9208_63839" x1="268.135" y1="509.272" x2="265.992" y2="433.243" gradientUnits="userSpaceOnUse">
<stop stop-color="#000452"/>
<stop offset="1" stop-color="#0E2F73"/>
</linearGradient>
<linearGradient id="paint48_linear_9208_63839" x1="-3.83206" y1="327.524" x2="-6.45856" y2="556.115" gradientUnits="userSpaceOnUse">
<stop stop-color="#4B1ED9"/>
<stop offset="0.88" stop-color="#3B3FD0"/>
<stop offset="1" stop-color="#3844CF"/>
</linearGradient>
<linearGradient id="paint49_linear_9208_63839" x1="-7.57715" y1="483.736" x2="3.07305" y2="483.736" gradientUnits="userSpaceOnUse">
<stop stop-color="#FFD05A"/>
<stop offset="1" stop-color="#FFEE00"/>
</linearGradient>
<linearGradient id="paint50_linear_9208_63839" x1="120.561" y1="366.589" x2="117.535" y2="630.322" gradientUnits="userSpaceOnUse">
<stop stop-color="#4B1ED9"/>
<stop offset="0.88" stop-color="#3B3FD0"/>
<stop offset="1" stop-color="#3844CF"/>
</linearGradient>
<linearGradient id="paint51_linear_9208_63839" x1="147.196" y1="547.308" x2="168.998" y2="547.308" gradientUnits="userSpaceOnUse">
<stop stop-color="#FFD05A"/>
<stop offset="1" stop-color="#FFEE00"/>
</linearGradient>
<radialGradient id="paint52_radial_9208_63839" cx="0" cy="0" r="1" gradientUnits="userSpaceOnUse" gradientTransform="translate(199.117 234.784) scale(614.784 375.659)">
<stop stop-color="#FDD300"/>
<stop offset="0.14" stop-color="#E4A90B"/>
<stop offset="0.37" stop-color="#C06E1B"/>
<stop offset="0.57" stop-color="#A43E27"/>
<stop offset="0.75" stop-color="#901C30"/>
<stop offset="0.9" stop-color="#830836"/>
<stop offset="1" stop-color="#7F0038"/>
</radialGradient>
<linearGradient id="paint53_linear_9208_63839" x1="195" y1="-20.0012" x2="195" y2="436.693" gradientUnits="userSpaceOnUse">
<stop stop-color="#7879F1"/>
<stop offset="1" stop-color="#1B1C32"/>
</linearGradient>
<clipPath id="clip0_9208_63839">
<rect width="390" height="452" fill="white"/>
</clipPath>
</defs>
</svg>
