<svg width="61" height="37" viewBox="0 0 61 37" fill="none" xmlns="http://www.w3.org/2000/svg">
<path fill-rule="evenodd" clip-rule="evenodd" d="M30.5186 31.8152C33.6661 34.7153 37.8928 36.4744 42.4903 36.4744C52.3641 36.4744 60.3557 28.4212 60.3557 18.5161C60.3557 8.581 52.3641 0.527344 42.4903 0.527344C37.8928 0.527344 33.6661 2.2861 30.5186 5.1866C26.9085 8.48803 24.625 13.2399 24.625 18.5161C24.6254 23.7924 26.9085 28.5446 30.5186 31.8152Z" fill="#E9B040"/>
<path fill-rule="evenodd" clip-rule="evenodd" d="M57.9766 28.5123C57.9766 28.2036 58.2235 27.957 58.5318 27.957C58.871 27.957 59.1176 28.204 59.1176 28.5123C59.1176 28.8522 58.8706 29.0988 58.5318 29.0988C58.2235 29.0988 57.9766 28.8522 57.9766 28.5123ZM58.5318 28.9757C58.7788 28.9757 58.9941 28.7592 58.9941 28.5127C58.9941 28.2661 58.7784 28.0809 58.5318 28.0809C58.3154 28.0809 58.1 28.2661 58.1 28.5127C58.1 28.7592 58.3158 28.9757 58.5318 28.9757ZM58.4701 28.7905H58.3466V28.2657H58.5623C58.5936 28.2657 58.6553 28.2657 58.6858 28.2969C58.7475 28.3274 58.7475 28.3587 58.7475 28.4204C58.7475 28.4822 58.717 28.5439 58.6553 28.5439L58.7788 28.7908H58.6241L58.5623 28.5744H58.4701V28.7905V28.4818H58.5936C58.6241 28.4818 58.6241 28.4506 58.6241 28.4201C58.6241 28.3888 58.6241 28.3888 58.5936 28.3583H58.4701V28.7905Z" fill="#E9B040"/>
<path fill-rule="evenodd" clip-rule="evenodd" d="M36.2865 16.6034C36.2248 15.9556 36.1013 15.3386 35.9778 14.6903H25.0549C25.1784 14.0425 25.3636 13.4255 25.5484 12.8081H35.4534C35.2384 12.1585 34.9913 11.5201 34.713 10.895H26.3201C26.6288 10.2414 26.9686 9.60301 27.3384 8.98192H33.6642C33.2572 8.32293 32.8035 7.69392 32.3067 7.0997H28.6962C29.2547 6.41767 29.8632 5.7782 30.5167 5.1866C27.3388 2.31696 23.1422 0.527344 18.5138 0.527344C8.67086 0.527344 0.648438 8.581 0.648438 18.5161C0.648438 28.4212 8.67086 36.4744 18.5138 36.4744C23.1422 36.4744 27.3384 34.7153 30.5167 31.8152C31.1602 31.2339 31.7586 30.6046 32.3067 29.9326H28.6962C28.2023 29.3156 27.7705 28.6986 27.3384 28.0195H33.6642C34.0619 27.4094 34.4127 26.7698 34.7133 26.1064H26.3201C26.0423 25.4894 25.7649 24.8724 25.5484 24.2238H35.4534C35.6691 23.6068 35.8238 22.9593 35.9775 22.3107C36.1009 21.6937 36.2244 21.0462 36.2861 20.3976C36.3487 19.7721 36.3797 19.1437 36.3791 18.5151C36.3791 17.8683 36.3482 17.2204 36.2865 16.6034Z" fill="#CC2131"/>
<path fill-rule="evenodd" clip-rule="evenodd" d="M57.9766 22.6795C57.9766 22.3403 58.2235 22.0938 58.5318 22.0938C58.871 22.0938 59.1176 22.3407 59.1176 22.6795C59.1176 22.9882 58.8706 23.266 58.5318 23.266C58.2235 23.266 57.9766 22.9878 57.9766 22.6795ZM58.5318 23.1113C58.7788 23.1113 58.9941 22.9261 58.9941 22.6795C58.9941 22.4329 58.7784 22.2477 58.5318 22.2477C58.3154 22.2477 58.1 22.4329 58.1 22.6795C58.1 22.9261 58.3158 23.1113 58.5318 23.1113ZM58.4701 22.9261H58.3466V22.4326H58.6858C58.7475 22.4638 58.7475 22.5255 58.7475 22.5873C58.7475 22.6178 58.717 22.6795 58.6553 22.7107L58.7788 22.9265H58.6241L58.5623 22.7413H58.4701V22.9261V22.6486H58.5318C58.5623 22.6486 58.5936 22.6486 58.5936 22.6174C58.6241 22.6174 58.6241 22.5869 58.6241 22.5557C58.6241 22.5557 58.6241 22.5252 58.5936 22.5252C58.5936 22.4939 58.5623 22.5252 58.5318 22.5252H58.4701V22.9261Z" fill="white"/>
<path fill-rule="evenodd" clip-rule="evenodd" d="M24.4371 23.6989C23.851 23.8529 23.4188 23.9459 22.9871 23.9459C22.0614 23.9459 21.5057 23.3594 21.5057 22.3102C21.5057 22.0945 21.5366 21.8784 21.5675 21.6315L21.691 20.9223L21.7836 20.3358L22.6166 15.2756H24.468L24.2519 16.3865H25.4245L25.1467 18.2378H23.9741L23.4806 21.2614C23.4497 21.4161 23.4497 21.5084 23.4497 21.5701C23.4497 21.9714 23.6349 22.1254 24.0976 22.1254C24.3137 22.1254 24.4985 22.0949 24.6837 22.0637L24.4371 23.6989ZM30.4233 23.6372C29.7446 23.8224 29.1276 23.9146 28.4485 23.9146C26.3502 23.9146 25.1467 22.8038 25.1467 20.6136C25.1467 18.0523 26.5663 16.2009 28.5408 16.2009C30.1143 16.2009 31.1326 17.2501 31.1326 18.885C31.1326 19.441 31.0708 19.9654 30.9169 20.7058H27.0598C27.0289 20.8293 27.0289 20.891 27.0289 20.9528C27.0289 21.8167 27.6151 22.2485 28.726 22.2485C29.4356 22.2485 30.0526 22.0945 30.7317 21.7862L30.4233 23.6372ZM29.2816 19.2249V18.8545C29.2816 18.2375 28.942 17.8979 28.3559 17.8979C27.7386 17.8979 27.3068 18.3606 27.1216 19.2245L29.2816 19.2249ZM9.62628 23.7912H7.71318L8.82407 16.7874L6.32485 23.7912H4.99825L4.84391 16.8183L3.67129 23.7912H1.78906L3.30087 14.6891H6.10877L6.17051 20.3053L8.05273 14.6891H11.1384L9.62628 23.7912ZM14.2859 20.4901C14.1007 20.4589 14.039 20.4589 13.9155 20.4589C12.8046 20.4589 12.2493 20.8907 12.2493 21.5698C12.2493 22.0328 12.5271 22.3415 12.9589 22.3415C13.8846 22.3415 14.2547 21.5698 14.2859 20.4901ZM15.8286 23.7912H14.1624L14.1933 23.0202C13.7611 23.606 13.175 23.9146 12.1567 23.9146C11.2311 23.9146 10.4288 23.0819 10.4288 21.8784C10.4288 21.5393 10.4906 21.2309 10.5832 20.9223C10.8915 19.7801 12.0333 19.0709 13.792 19.0397C14.0081 19.0397 14.3473 19.0397 14.656 19.0709C14.7173 18.824 14.7173 18.731 14.7173 18.577C14.7173 18.0831 14.3164 17.9288 13.4216 17.9288C12.8663 17.9288 12.249 18.0214 11.8172 18.1757L11.5394 18.2375L11.4159 18.268L11.6937 16.6018C12.5885 16.324 13.2364 16.2009 13.9463 16.2009C15.6125 16.2009 16.5073 16.9722 16.5073 18.3914C16.5073 18.7619 16.5382 19.0397 16.4147 19.8419L15.9829 22.4954L15.9212 22.9585L15.8903 23.3289L15.8594 23.5758L15.8286 23.7912ZM39.7419 16.4478C40.2971 16.4478 40.791 16.6022 41.4697 16.9414L41.8089 14.9665C41.6237 14.8739 41.562 14.8739 41.3154 14.7813L40.5444 14.5653C40.2975 14.5035 39.9892 14.4727 39.6493 14.4727C38.6923 14.4727 38.1371 14.5035 37.5513 14.8431C37.2426 15.0591 36.8414 15.337 36.4092 15.8305L36.1623 15.7688L34.1874 17.1571L34.2804 16.3857H32.2435L31.0407 23.7908H32.985L33.6943 19.811C33.6943 19.811 33.9724 19.255 34.0956 19.0705C34.466 18.6075 34.7743 18.6075 35.1752 18.6075H35.3299C35.2651 19.0778 35.2341 19.552 35.2369 20.0267C35.2369 22.4333 36.5944 23.9455 38.6927 23.9455C39.2175 23.9455 39.6809 23.8838 40.3901 23.6986L40.73 21.6006C40.113 21.9398 39.5574 22.0942 39.0944 22.0942C37.953 22.0942 37.2735 21.2302 37.2735 19.8727C37.2728 17.867 38.2914 16.4478 39.7419 16.4478ZM56.1255 14.6891L55.6941 17.2809C55.2311 16.5713 54.6755 16.2318 53.935 16.2318C52.9163 16.2318 51.9602 16.8179 51.3737 17.9288V17.8983L50.1397 17.1574L50.2631 16.3861H48.1957L47.0231 23.7912H48.9362L49.5844 19.8114C49.5844 19.8114 50.0779 19.2554 50.2014 19.0709C50.5101 18.7005 50.8184 18.6384 51.0653 18.6079C50.8496 19.2249 50.7262 19.9654 50.7262 20.7988C50.7262 22.6501 51.6823 23.8841 53.1015 23.8841C53.8115 23.8841 54.3668 23.6372 54.8912 23.0507L54.7989 23.7912H56.6198L58.1007 14.6891H56.1255ZM53.7501 22.0328C53.1019 22.0328 52.7627 21.5393 52.7627 20.5823C52.7627 19.1319 53.3797 18.0831 54.2742 18.0831C54.9529 18.0831 55.2928 18.6079 55.2928 19.5336C55.2928 21.0145 54.6758 22.0328 53.7501 22.0328ZM44.8333 20.4901C44.6481 20.4589 44.5863 20.4589 44.4629 20.4589C43.3512 20.4589 42.796 20.8907 42.796 21.5698C42.796 22.0328 43.0742 22.3415 43.5059 22.3415C44.4316 22.3415 44.802 21.5698 44.8333 20.4901ZM46.3759 23.7912H44.6786L44.7403 23.0202C44.3085 23.606 43.7217 23.9146 42.7041 23.9146C41.7472 23.9146 40.9145 23.1124 40.9145 21.8784C40.9145 20.1201 42.2407 19.04 44.339 19.04C44.5555 19.04 44.8943 19.04 45.1725 19.0713C45.2342 18.8243 45.2654 18.7314 45.2654 18.5774C45.2654 18.0835 44.8641 17.9291 43.9385 17.9291C43.4137 17.9291 42.7658 18.0218 42.3341 18.1761L42.0871 18.2378L41.9636 18.2683L42.2411 16.6022C43.1363 16.3244 43.7845 16.2013 44.4937 16.2013C46.1599 16.2013 47.0238 16.9726 47.0238 18.3918C47.0238 18.7622 47.0855 19.04 46.9316 19.8422L46.5303 22.4958L46.4686 22.9588L46.4068 23.3292L46.3763 23.5762V23.7912H46.3759ZM19.8705 17.9597C20.2409 17.9597 20.7653 17.9905 21.3209 18.0831L21.5987 16.3552C21.0431 16.2935 20.3026 16.2009 19.8705 16.2009C17.7108 16.2009 17.0012 17.3735 17.0012 18.731C17.0012 19.6262 17.4021 20.2737 18.4513 20.7672C19.2226 21.1376 19.3461 21.199 19.3461 21.5389C19.3461 22.0012 18.9452 22.2794 18.2043 22.2794C17.6182 22.2794 17.0626 22.1864 16.4456 21.9707L16.2295 23.6673L16.26 23.6986L16.6304 23.7603C16.7539 23.7908 16.9082 23.822 17.1243 23.8525C17.587 23.8838 17.9882 23.9143 18.2352 23.9143C20.3952 23.9143 21.29 23.0816 21.29 21.4459C21.29 20.428 20.7961 19.811 19.8396 19.3792C19.0065 19.0084 18.9139 18.9474 18.9139 18.6075C18.9139 18.2683 19.2843 17.9597 19.8705 17.9597Z" fill="#1B3771"/>
<path fill-rule="evenodd" clip-rule="evenodd" d="M42.3331 14.3809L41.9932 16.3557C41.3145 16.0161 40.8206 15.8622 40.2653 15.8622C38.8149 15.8622 37.797 17.2814 37.797 19.2871C37.797 20.6758 38.4757 21.5085 39.6178 21.5085C40.0801 21.5085 40.6358 21.3545 41.2528 21.0462L40.9136 23.1129C40.2036 23.2981 39.7409 23.3911 39.2162 23.3911C37.1183 23.3911 35.8222 21.8789 35.8222 19.4418C35.8222 16.2017 37.6118 13.9182 40.1727 13.9182C40.5119 13.9182 40.8202 13.9491 41.0672 14.0108L41.8389 14.196C42.0862 14.2886 42.1479 14.3195 42.3331 14.3809ZM36.1 15.7387H35.9148C35.2673 15.7387 34.8968 16.0474 34.3104 16.9418L34.4956 15.8001H32.7364L31.5337 23.2055H33.478C34.1872 18.6697 34.3725 17.8984 35.2981 17.8984H35.4216C35.6068 17.0036 35.8534 16.3553 36.1621 15.7692L36.1 15.7387ZM24.9305 23.1129C24.4061 23.2981 23.9739 23.3598 23.5421 23.3598C22.5547 23.3598 21.9991 22.8046 21.9991 21.7249C21.9991 21.5397 22.03 21.2931 22.0608 21.0767L22.1843 20.3362L22.2769 19.7505L23.11 14.6896H25.0231L24.807 15.8004H25.7944L25.5475 17.6209H24.56L24.0357 20.7066C24.0048 20.8301 24.0048 20.9231 24.0048 21.0153C24.0048 21.3857 24.19 21.5401 24.6526 21.5401C24.8687 21.5401 25.0536 21.5401 25.177 21.4783L24.9305 23.1129ZM17.4942 18.1453C17.4942 19.0714 17.926 19.7189 18.9442 20.2128C19.7464 20.5832 19.8699 20.7063 19.8699 21.015C19.8699 21.478 19.5304 21.6937 18.759 21.6937C18.1729 21.6937 17.6481 21.6014 17.0311 21.4162L16.7533 23.1129L16.8459 23.1441L17.1855 23.2059C17.3086 23.2364 17.4633 23.2676 17.7099 23.2676C18.1417 23.3293 18.5121 23.3293 18.759 23.3293C20.7952 23.3293 21.7521 22.5576 21.7521 20.861C21.7521 19.8423 21.3512 19.2558 20.3947 18.7935C19.5616 18.4231 19.469 18.3309 19.469 17.9913C19.469 17.5904 19.8085 17.4052 20.4255 17.4052C20.796 17.4052 21.3204 17.4361 21.8142 17.4978L22.0917 15.8008C21.5982 15.7082 20.8268 15.6465 20.3947 15.6465C18.2346 15.6461 17.4633 16.7879 17.4942 18.1453ZM57.1131 23.2059H55.2923L55.3852 22.4959C54.8605 23.0512 54.3048 23.2981 53.5949 23.2981C52.1757 23.2981 51.25 22.0953 51.25 20.244C51.25 17.7753 52.7004 15.677 54.3971 15.677C55.1688 15.677 55.7241 16.0165 56.2492 16.6952L56.681 14.1034H58.5941L57.1131 23.2059ZM54.274 21.478C55.1692 21.478 55.7861 20.4288 55.7861 18.9784C55.7861 18.0218 55.4462 17.528 54.7675 17.528C53.9036 17.528 53.2561 18.5462 53.2561 19.9967C53.2561 20.9845 53.5952 21.478 54.274 21.478ZM30.8546 23.0512C30.1755 23.2676 29.5585 23.3598 28.8489 23.3598C26.6888 23.3598 25.578 22.2184 25.578 20.0275C25.578 17.4975 26.9975 15.6152 28.9415 15.6152C30.5459 15.6152 31.5638 16.6644 31.5638 18.2997C31.5638 18.8553 31.5021 19.38 31.3169 20.151H27.4914C27.4606 20.244 27.4606 20.3057 27.4606 20.3675C27.4606 21.2314 28.047 21.6632 29.1576 21.6632C29.8672 21.6632 30.4842 21.5397 31.1633 21.2002L30.8546 23.0512ZM29.7746 18.6388V18.2688C29.7746 17.6518 29.435 17.3122 28.8489 17.3122C28.2319 17.3122 27.7997 17.7753 27.6145 18.6388H29.7746ZM10.1196 23.2059H8.20652L9.3174 16.2014L6.81818 23.2059H5.49122L5.33688 16.2631L4.16462 23.2059H2.375L3.88681 14.1034H6.66384L6.75645 19.7501L8.60744 14.1034H11.6314L10.1196 23.2059ZM14.9023 19.9041C14.7171 19.9041 14.6245 19.8736 14.4702 19.8736C13.3902 19.8736 12.8349 20.2745 12.8349 21.015C12.8349 21.478 13.0819 21.7554 13.5136 21.7554C14.3158 21.7554 14.8715 21.015 14.9023 19.9041ZM16.3215 23.2059H14.7168L14.7476 22.4342C14.2537 23.0512 13.6059 23.3293 12.7111 23.3293C11.6619 23.3293 10.9523 22.5271 10.9523 21.3236C10.9523 19.5035 12.1863 18.4544 14.3464 18.4544C14.5624 18.4544 14.8402 18.4852 15.1486 18.5157C15.2103 18.2692 15.2103 18.1766 15.2103 18.0531C15.2103 17.5596 14.8707 17.3743 13.9759 17.3743C13.4207 17.3743 12.8033 17.4361 12.3715 17.5596L12.0937 17.6522L11.9085 17.683L12.1863 16.0169C13.1429 15.7391 13.7907 15.6465 14.5007 15.6465C16.1668 15.6465 17.0617 16.3869 17.0617 17.8061C17.0617 18.1766 17.0308 18.4544 16.9073 19.2874L16.4752 21.9105L16.4134 22.3728L16.3826 22.7432L16.3517 23.0214L16.3215 23.2059ZM45.4497 19.9041C45.2333 19.9041 45.141 19.8736 45.0179 19.8736C43.907 19.8736 43.3511 20.2745 43.3511 21.015C43.3511 21.478 43.6292 21.7554 44.061 21.7554C44.8327 21.7554 45.4185 21.015 45.4497 19.9041ZM46.8689 23.2059H45.2645L45.295 22.4342C44.8015 23.0512 44.1536 23.3293 43.2588 23.3293C42.2097 23.3293 41.4997 22.5271 41.4997 21.3236C41.4997 19.5035 42.7337 18.4544 44.8937 18.4544C45.1102 18.4544 45.388 18.4852 45.6654 18.5157C45.7272 18.2692 45.7584 18.1766 45.7584 18.0531C45.7584 17.5596 45.4185 17.3743 44.5244 17.3743C43.9684 17.3743 43.3209 17.4361 42.8888 17.5596L42.6418 17.6522L42.4566 17.683L42.7341 16.0169C43.691 15.7391 44.3385 15.6465 45.0484 15.6465C46.7146 15.6465 47.5785 16.3869 47.5785 17.8061C47.5785 18.1766 47.5785 18.4544 47.4245 19.2874L47.0233 21.9105L46.9615 22.3728L46.8998 22.7432L46.8693 23.0214L46.8689 23.2059ZM52.0526 15.7387H51.8674C51.2199 15.7387 50.8494 16.0474 50.263 16.9418L50.4482 15.8001H48.689L47.5164 23.2055H49.4295C50.1395 18.6697 50.3247 17.8984 51.2504 17.8984H51.3738C51.559 17.0036 51.8056 16.3553 52.1143 15.7692L52.0526 15.7387Z" fill="white"/>
</svg>
