<svg width="61" height="21" viewBox="0 0 61 21" fill="none" xmlns="http://www.w3.org/2000/svg">
<path d="M26.0574 20.0862H21.1616L24.2214 1.28133H29.1178L26.0574 20.0862ZM17.0429 1.28133L12.3753 14.2154L11.823 11.4302L11.8235 11.4312L10.1762 2.97449C10.1762 2.97449 9.97696 1.28133 7.85372 1.28133H0.137418L0.046875 1.59974C0.046875 1.59974 2.40653 2.09068 5.1681 3.74913L9.42162 20.0867H14.5227L22.312 1.28133H17.0429ZM55.5514 20.0862H60.0469L56.1274 1.28083H52.1917C50.3743 1.28083 49.9317 2.68223 49.9317 2.68223L42.6299 20.0862H47.7335L48.7541 17.2929H54.978L55.5514 20.0862ZM50.1641 13.4342L52.7365 6.39702L54.1837 13.4342H50.1641ZM43.0127 5.80346L43.7114 1.76523C43.7114 1.76523 41.5554 0.945312 39.3079 0.945312C36.8784 0.945312 31.1087 2.00718 31.1087 7.17066C31.1087 12.0288 37.8804 12.0892 37.8804 14.641C37.8804 17.1928 31.8064 16.7356 29.8019 15.1264L29.074 19.3487C29.074 19.3487 31.2602 20.4106 34.6002 20.4106C37.9412 20.4106 42.9815 18.6807 42.9815 13.9725C42.9815 9.08314 36.149 8.62791 36.149 6.50215C36.1495 4.3759 40.9176 4.64903 43.0127 5.80346Z" fill="#2566AF"/>
</svg>
