<svg aria-hidden="true" style="position: absolute; width: 0; height: 0; overflow: hidden;" version="1.1" xmlns="http://www.w3.org/2000/svg" xmlns:xlink="http://www.w3.org/1999/xlink">
<defs>
<symbol id="facebook" viewBox="0 0 16 32">
<path fill="#fff" style="fill: var(--color1, #fff)" d="M14.772 17.493l0.819-5.343h-5.124v-3.466c0-1.46 0.715-2.887 3.012-2.887h2.331v-4.547c0 0-2.115-0.361-4.137-0.361-4.22 0-6.979 2.557-6.979 7.19v4.072h-4.693v5.343h4.693v12.912c0.941 0.148 1.905 0.223 2.887 0.223s1.946-0.078 2.887-0.223v-12.912l4.306-0z"></path>
</symbol>
<symbol id="instagram" viewBox="0 0 32 32">
<path fill="#fff" style="fill: var(--color1, #fff)" d="M16.317 9.462c-0.236 0-0.469 0.012-0.699 0.036s-0.456 0.058-0.679 0.104c-0.223 0.046-0.442 0.103-0.656 0.17l-0.629 0.231-0.599 0.29-0.565 0.344-0.528 0.396-0.488 0.443-0.443 0.488-0.396 0.528-0.344 0.565-0.29 0.599c-0.087 0.205-0.164 0.415-0.231 0.629s-0.124 0.433-0.17 0.656c-0.046 0.223-0.081 0.449-0.104 0.679s-0.035 0.463-0.035 0.699c0 0.236 0.012 0.469 0.035 0.699 0.023 0.228 0.058 0.455 0.104 0.679s0.103 0.442 0.17 0.656c0.067 0.214 0.144 0.424 0.231 0.629l0.29 0.599 0.344 0.565 0.396 0.528 0.443 0.488 0.488 0.443 0.528 0.396 0.565 0.344 0.599 0.29 0.629 0.231 0.656 0.17c0.224 0.046 0.451 0.081 0.679 0.104 0.232 0.024 0.465 0.036 0.699 0.036 0.236 0 0.469-0.012 0.699-0.036 0.228-0.023 0.455-0.058 0.679-0.104l0.656-0.17 0.629-0.231 0.599-0.29 0.566-0.344 0.528-0.396 0.488-0.443 0.443-0.488 0.396-0.528 0.345-0.565 0.289-0.599 0.231-0.629c0.067-0.215 0.124-0.433 0.17-0.656l0.104-0.679c0.023-0.23 0.036-0.463 0.036-0.699s-0.012-0.469-0.036-0.699c-0.023-0.228-0.058-0.455-0.104-0.679s-0.103-0.442-0.17-0.656l-0.231-0.629-0.289-0.599-0.345-0.565-0.396-0.528-0.443-0.488-0.488-0.443-0.528-0.396-0.566-0.344-0.599-0.29-0.629-0.231-0.656-0.17-0.679-0.104c-0.232-0.024-0.465-0.036-0.699-0.036zM16.317 11.829c0.156 0 0.31 0.008 0.461 0.023l0.447 0.068 0.431 0.11 0.413 0.15 0.393 0.188 0.369 0.224 0.345 0.258 0.318 0.289 0.289 0.318 0.258 0.345 0.224 0.37 0.188 0.393c0.057 0.134 0.107 0.272 0.15 0.413s0.080 0.285 0.11 0.432c0.029 0.147 0.052 0.296 0.068 0.448l0.023 0.461c0 0.156-0.008 0.31-0.023 0.461s-0.038 0.301-0.068 0.448c-0.030 0.147-0.067 0.291-0.11 0.432l-0.15 0.413-0.188 0.393-0.224 0.37-0.258 0.345-0.289 0.318-0.318 0.289-0.345 0.258-0.369 0.224-0.393 0.188-0.413 0.15-0.431 0.11-0.447 0.068c-0.153 0.015-0.307 0.023-0.461 0.023s-0.308-0.008-0.461-0.023l-0.447-0.068c-0.147-0.030-0.291-0.067-0.432-0.11l-0.413-0.15-0.393-0.188-0.369-0.224-0.345-0.258-0.318-0.289-0.289-0.318-0.258-0.345-0.224-0.37-0.188-0.393-0.15-0.413-0.11-0.432-0.068-0.448c-0.015-0.153-0.023-0.307-0.023-0.461s0.008-0.308 0.023-0.461c0.015-0.152 0.038-0.301 0.068-0.448 0.030-0.146 0.066-0.29 0.11-0.432l0.15-0.413 0.188-0.393 0.224-0.37 0.258-0.345 0.289-0.318 0.318-0.289 0.345-0.258 0.369-0.224 0.393-0.188c0.135-0.057 0.273-0.107 0.413-0.15l0.432-0.11c0.147-0.030 0.296-0.052 0.447-0.068 0.153-0.015 0.307-0.023 0.461-0.023z"></path>
<path fill="#fff" style="fill: var(--color1, #fff)" d="M24.89 6.033c-0.057 0-0.114 0.003-0.171 0.009s-0.113 0.014-0.169 0.026c-0.056 0.011-0.111 0.026-0.166 0.042s-0.108 0.037-0.161 0.059c-0.053 0.022-0.104 0.047-0.154 0.075s-0.099 0.057-0.146 0.090c-0.047 0.032-0.093 0.067-0.136 0.104s-0.085 0.076-0.125 0.117c-0.040 0.041-0.078 0.084-0.113 0.129s-0.069 0.091-0.1 0.139c-0.031 0.048-0.059 0.098-0.085 0.149s-0.049 0.103-0.070 0.156c-0.021 0.053-0.039 0.108-0.054 0.163s-0.028 0.111-0.038 0.167c-0.010 0.056-0.017 0.113-0.021 0.17-0.003 0.040-0.004 0.081-0.004 0.121 0 0.057 0.003 0.114 0.009 0.171s0.014 0.113 0.026 0.169c0.011 0.056 0.025 0.111 0.042 0.166s0.036 0.108 0.059 0.161c0.022 0.053 0.047 0.104 0.075 0.154s0.057 0.099 0.090 0.146c0.032 0.047 0.067 0.093 0.104 0.136s0.076 0.086 0.117 0.125 0.084 0.078 0.129 0.113c0.045 0.036 0.091 0.069 0.14 0.1s0.098 0.059 0.149 0.085c0.051 0.026 0.103 0.049 0.156 0.070s0.107 0.039 0.163 0.054 0.111 0.028 0.167 0.037c0.056 0.010 0.113 0.017 0.17 0.021 0.040 0.003 0.081 0.004 0.121 0.004 0.057 0 0.114-0.003 0.171-0.008s0.113-0.014 0.169-0.026c0.056-0.011 0.111-0.025 0.166-0.042s0.108-0.037 0.161-0.059c0.053-0.022 0.104-0.047 0.154-0.075s0.099-0.057 0.146-0.090c0.047-0.032 0.093-0.067 0.137-0.104s0.085-0.076 0.125-0.117 0.078-0.084 0.113-0.129c0.035-0.045 0.069-0.091 0.1-0.139s0.059-0.098 0.085-0.149c0.026-0.051 0.049-0.103 0.070-0.156s0.039-0.108 0.054-0.163c0.015-0.055 0.028-0.111 0.038-0.167s0.017-0.113 0.021-0.17c0.003-0.040 0.004-0.081 0.004-0.121 0-0.057-0.003-0.114-0.009-0.171s-0.014-0.113-0.026-0.169c-0.011-0.056-0.026-0.111-0.043-0.166s-0.036-0.108-0.059-0.161c-0.022-0.053-0.047-0.104-0.075-0.154s-0.057-0.099-0.090-0.146c-0.032-0.047-0.067-0.093-0.104-0.136s-0.076-0.086-0.117-0.125c-0.041-0.040-0.084-0.078-0.129-0.113s-0.091-0.069-0.139-0.1c-0.048-0.031-0.098-0.059-0.149-0.085s-0.103-0.049-0.156-0.070c-0.053-0.021-0.108-0.039-0.163-0.054s-0.111-0.028-0.167-0.038c-0.056-0.010-0.113-0.017-0.17-0.021-0.040-0.003-0.081-0.004-0.121-0.004z"></path>
<path fill="#fff" style="fill: var(--color1, #fff)" d="M14.835 0.889c-0.858-0.001-1.624 0.002-2.312 0.012l-1.845 0.050c-0.546 0.024-1.029 0.055-1.463 0.095-0.217 0.020-0.421 0.042-0.615 0.067-0.184 0.023-0.368 0.050-0.552 0.081-0.174 0.030-0.34 0.062-0.499 0.097s-0.31 0.073-0.457 0.113c-0.143 0.040-0.285 0.083-0.426 0.13-0.138 0.047-0.272 0.096-0.405 0.149-0.266 0.105-0.525 0.224-0.791 0.356-0.205 0.102-0.395 0.205-0.575 0.315s-0.351 0.225-0.518 0.351c-0.172 0.13-0.338 0.268-0.497 0.414-0.166 0.152-0.336 0.319-0.513 0.505-0.222 0.233-0.414 0.45-0.585 0.664-0.086 0.107-0.166 0.212-0.241 0.318-0.075 0.104-0.146 0.211-0.214 0.32s-0.131 0.218-0.192 0.331c-0.062 0.115-0.12 0.232-0.175 0.35-0.113 0.242-0.218 0.503-0.322 0.794-0.078 0.215-0.147 0.433-0.209 0.653-0.063 0.225-0.118 0.461-0.168 0.716s-0.093 0.529-0.131 0.832c-0.041 0.332-0.074 0.665-0.098 0.999-0.028 0.367-0.051 0.771-0.069 1.22l-0.044 1.495-0.024 1.822-0.007 2.202 0.020 3.202 0.063 2.426 0.049 0.948 0.061 0.785c0.020 0.212 0.044 0.423 0.073 0.633 0.027 0.187 0.055 0.351 0.086 0.492 0.063 0.288 0.137 0.573 0.222 0.855 0.082 0.27 0.175 0.536 0.28 0.798 0.103 0.257 0.216 0.504 0.338 0.742s0.255 0.467 0.397 0.687c0.142 0.22 0.295 0.431 0.457 0.632s0.335 0.395 0.517 0.579c0.183 0.184 0.375 0.359 0.578 0.526 0.205 0.169 0.419 0.327 0.64 0.474 0.205 0.137 0.408 0.263 0.612 0.378s0.41 0.22 0.622 0.315c0.212 0.095 0.429 0.181 0.656 0.258s0.463 0.146 0.713 0.206c0.25 0.061 0.514 0.114 0.794 0.161s0.579 0.086 0.898 0.121c0.319 0.034 0.66 0.063 1.027 0.087s0.758 0.043 1.178 0.058c0.65 0.024 1.633 0.037 2.768 0.043l3.672-0.007 3.477-0.049 1.322-0.037 0.861-0.044c0.185-0.015 0.366-0.033 0.54-0.054s0.347-0.045 0.514-0.072c0.168-0.027 0.332-0.057 0.493-0.091 0.159-0.033 0.317-0.070 0.475-0.111 0.156-0.040 0.309-0.085 0.461-0.132s0.303-0.1 0.452-0.155c0.15-0.056 0.3-0.115 0.447-0.178s0.297-0.131 0.446-0.203c0.229-0.11 0.413-0.202 0.574-0.292 0.152-0.084 0.299-0.177 0.438-0.28 0.138-0.102 0.275-0.218 0.433-0.364s0.337-0.322 0.559-0.544c0.195-0.195 0.359-0.365 0.501-0.519s0.261-0.293 0.366-0.427c0.1-0.127 0.193-0.259 0.279-0.396 0.084-0.134 0.161-0.273 0.239-0.427 0.118-0.232 0.223-0.446 0.317-0.653 0.092-0.2 0.175-0.403 0.25-0.609 0.074-0.205 0.139-0.413 0.193-0.623 0.056-0.217 0.104-0.446 0.145-0.697s0.077-0.525 0.107-0.83c0.030-0.305 0.056-0.643 0.079-1.022l0.060-1.272 0.052-1.582 0.037-1.763 0.014-1.843-0.033-3.62-0.044-1.621-0.060-1.392-0.075-1.085c-0.027-0.302-0.057-0.54-0.088-0.701-0.035-0.178-0.073-0.355-0.116-0.531-0.042-0.171-0.087-0.341-0.137-0.51-0.048-0.165-0.101-0.328-0.158-0.49-0.056-0.16-0.116-0.317-0.178-0.47s-0.13-0.303-0.2-0.449c-0.070-0.146-0.144-0.289-0.221-0.429s-0.158-0.276-0.242-0.409c-0.084-0.133-0.172-0.262-0.263-0.388s-0.185-0.248-0.284-0.368c-0.098-0.119-0.199-0.235-0.305-0.347s-0.214-0.221-0.326-0.327c-0.112-0.106-0.227-0.208-0.346-0.307s-0.242-0.195-0.367-0.286c-0.127-0.092-0.256-0.181-0.388-0.266-0.134-0.086-0.27-0.168-0.409-0.245-0.141-0.079-0.285-0.154-0.43-0.225-0.241-0.118-0.465-0.222-0.684-0.314-0.215-0.092-0.435-0.173-0.658-0.244-0.224-0.071-0.458-0.132-0.715-0.184s-0.537-0.096-0.854-0.133c-0.317-0.037-0.671-0.067-1.077-0.092s-0.861-0.045-1.381-0.060l-1.768-0.040-2.238-0.026-2.867-0.018zM16.323 3.613l4.133 0.024 1.559 0.030c0.429 0.012 0.757 0.026 0.949 0.043 0.25 0.021 0.488 0.048 0.716 0.079 0.219 0.030 0.436 0.068 0.652 0.113 0.207 0.044 0.405 0.093 0.595 0.149s0.37 0.118 0.544 0.188c0.174 0.069 0.34 0.145 0.5 0.229 0.159 0.083 0.313 0.174 0.462 0.273s0.291 0.205 0.43 0.319c0.139 0.114 0.273 0.237 0.405 0.368 0.139 0.138 0.267 0.279 0.385 0.425s0.226 0.296 0.326 0.453c0.1 0.16 0.191 0.326 0.271 0.497 0.082 0.174 0.155 0.359 0.221 0.554s0.125 0.404 0.177 0.626c0.055 0.236 0.1 0.473 0.137 0.713 0.040 0.254 0.073 0.524 0.102 0.813s0.052 0.598 0.072 0.928c0.016 0.265 0.029 0.614 0.041 1.027l0.029 1.408 0.022 3.448-0.025 3.445-0.030 1.404-0.042 1.021c-0.029 0.478-0.059 0.88-0.096 1.23-0.018 0.175-0.038 0.337-0.060 0.489-0.020 0.143-0.045 0.286-0.073 0.428-0.026 0.13-0.055 0.259-0.089 0.386-0.033 0.122-0.069 0.243-0.11 0.362s-0.085 0.239-0.133 0.356c-0.051 0.124-0.104 0.247-0.161 0.368-0.050 0.108-0.103 0.214-0.159 0.317-0.055 0.102-0.114 0.201-0.176 0.299s-0.125 0.191-0.193 0.282c-0.067 0.091-0.137 0.179-0.21 0.265s-0.149 0.168-0.228 0.248c-0.079 0.080-0.161 0.157-0.246 0.231s-0.173 0.146-0.264 0.214c-0.091 0.069-0.186 0.135-0.283 0.198s-0.198 0.124-0.302 0.181c-0.104 0.058-0.211 0.113-0.321 0.166-0.112 0.053-0.226 0.103-0.341 0.15-0.119 0.048-0.239 0.093-0.361 0.134-0.247 0.084-0.508 0.159-0.782 0.222-0.286 0.066-0.575 0.12-0.865 0.162-0.112 0.016-0.368 0.032-0.736 0.046l-1.401 0.039-3.973 0.052-4.158 0.007-1.633-0.017-1.060-0.033-0.782-0.055c-0.243-0.020-0.469-0.043-0.68-0.069s-0.409-0.055-0.594-0.087c-0.176-0.030-0.35-0.067-0.523-0.109-0.158-0.038-0.314-0.083-0.469-0.134-0.149-0.050-0.291-0.104-0.429-0.164s-0.273-0.125-0.406-0.197c-0.133-0.072-0.265-0.149-0.398-0.234-0.101-0.064-0.198-0.129-0.291-0.198s-0.184-0.137-0.271-0.209c-0.087-0.072-0.171-0.146-0.251-0.222s-0.157-0.154-0.232-0.235c-0.074-0.081-0.145-0.164-0.213-0.251s-0.133-0.176-0.195-0.267c-0.063-0.093-0.122-0.188-0.178-0.285s-0.11-0.199-0.161-0.304c-0.052-0.107-0.1-0.215-0.145-0.325-0.045-0.112-0.089-0.227-0.129-0.346-0.081-0.238-0.152-0.492-0.214-0.762s-0.115-0.558-0.159-0.863c-0.045-0.306-0.081-0.631-0.109-0.975-0.021-0.254-0.038-0.65-0.051-1.149l-0.027-1.775 0.010-4.525 0.078-4.324 0.059-1.524 0.034-0.504c0.012-0.134 0.024-0.234 0.036-0.294 0.041-0.197 0.082-0.38 0.124-0.551 0.040-0.162 0.084-0.322 0.132-0.482 0.046-0.15 0.095-0.291 0.146-0.425 0.050-0.129 0.106-0.256 0.167-0.38 0.060-0.121 0.124-0.236 0.194-0.349s0.145-0.222 0.228-0.33c0.082-0.109 0.171-0.216 0.267-0.325s0.2-0.219 0.313-0.332c0.132-0.133 0.269-0.26 0.411-0.381 0.134-0.114 0.274-0.222 0.419-0.322 0.143-0.099 0.289-0.187 0.441-0.268s0.311-0.154 0.477-0.22c0.167-0.066 0.342-0.125 0.527-0.178 0.195-0.055 0.392-0.101 0.59-0.14 0.209-0.041 0.431-0.077 0.667-0.108s0.489-0.058 0.758-0.082c0.188-0.016 0.511-0.031 0.938-0.043l1.551-0.031 4.125-0.024z"></path>
</symbol>
<symbol id="telegram" viewBox="0 0 39 32">
<path fill="#fff" style="fill: var(--color1, #fff)" d="M16.51 22.062l-1.123-0.829 15.409-13.906c0.676-0.6-0.148-0.893-1.046-0.348l-19.017 11.998-8.214-2.564c-1.774-0.543-1.787-1.762 0.398-2.639l32.010-12.343c1.462-0.664 2.873 0.351 2.315 2.589l-5.451 25.688c-0.381 1.825-1.484 2.262-3.012 1.419l-7.634-5.64-3.484 3.388c-0.013 0.012-0.025 0.025-0.038 0.037-0.446 0.434-0.816 0.794-1.624 0.794l0.51-7.643z"></path>
</symbol>
<symbol id="viber" viewBox="0 0 30 32">
<path fill="#fff" style="fill: var(--color1, #fff)" d="M28.637 18.508c0.902-7.595-0.433-12.389-2.843-14.558l0.001-0.001c-3.889-3.703-17.021-4.252-21.674 0.166-2.089 2.161-2.825 5.333-2.906 9.259-0.081 3.928-0.176 11.285 6.68 13.281h0.006l-0.006 3.048c0 0-0.047 1.235 0.742 1.483 0.902 0.293 1.31-0.281 4.117-3.633 4.693 0.407 8.296-0.526 8.706-0.662 0.948-0.317 6.309-1.027 7.176-8.385zM13.218 25.41c0 0-2.97 3.704-3.894 4.665-0.302 0.313-0.634 0.284-0.629-0.336 0-0.407 0.023-5.061 0.023-5.061-5.813-1.666-5.47-7.931-5.407-11.209 0.063-3.279 0.663-5.964 2.432-7.772 4.081-3.827 15.595-2.971 18.528-0.214 3.586 3.179 2.31 12.161 2.317 12.467-0.737 6.142-5.082 6.531-5.881 6.797-0.341 0.113-3.511 0.929-7.49 0.663z"></path>
<path fill="#fff" style="fill: var(--color1, #fff)" d="M14.86 6.417c-0.485 0-0.485 0.756 0 0.762 3.764 0.029 6.864 2.653 6.898 7.465 0 0.508 0.744 0.502 0.737-0.006h-0.001c-0.040-5.185-3.425-8.192-7.634-8.221z"></path>
<path fill="#fff" style="fill: var(--color1, #fff)" d="M19.812 13.847c-0.011 0.502 0.731 0.525 0.737 0.018 0.062-2.859-1.701-5.214-5.014-5.463-0.485-0.035-0.536 0.727-0.052 0.762 2.873 0.218 4.386 2.179 4.328 4.683z"></path>
<path fill="#fff" style="fill: var(--color1, #fff)" d="M19.025 17.099c-0.622-0.36-1.256-0.136-1.518 0.218l-0.548 0.709c-0.278 0.36-0.799 0.313-0.799 0.313-3.798-1.004-4.814-4.979-4.814-4.979s-0.047-0.538 0.301-0.827l0.685-0.567c0.343-0.272 0.559-0.927 0.21-1.571-0.932-1.685-1.559-2.266-1.878-2.712-0.335-0.42-0.839-0.514-1.363-0.231h-0.011c-1.090 0.638-2.283 1.831-1.901 3.059 0.651 1.295 1.849 5.425 5.664 8.545 1.793 1.476 4.631 2.988 5.835 3.337l0.011 0.017c1.187 0.396 2.341-0.844 2.958-1.967v-0.009c0.273-0.543 0.183-1.057-0.217-1.394-0.708-0.691-1.777-1.453-2.616-1.943z"></path>
<path fill="#fff" style="fill: var(--color1, #fff)" d="M16.056 11.214c1.211 0.071 1.798 0.703 1.861 2.002 0.023 0.508 0.76 0.473 0.737-0.035-0.081-1.696-0.965-2.641-2.558-2.729-0.485-0.029-0.53 0.733-0.040 0.762z"></path>
</symbol>
<symbol id="mobile-facebook" viewBox="0 0 32 32">
<path fill="#70768f" style="fill: var(--color1, #70768f)" d="M20.564 16.812l0.532-3.475h-3.333v-2.254c0-0.95 0.465-1.878 1.959-1.878h1.516v-2.958c0 0-1.376-0.235-2.691-0.235-2.745 0-4.54 1.663-4.54 4.676v2.648h-3.052v3.475h3.052v8.398c0.612 0.096 1.239 0.145 1.878 0.145s1.266-0.051 1.878-0.145v-8.398l2.8-0z"></path>
</symbol>
<symbol id="mobile-instagram" viewBox="0 0 32 32">
<path fill="#70768f" style="fill: var(--color1, #70768f)" d="M15.696 11.383c-0.153 0-0.305 0.008-0.454 0.023s-0.297 0.038-0.442 0.068c-0.145 0.030-0.287 0.067-0.427 0.11l-0.409 0.15-0.39 0.188-0.368 0.224-0.344 0.257-0.317 0.288-0.288 0.317-0.257 0.344-0.224 0.368-0.188 0.39c-0.057 0.133-0.107 0.27-0.151 0.409s-0.080 0.282-0.11 0.427c-0.030 0.145-0.053 0.292-0.068 0.442s-0.023 0.301-0.023 0.455c0 0.153 0.008 0.305 0.023 0.454 0.015 0.148 0.038 0.296 0.068 0.442s0.067 0.287 0.11 0.427c0.044 0.139 0.094 0.276 0.151 0.409l0.188 0.39 0.224 0.368 0.257 0.344 0.288 0.317 0.317 0.288 0.344 0.257 0.368 0.224 0.39 0.188 0.409 0.15 0.427 0.11c0.146 0.030 0.293 0.053 0.442 0.068 0.151 0.015 0.303 0.023 0.454 0.023 0.153 0 0.305-0.008 0.454-0.023 0.148-0.015 0.296-0.038 0.442-0.068l0.427-0.11 0.409-0.15 0.39-0.188 0.368-0.224 0.344-0.257 0.317-0.288 0.288-0.317 0.257-0.344 0.224-0.368 0.188-0.39 0.151-0.409c0.044-0.139 0.080-0.282 0.11-0.427l0.068-0.442c0.015-0.149 0.023-0.301 0.023-0.454s-0.008-0.305-0.023-0.454c-0.015-0.148-0.038-0.296-0.068-0.442s-0.067-0.287-0.11-0.427l-0.151-0.409-0.188-0.39-0.224-0.368-0.257-0.344-0.288-0.317-0.317-0.288-0.344-0.257-0.368-0.224-0.39-0.188-0.409-0.15-0.427-0.11-0.442-0.068c-0.151-0.015-0.303-0.023-0.454-0.023v0zM15.696 12.922c0.101 0 0.201 0.005 0.3 0.015l0.291 0.044 0.281 0.072 0.269 0.098 0.256 0.122 0.24 0.146 0.225 0.168 0.207 0.188 0.188 0.207 0.168 0.225 0.146 0.241 0.122 0.256c0.037 0.088 0.069 0.177 0.098 0.269s0.052 0.185 0.072 0.281c0.019 0.095 0.034 0.192 0.044 0.291l0.015 0.3c0 0.101-0.005 0.202-0.015 0.3s-0.025 0.196-0.044 0.291c-0.019 0.095-0.043 0.189-0.072 0.281l-0.098 0.269-0.122 0.256-0.146 0.241-0.168 0.225-0.188 0.207-0.207 0.188-0.225 0.168-0.24 0.146-0.256 0.122-0.269 0.098-0.281 0.072-0.29 0.044c-0.1 0.010-0.2 0.015-0.3 0.015s-0.2-0.005-0.3-0.015l-0.29-0.044c-0.095-0.019-0.189-0.043-0.281-0.072l-0.269-0.098-0.255-0.122-0.24-0.146-0.225-0.168-0.207-0.188-0.188-0.207-0.168-0.225-0.146-0.241-0.122-0.256-0.098-0.269-0.072-0.281-0.044-0.291c-0.010-0.1-0.015-0.2-0.015-0.3s0.005-0.2 0.015-0.3c0.010-0.099 0.025-0.196 0.044-0.291s0.043-0.188 0.072-0.281l0.098-0.269 0.122-0.256 0.146-0.241 0.168-0.225 0.188-0.207 0.207-0.188 0.225-0.168 0.24-0.146 0.256-0.123c0.088-0.037 0.178-0.070 0.269-0.098l0.281-0.072c0.095-0.019 0.192-0.034 0.29-0.044 0.1-0.010 0.2-0.015 0.3-0.015h-0z"></path>
<path fill="#70768f" style="fill: var(--color1, #70768f)" d="M21.272 9.153c-0.037 0-0.074 0.002-0.111 0.006s-0.074 0.009-0.11 0.017c-0.036 0.007-0.073 0.017-0.108 0.028s-0.070 0.024-0.105 0.038c-0.034 0.015-0.068 0.031-0.1 0.049s-0.064 0.037-0.095 0.058-0.060 0.043-0.089 0.067c-0.028 0.024-0.056 0.049-0.082 0.076s-0.050 0.055-0.074 0.084-0.045 0.059-0.065 0.091c-0.020 0.031-0.039 0.063-0.055 0.097s-0.032 0.067-0.046 0.102c-0.014 0.035-0.025 0.070-0.035 0.106s-0.018 0.072-0.024 0.109-0.011 0.074-0.013 0.111c-0.002 0.026-0.003 0.053-0.003 0.079 0 0.037 0.002 0.074 0.006 0.111s0.009 0.074 0.017 0.11c0.007 0.036 0.017 0.072 0.028 0.108s0.024 0.070 0.038 0.105c0.014 0.034 0.031 0.068 0.048 0.1s0.037 0.064 0.058 0.095c0.021 0.031 0.044 0.060 0.067 0.089s0.049 0.056 0.076 0.082 0.055 0.050 0.084 0.074c0.029 0.023 0.059 0.045 0.091 0.065s0.064 0.039 0.097 0.055c0.033 0.017 0.067 0.032 0.102 0.046s0.070 0.025 0.106 0.035c0.036 0.010 0.072 0.018 0.109 0.024s0.074 0.011 0.111 0.014c0.026 0.002 0.053 0.003 0.079 0.003 0.037 0 0.074-0.002 0.111-0.006s0.074-0.009 0.11-0.017c0.036-0.007 0.073-0.017 0.108-0.028s0.070-0.024 0.105-0.038c0.034-0.014 0.068-0.031 0.1-0.048s0.064-0.037 0.095-0.058c0.031-0.021 0.060-0.044 0.089-0.067s0.056-0.049 0.082-0.076c0.026-0.027 0.050-0.055 0.074-0.084s0.045-0.059 0.065-0.091c0.020-0.031 0.039-0.064 0.055-0.097s0.032-0.067 0.046-0.102c0.014-0.035 0.025-0.070 0.035-0.106s0.018-0.072 0.024-0.109 0.011-0.074 0.013-0.111c0.002-0.026 0.003-0.053 0.003-0.079 0-0.037-0.002-0.074-0.006-0.111s-0.009-0.074-0.017-0.11c-0.007-0.036-0.017-0.072-0.028-0.108s-0.024-0.070-0.038-0.105c-0.014-0.034-0.031-0.068-0.048-0.1s-0.037-0.064-0.058-0.095c-0.021-0.031-0.044-0.060-0.067-0.089s-0.049-0.056-0.076-0.082c-0.027-0.026-0.055-0.050-0.084-0.074s-0.059-0.045-0.091-0.065c-0.031-0.020-0.064-0.039-0.097-0.056s-0.067-0.032-0.102-0.046c-0.035-0.013-0.070-0.025-0.106-0.035s-0.072-0.018-0.109-0.024c-0.037-0.006-0.074-0.011-0.111-0.013-0.026-0.002-0.053-0.003-0.079-0.003v-0z"></path>
<path fill="#70768f" style="fill: var(--color1, #70768f)" d="M14.732 5.807c-0.558-0.001-1.056 0.001-1.504 0.008l-1.2 0.032c-0.355 0.015-0.669 0.036-0.951 0.062-0.141 0.013-0.274 0.028-0.4 0.044-0.12 0.015-0.239 0.033-0.359 0.053-0.113 0.019-0.221 0.040-0.324 0.063s-0.202 0.047-0.297 0.073c-0.093 0.026-0.185 0.054-0.277 0.085-0.090 0.030-0.177 0.062-0.263 0.097-0.173 0.069-0.341 0.145-0.515 0.232-0.133 0.066-0.257 0.134-0.374 0.205s-0.228 0.146-0.337 0.228c-0.112 0.085-0.22 0.175-0.323 0.269-0.108 0.099-0.219 0.207-0.333 0.329-0.144 0.152-0.27 0.293-0.381 0.432-0.056 0.069-0.108 0.138-0.157 0.207s-0.095 0.137-0.139 0.208c-0.044 0.070-0.085 0.142-0.125 0.215-0.040 0.075-0.078 0.151-0.114 0.228-0.073 0.157-0.141 0.327-0.21 0.516-0.051 0.14-0.096 0.282-0.136 0.425-0.041 0.146-0.077 0.3-0.109 0.465s-0.060 0.344-0.085 0.541c-0.027 0.216-0.048 0.433-0.064 0.65-0.018 0.239-0.033 0.501-0.045 0.794l-0.029 0.972-0.016 1.185-0.005 1.432 0.013 2.083 0.041 1.578 0.032 0.616 0.040 0.511c0.013 0.138 0.029 0.275 0.048 0.412 0.017 0.122 0.036 0.228 0.056 0.32 0.041 0.187 0.089 0.373 0.144 0.556 0.053 0.176 0.114 0.349 0.182 0.519 0.067 0.167 0.14 0.328 0.22 0.483s0.166 0.304 0.258 0.447c0.093 0.143 0.192 0.28 0.297 0.411s0.218 0.257 0.336 0.376c0.119 0.12 0.244 0.234 0.376 0.342 0.134 0.11 0.272 0.213 0.416 0.309 0.133 0.089 0.265 0.171 0.398 0.246s0.267 0.143 0.405 0.205c0.138 0.062 0.279 0.118 0.426 0.168s0.301 0.095 0.464 0.134c0.162 0.040 0.334 0.074 0.516 0.105s0.376 0.056 0.584 0.079c0.208 0.022 0.429 0.041 0.668 0.056s0.493 0.028 0.766 0.038c0.423 0.015 1.062 0.024 1.8 0.028l2.388-0.005 2.262-0.032 0.86-0.024 0.56-0.029c0.12-0.010 0.238-0.021 0.351-0.035s0.226-0.029 0.335-0.047c0.109-0.018 0.216-0.037 0.32-0.059 0.104-0.022 0.207-0.046 0.309-0.072 0.101-0.026 0.201-0.055 0.3-0.086s0.197-0.065 0.294-0.101c0.098-0.036 0.195-0.075 0.291-0.116s0.193-0.085 0.29-0.132c0.149-0.072 0.268-0.132 0.374-0.19 0.099-0.054 0.194-0.115 0.285-0.182 0.090-0.066 0.179-0.142 0.282-0.236s0.219-0.209 0.364-0.354c0.127-0.127 0.234-0.237 0.326-0.338s0.17-0.191 0.238-0.278c0.065-0.083 0.125-0.169 0.181-0.258 0.054-0.087 0.105-0.177 0.156-0.277 0.077-0.151 0.145-0.29 0.207-0.425 0.059-0.13 0.114-0.262 0.163-0.396 0.048-0.133 0.090-0.268 0.125-0.405 0.036-0.141 0.067-0.29 0.095-0.453s0.050-0.341 0.070-0.54c0.020-0.198 0.037-0.418 0.051-0.664l0.039-0.828 0.034-1.029 0.024-1.147 0.009-1.199-0.021-2.355-0.029-1.055-0.039-0.906-0.049-0.706c-0.018-0.196-0.037-0.351-0.057-0.456-0.022-0.116-0.048-0.231-0.075-0.345-0.027-0.111-0.057-0.222-0.089-0.332-0.032-0.107-0.066-0.213-0.103-0.319-0.037-0.104-0.075-0.206-0.116-0.305s-0.084-0.197-0.13-0.292c-0.046-0.095-0.093-0.188-0.144-0.279s-0.103-0.179-0.157-0.266-0.112-0.171-0.171-0.252c-0.059-0.082-0.121-0.161-0.184-0.239s-0.13-0.153-0.198-0.226c-0.068-0.073-0.139-0.144-0.212-0.213s-0.148-0.135-0.225-0.199c-0.078-0.064-0.157-0.127-0.239-0.186s-0.167-0.118-0.253-0.173c-0.087-0.056-0.176-0.109-0.266-0.16-0.092-0.051-0.185-0.1-0.28-0.146-0.157-0.076-0.302-0.144-0.445-0.204-0.14-0.060-0.283-0.113-0.428-0.159s-0.298-0.086-0.465-0.12-0.349-0.062-0.556-0.087c-0.206-0.024-0.437-0.044-0.7-0.060s-0.56-0.029-0.898-0.039l-1.15-0.026-1.455-0.017-1.864-0.012zM15.7 7.579l2.688 0.015 1.014 0.020c0.279 0.008 0.492 0.017 0.617 0.028 0.163 0.014 0.318 0.031 0.466 0.052 0.142 0.020 0.284 0.044 0.424 0.073 0.135 0.028 0.264 0.061 0.387 0.097s0.241 0.077 0.354 0.122c0.113 0.045 0.221 0.095 0.325 0.149s0.203 0.113 0.3 0.177c0.096 0.064 0.189 0.133 0.28 0.208s0.178 0.154 0.263 0.239c0.090 0.090 0.173 0.182 0.25 0.276s0.147 0.192 0.212 0.295c0.065 0.104 0.124 0.212 0.176 0.323 0.053 0.113 0.101 0.233 0.144 0.361s0.081 0.263 0.115 0.407c0.035 0.153 0.065 0.308 0.089 0.463 0.026 0.165 0.048 0.341 0.066 0.529s0.034 0.389 0.047 0.604c0.010 0.172 0.019 0.4 0.027 0.668l0.019 0.916 0.014 2.243-0.016 2.241-0.020 0.913-0.027 0.664c-0.019 0.311-0.039 0.572-0.062 0.8-0.012 0.114-0.025 0.219-0.039 0.318-0.013 0.093-0.029 0.186-0.048 0.279-0.017 0.084-0.036 0.168-0.058 0.251-0.021 0.079-0.045 0.158-0.071 0.236s-0.056 0.155-0.087 0.232c-0.033 0.081-0.068 0.16-0.104 0.239-0.033 0.071-0.067 0.139-0.103 0.206s-0.074 0.131-0.114 0.195c-0.040 0.063-0.082 0.124-0.125 0.183s-0.089 0.116-0.137 0.172c-0.048 0.055-0.097 0.109-0.148 0.161s-0.105 0.102-0.16 0.15c-0.055 0.048-0.113 0.095-0.172 0.139s-0.121 0.088-0.184 0.129c-0.063 0.041-0.129 0.081-0.197 0.118s-0.137 0.074-0.209 0.108c-0.073 0.035-0.147 0.067-0.222 0.098-0.077 0.031-0.156 0.060-0.235 0.087-0.161 0.055-0.33 0.103-0.509 0.145-0.186 0.043-0.374 0.078-0.563 0.106-0.073 0.011-0.24 0.021-0.479 0.030l-0.912 0.025-2.584 0.034-2.705 0.004-1.062-0.011-0.69-0.022-0.509-0.036c-0.158-0.013-0.305-0.028-0.442-0.045s-0.266-0.035-0.386-0.057c-0.114-0.020-0.228-0.043-0.34-0.071-0.103-0.025-0.204-0.054-0.305-0.087-0.097-0.032-0.189-0.068-0.279-0.107s-0.177-0.082-0.264-0.128c-0.087-0.047-0.172-0.097-0.259-0.152-0.065-0.042-0.129-0.084-0.189-0.128s-0.12-0.089-0.176-0.136c-0.057-0.047-0.111-0.095-0.163-0.144s-0.102-0.1-0.151-0.153c-0.048-0.053-0.094-0.107-0.139-0.163s-0.087-0.114-0.127-0.174c-0.041-0.060-0.079-0.122-0.116-0.186s-0.072-0.13-0.105-0.198c-0.034-0.069-0.065-0.14-0.094-0.211-0.030-0.073-0.058-0.148-0.084-0.225-0.053-0.155-0.099-0.32-0.139-0.496s-0.075-0.363-0.104-0.562c-0.029-0.199-0.052-0.41-0.071-0.634-0.014-0.165-0.025-0.422-0.033-0.747l-0.018-1.155 0.006-2.943 0.051-2.813 0.039-0.991 0.022-0.328c0.008-0.088 0.015-0.152 0.023-0.191 0.027-0.128 0.053-0.247 0.081-0.359 0.026-0.105 0.054-0.21 0.086-0.313 0.030-0.098 0.062-0.189 0.095-0.276 0.033-0.084 0.069-0.167 0.109-0.247 0.039-0.079 0.081-0.154 0.126-0.227s0.095-0.144 0.148-0.215c0.053-0.071 0.111-0.14 0.174-0.211s0.13-0.142 0.204-0.216c0.086-0.086 0.175-0.169 0.267-0.248 0.087-0.074 0.178-0.144 0.273-0.209 0.093-0.064 0.188-0.122 0.287-0.174s0.202-0.1 0.31-0.143c0.108-0.043 0.222-0.081 0.343-0.116 0.127-0.036 0.255-0.066 0.384-0.091 0.136-0.027 0.28-0.050 0.434-0.070s0.318-0.038 0.493-0.053c0.122-0.011 0.333-0.020 0.61-0.028l1.009-0.020 2.683-0.016z"></path>
</symbol>
<symbol id="mobile-telegram" viewBox="0 0 32 32">
<path fill="#70768f" style="fill: var(--color1, #70768f)" d="M13.153 22.996c0.39 0 0.563-0.178 0.78-0.39l2.081-2.024-2.596-1.566z"></path>
<path fill="#70768f" style="fill: var(--color1, #70768f)" d="M13.417 19.016l6.291 4.648c0.718 0.396 1.236 0.191 1.415-0.666l2.561-12.067c0.262-1.051-0.401-1.528-1.087-1.216l-15.036 5.798c-1.026 0.412-1.020 0.984-0.187 1.239l3.859 1.204 8.933-5.636c0.422-0.256 0.809-0.118 0.491 0.164z"></path>
</symbol>
<symbol id="mobile-viber" viewBox="0 0 32 32">
<path fill="#70768f" style="fill: var(--color1, #70768f)" d="M24.673 17.96c0.554-4.665-0.266-7.61-1.746-8.943l0.001-0.001c-2.389-2.275-10.456-2.612-13.313 0.102-1.283 1.327-1.735 3.276-1.785 5.688s-0.108 6.932 4.103 8.158h0.004l-0.004 1.872c0 0-0.029 0.759 0.456 0.911 0.554 0.18 0.805-0.173 2.529-2.232 2.883 0.25 5.096-0.323 5.348-0.406 0.582-0.195 3.876-0.631 4.408-5.15zM15.201 22.199c0 0-1.824 2.275-2.392 2.865-0.186 0.192-0.389 0.174-0.386-0.207 0-0.25 0.014-3.109 0.014-3.109-3.571-1.023-3.36-4.872-3.321-6.885s0.407-3.664 1.494-4.774c2.507-2.351 9.58-1.825 11.381-0.132 2.203 1.953 1.419 7.47 1.423 7.658-0.453 3.773-3.122 4.012-3.612 4.175-0.21 0.070-2.157 0.57-4.601 0.407v0z"></path>
<path fill="#70768f" style="fill: var(--color1, #70768f)" d="M16.211 10.533c-0.298 0-0.298 0.464 0 0.468 2.312 0.018 4.216 1.629 4.237 4.585 0 0.312 0.457 0.308 0.453-0.004h-0.001c-0.025-3.185-2.104-5.032-4.689-5.050v0z"></path>
<path fill="#70768f" style="fill: var(--color1, #70768f)" d="M19.252 15.097c-0.007 0.308 0.449 0.323 0.453 0.011 0.038-1.756-1.045-3.203-3.080-3.355-0.298-0.022-0.329 0.447-0.032 0.468 1.765 0.134 2.694 1.338 2.659 2.876v0z"></path>
<path fill="#70768f" style="fill: var(--color1, #70768f)" d="M18.768 17.094c-0.382-0.221-0.772-0.084-0.933 0.134l-0.337 0.436c-0.171 0.221-0.491 0.192-0.491 0.192-2.333-0.617-2.957-3.058-2.957-3.058s-0.029-0.331 0.185-0.508l0.421-0.348c0.21-0.167 0.344-0.57 0.129-0.965-0.573-1.035-0.957-1.392-1.153-1.666-0.206-0.258-0.515-0.316-0.838-0.142h-0.007c-0.669 0.392-1.403 1.125-1.168 1.879 0.4 0.796 1.136 3.332 3.479 5.249 1.102 0.906 2.845 1.835 3.585 2.050l0.007 0.011c0.729 0.243 1.438-0.519 1.817-1.208v-0.005c0.168-0.334 0.112-0.649-0.133-0.856-0.435-0.424-1.091-0.892-1.607-1.194z"></path>
<path fill="#70768f" style="fill: var(--color1, #70768f)" d="M16.945 13.479c0.744 0.043 1.105 0.432 1.143 1.23 0.014 0.312 0.467 0.29 0.453-0.022-0.050-1.042-0.593-1.622-1.571-1.677-0.298-0.018-0.326 0.45-0.025 0.468v0z"></path>
</symbol>
</defs>
</svg>
