<svg width="176" height="55" viewBox="0 0 176 55" fill="none" xmlns="http://www.w3.org/2000/svg">
<g clip-path="url(#clip0_9202_91478)">
<path fill-rule="evenodd" clip-rule="evenodd" d="M93.1881 45.9485C89.9955 49.6926 85.7189 52.3769 80.9356 53.6389C76.1524 54.9009 71.093 54.6799 66.4408 53.0057C61.7885 51.3315 57.7675 48.2847 54.9206 44.2768C52.0738 40.2689 50.5383 35.493 50.5215 30.594C50.5273 28.1289 50.9132 25.6792 51.6657 23.3294C52.4245 20.9782 53.5465 18.7575 54.9918 16.7461L57.3578 18.4159C54.3663 22.6711 53.066 27.8689 53.7062 33.0139C54.3463 38.1588 56.8817 42.8892 60.8269 46.2992C64.7721 49.7091 69.8498 51.5588 75.0874 51.4941C80.325 51.4294 85.3544 49.4548 89.2124 45.9485H93.1881Z" fill="#DD348B"/>
<path fill-rule="evenodd" clip-rule="evenodd" d="M3.91437e-05 26.2852C-0.00283115 25.5108 0.15218 24.7438 0.455797 24.03C0.757838 23.3472 1.18527 22.7257 1.7164 22.1971C2.25002 21.6733 2.87828 21.2534 3.56852 20.9591C4.27878 20.6563 5.04486 20.5027 5.81822 20.5081H14.7491V24.3467H5.81822C5.56298 24.3453 5.30997 24.3937 5.07368 24.4892C4.83738 24.5847 4.62247 24.7254 4.44125 24.9033C4.26332 25.0794 4.1217 25.288 4.02428 25.5175C3.92111 25.7572 3.86832 26.0151 3.86913 26.2756C3.87092 26.5328 3.92363 26.7871 4.02428 27.0242C4.21652 27.4895 4.58559 27.8617 5.05216 28.0606C5.29569 28.1572 5.55586 28.2061 5.81822 28.2046H9.69701C10.4797 28.2001 11.2551 28.3536 11.9758 28.6556C12.6717 28.9448 13.304 29.3653 13.8376 29.8936C14.3669 30.4216 14.7912 31.0434 15.0885 31.7265C15.3921 32.4403 15.5472 33.2073 15.5443 33.9817C15.5477 34.7531 15.3927 35.5171 15.0885 36.2273C14.7888 36.9091 14.3648 37.5305 13.8376 38.0602C13.304 38.5885 12.6717 39.009 11.9758 39.2982C11.2571 39.6078 10.4808 39.7647 9.69701 39.7588H1.0861V35.9202H9.69701C9.95944 35.9225 10.2198 35.8736 10.4631 35.7763C10.6917 35.6739 10.9015 35.5345 11.0837 35.3636C11.2608 35.1889 11.3994 34.9798 11.4909 34.7494C11.5908 34.5091 11.6403 34.2511 11.6364 33.9913C11.6346 33.731 11.5819 33.4736 11.4813 33.2332C11.3872 33.007 11.2487 32.8015 11.074 32.6286C10.8918 32.4577 10.6821 32.3183 10.4534 32.2159C10.2131 32.1198 9.95618 32.071 9.69701 32.072H5.81822C5.03764 32.077 4.26466 31.9201 3.54913 31.6113C2.15704 31.015 1.04965 29.9122 0.455797 28.5308C0.153456 27.8201 -0.00152912 27.0564 3.91437e-05 26.2852ZM21.4594 39.7684H17.7261V19.6924H21.4594V32.3407L26.9867 25.4503H31.2534L26.4049 31.4482L31.2534 39.8164H26.9867L24.0776 34.5863L21.4594 37.9259V39.7684ZM36.2182 45.2481V41.5534H38.274C38.6304 41.5547 38.9845 41.4963 39.3213 41.3807C39.6679 41.2676 39.9949 41.1025 40.291 40.8912C40.5799 40.6886 40.8351 40.4425 41.0473 40.1619C41.266 39.8676 41.4423 39.5446 41.5709 39.2022C41.1637 39.375 40.7564 39.5477 40.3297 39.7109C39.928 39.8801 39.4961 39.9682 39.0594 39.97C38.1965 39.9733 37.3408 39.8137 36.5382 39.4997C35.7646 39.1945 35.0594 38.7412 34.4631 38.1658C33.8565 37.5641 33.3812 36.8455 33.0667 36.0546C32.717 35.1649 32.5457 34.2164 32.5625 33.262V25.3832H36.257V33.3291C36.2441 33.787 36.3198 34.243 36.48 34.6727C36.6103 35.0307 36.8151 35.3576 37.0813 35.6323C37.3332 35.8856 37.6376 36.082 37.9734 36.2081C38.3212 36.3337 38.6892 36.3955 39.0594 36.3904C39.4372 36.3915 39.8097 36.3026 40.1455 36.1313C40.4761 35.9508 40.7743 35.7173 41.0279 35.4404C41.2845 35.1585 41.4881 34.8335 41.6291 34.4807C41.7724 34.1235 41.8448 33.7423 41.8425 33.3579V25.3832H45.5758V37.9259C45.5791 38.9164 45.3743 39.8968 44.9746 40.8049C44.6009 41.6733 44.0609 42.462 43.3843 43.1272C42.7051 43.7929 41.9058 44.3268 41.0279 44.7011C40.1098 45.0928 39.1186 45.289 38.1188 45.2769L36.2182 45.2481Z" fill="#DD348B"/>
<path fill-rule="evenodd" clip-rule="evenodd" d="M63.0981 11.2286L67.1902 18.1765L68.5381 16.1901C66.7539 10.3649 67.006 10.9983 65.9878 7.6395L69.7599 2.88919C69.8719 2.73543 69.9505 2.56038 69.9908 2.37506C70.0311 2.18974 70.0321 1.99818 69.9938 1.81245C69.9556 1.62672 69.8788 1.45085 69.7685 1.29592C69.6581 1.14099 69.5165 1.01037 69.3526 0.91229C69.218 0.776665 69.0565 0.669999 68.8783 0.598964C68.7001 0.52793 68.509 0.494055 68.3169 0.49946C68.1249 0.504864 67.936 0.549432 67.7622 0.630374C67.5883 0.711316 67.4332 0.826891 67.3066 0.969869L63.5248 5.76816C59.9854 5.56663 60.6157 5.6626 54.526 5.30753L52.8872 7.01572L60.6448 9.3285C60.6448 9.3285 55.9708 15.1728 55.9126 15.2688L52.6351 15.0577L51.7429 16.1805L55.1951 17.3704L56.4557 18.3301L58.3951 21.3722L59.2969 20.2494L58.3272 17.1497C58.4532 17.1017 63.0981 11.2286 63.0981 11.2286Z" fill="#DD348B"/>
<path fill-rule="evenodd" clip-rule="evenodd" d="M78.2347 35.7089C78.2358 36.4717 78.0773 37.2265 77.7693 37.9257C77.4766 38.6085 77.0516 39.228 76.5184 39.7491C75.9886 40.2872 75.36 40.7203 74.6663 41.0254C73.9507 41.3342 73.1777 41.4911 72.3972 41.4861H62.7002V22.2161H72.3972C73.1777 22.2111 73.9507 22.368 74.6663 22.6768C75.3552 22.9734 75.983 23.393 76.5184 23.9147C77.0496 24.4412 77.4742 25.0634 77.7693 25.7477C78.0813 26.4558 78.2399 27.2208 78.2347 27.9933C78.2335 28.3657 78.1846 28.7366 78.0893 29.0969C77.9861 29.4722 77.8431 29.8357 77.6626 30.1813C77.4895 30.528 77.271 30.8506 77.0129 31.141C76.7695 31.4184 76.485 31.6578 76.1693 31.8511C76.4973 32.023 76.7874 32.2579 77.0226 32.5421C77.5418 33.1305 77.9079 33.8355 78.0893 34.5957C78.184 34.9594 78.2329 35.3333 78.2347 35.7089ZM66.5984 37.6283H72.4166C72.6771 37.6333 72.9354 37.5808 73.1729 37.4747C73.4057 37.3841 73.617 37.2469 73.7935 37.0717C73.9733 36.8923 74.1155 36.6796 74.212 36.4458C74.3085 36.2119 74.3574 35.9615 74.356 35.7089C74.3575 35.4493 74.3081 35.1918 74.2105 34.9508C74.112 34.7247 73.9704 34.5194 73.7935 34.3462C73.6173 34.1681 73.4061 34.0277 73.1729 33.9336C72.9337 33.8327 72.6765 33.7805 72.4166 33.78H66.5984V37.6187V37.6283ZM66.5984 29.951H72.4166C72.6763 29.959 72.9347 29.9099 73.1729 29.807C73.4057 29.7165 73.617 29.5792 73.7935 29.404C73.9737 29.2261 74.1156 29.0139 74.2105 28.7802C74.3081 28.5392 74.3575 28.2817 74.356 28.0221C74.3574 27.7695 74.3085 27.5191 74.212 27.2852C74.1155 27.0514 73.9733 26.8387 73.7935 26.6594C73.6173 26.4813 73.4061 26.3408 73.1729 26.2467C72.9331 26.1492 72.6759 26.1002 72.4166 26.1028H66.5984V29.9414V29.951ZM94.836 34.1639C94.8462 35.1904 94.6484 36.2085 94.2541 37.158C93.8875 38.0557 93.3473 38.874 92.6638 39.5668C91.9911 40.2475 91.1907 40.7919 90.3075 41.1694C89.3887 41.5612 88.3988 41.7634 87.3984 41.7634C86.3979 41.7634 85.408 41.5612 84.4893 41.1694C82.6863 40.4028 81.2637 38.9604 80.5329 37.158C80.1387 36.2085 79.9408 35.1904 79.9511 34.1639C79.9408 33.1218 80.1386 32.088 80.5329 31.1218C80.9017 30.2252 81.4417 29.4074 82.1232 28.713C82.8017 28.0371 83.6049 27.4963 84.4893 27.12C85.4082 26.7307 86.3988 26.5346 87.3984 26.5442C88.3951 26.5343 89.3839 26.7202 90.3075 27.0912C91.1915 27.4411 91.9936 27.967 92.6638 28.6363C93.3492 29.3239 93.8898 30.1394 94.2541 31.0354C94.6529 32.0305 94.8506 33.0934 94.836 34.1639ZM91.1026 34.1639C91.1107 33.613 91.0119 33.0657 90.8117 32.5517C90.6284 32.0957 90.3585 31.6787 90.0166 31.3233C89.6869 30.9785 89.287 30.707 88.8432 30.5268C88.3823 30.3367 87.888 30.2389 87.3887 30.2389C86.8894 30.2389 86.395 30.3367 85.9341 30.5268C85.4917 30.7093 85.0922 30.9805 84.7608 31.3233C84.4241 31.679 84.1606 32.0962 83.985 32.5517C83.7848 33.0657 83.6861 33.613 83.6941 34.1639C83.6904 34.6926 83.7892 35.2171 83.985 35.7089C84.1627 36.1662 84.4259 36.5862 84.7608 36.9469C85.0965 37.292 85.4944 37.572 85.9341 37.7722C86.3818 37.9726 86.8682 38.0741 87.3596 38.0697C87.853 38.0735 88.3418 37.9755 88.7947 37.7818C89.2581 37.6029 89.6754 37.3243 90.0166 36.9661C90.3615 36.6094 90.6318 36.1887 90.8117 35.7281C91.0102 35.2203 91.1089 34.6796 91.1026 34.1351V34.1639ZM110.943 34.1639C110.954 35.1914 110.752 36.2103 110.351 37.158C109.993 38.0498 109.461 38.8631 108.786 39.5514C108.11 40.2397 107.304 40.7895 106.414 41.1694C105.495 41.5596 104.505 41.7608 103.505 41.7608C102.505 41.7608 101.515 41.5596 100.596 41.1694C98.7984 40.395 97.3784 38.9552 96.6396 37.158C96.2453 36.2085 96.0475 35.1904 96.0578 34.1639C96.0475 33.1218 96.2452 32.088 96.6396 31.1218C97.0119 30.2248 97.5551 29.407 98.2396 28.713C98.9146 28.0374 99.7146 27.4966 100.596 27.12C101.515 26.7318 102.506 26.5357 103.505 26.5442C104.502 26.5361 105.49 26.7219 106.414 27.0912C107.297 27.4435 108.099 27.9691 108.771 28.6363C109.453 29.3242 109.99 30.1398 110.351 31.0354C110.758 32.0285 110.959 33.0924 110.943 34.1639ZM107.2 34.1639C107.208 33.613 107.109 33.0657 106.909 32.5517C106.726 32.0976 106.46 31.6811 106.123 31.3233C105.79 30.9783 105.387 30.7068 104.94 30.5268C104.488 30.3418 104.004 30.2472 103.515 30.2485C103.023 30.2472 102.535 30.3418 102.08 30.5268C101.639 30.7071 101.242 30.9787 100.916 31.3233C100.579 31.6811 100.313 32.0976 100.131 32.5517C99.9382 33.0676 99.8429 33.614 99.8493 34.1639C99.8471 34.6916 99.9424 35.2152 100.131 35.7089C100.315 36.1648 100.581 36.5842 100.916 36.9469C101.246 37.2943 101.641 37.5746 102.08 37.7722C102.531 37.9725 103.02 38.074 103.515 38.0697C104.005 38.0725 104.49 37.9744 104.94 37.7818C105.386 37.6053 105.79 37.3371 106.123 36.9949C106.463 36.6358 106.729 36.2156 106.909 35.7569C107.107 35.2491 107.206 34.7084 107.2 34.1639ZM116.722 41.4861H112.989V21.3332H116.722V34.0871L122.249 27.1488H126.516L121.667 33.1466L126.516 41.5149H122.249L119.34 36.2847L116.761 39.6723V41.5149L116.722 41.4861ZM132.344 23.1854C132.345 23.515 132.279 23.8414 132.15 24.145C132.021 24.4342 131.841 24.6976 131.617 24.9224C131.384 25.1447 131.111 25.3207 130.812 25.4406C130.506 25.575 130.176 25.6444 129.842 25.6444C129.508 25.6444 129.178 25.575 128.872 25.4406C128.576 25.3253 128.308 25.1486 128.087 24.9224C127.86 24.7001 127.678 24.4361 127.554 24.145C127.419 23.8429 127.353 23.5154 127.36 23.1854C127.354 22.8554 127.42 22.5282 127.554 22.2257C127.678 21.9347 127.86 21.6707 128.087 21.4484C128.31 21.2224 128.578 21.0429 128.872 20.9206C129.495 20.6749 130.189 20.6749 130.812 20.9206C131.11 21.0473 131.382 21.2261 131.617 21.4484C131.841 21.6732 132.021 21.9366 132.15 22.2257C132.279 22.5296 132.345 22.8559 132.344 23.1854ZM131.704 41.4861H128V27.0912H131.723V41.4861H131.704ZM138.23 41.4861H134.535V27.0912H135.427L136.649 28.4923C137.243 27.9589 137.93 27.5363 138.676 27.2447C139.434 26.956 140.24 26.8095 141.052 26.8129C141.916 26.8062 142.771 26.9795 143.563 27.3215C144.331 27.6445 145.029 28.1104 145.619 28.6938C146.212 29.288 146.686 29.9881 147.015 30.7571C147.354 31.5492 147.526 32.4016 147.52 33.2618V41.4861H143.815V33.2618C143.819 32.896 143.746 32.5334 143.602 32.1966C143.46 31.8671 143.256 31.5674 143.001 31.3137C142.745 31.0642 142.446 30.8626 142.118 30.7187C141.782 30.5752 141.418 30.5033 141.052 30.5076C140.673 30.5035 140.297 30.5753 139.946 30.7187C139.614 30.8604 139.312 31.0622 139.054 31.3137C138.799 31.5674 138.595 31.8671 138.453 32.1966C138.306 32.5328 138.23 32.8954 138.23 33.2618V41.4861ZM160.533 34.1639C160.533 33.6635 160.434 33.168 160.242 32.7052C160.057 32.2464 159.791 31.8239 159.457 31.4576C159.124 31.0925 158.722 30.7957 158.274 30.5844C157.832 30.3631 157.343 30.248 156.848 30.2485C156.358 30.2454 155.871 30.3333 155.413 30.5076C154.977 30.6741 154.58 30.9291 154.249 31.2561C153.904 31.6111 153.637 32.0325 153.464 32.4941C153.269 33.0294 153.174 33.5951 153.183 34.1639C153.175 34.7138 153.271 35.2604 153.464 35.7761C153.626 36.2136 153.869 36.6172 154.181 36.9661C154.508 37.3079 154.905 37.5762 155.345 37.753C155.799 37.9426 156.288 38.0373 156.78 38.0313C157.275 38.0351 157.763 37.9233 158.206 37.705C158.652 37.4903 159.054 37.194 159.389 36.8317C159.724 36.462 159.99 36.0364 160.174 35.5746C160.367 35.1154 160.466 34.6228 160.465 34.1255L160.533 34.1639ZM164.276 39.6627C164.287 40.653 164.085 41.6343 163.684 42.5417C163.309 43.4066 162.77 44.1919 162.094 44.8545C161.415 45.5244 160.611 46.0588 159.728 46.4283C158.811 46.8223 157.819 47.0186 156.819 47.0041H154.957V43.2998H156.79C157.294 43.3144 157.796 43.2396 158.274 43.0791C159.019 42.8348 159.639 42.3112 160 41.6204C160.169 41.2857 160.306 40.9354 160.407 40.5744C160.25 40.8145 160.033 41.0097 159.777 41.1406C159.491 41.2965 159.189 41.4189 158.875 41.5053C158.539 41.5997 158.195 41.6639 157.847 41.6972C157.525 41.7331 157.201 41.7523 156.877 41.7548C155.883 41.7611 154.896 41.5821 153.968 41.227C153.077 40.8907 152.266 40.3762 151.586 39.7158C150.905 39.0553 150.369 38.263 150.012 37.3883C149.61 36.3739 149.413 35.2916 149.43 34.2023C149.42 33.1665 149.618 32.1391 150.012 31.1793C150.38 30.2775 150.924 29.456 151.612 28.761C152.292 28.0663 153.108 27.5152 154.01 27.1408C154.911 26.7664 155.88 26.5765 156.858 26.5826C157.329 26.5833 157.798 26.6413 158.254 26.7553C158.72 26.8708 159.171 27.0349 159.602 27.2447C160.036 27.4494 160.451 27.6902 160.843 27.9645C161.231 28.2412 161.6 28.5425 161.949 28.8666L163.384 27.1584H164.286L164.276 39.6627Z" fill="#1F2746"/>
<path fill-rule="evenodd" clip-rule="evenodd" d="M168.572 25.2106V21.0841H167.021V20.5371H170.764V21.0841H169.202V25.2106H168.572Z" fill="#DD348B"/>
<path fill-rule="evenodd" clip-rule="evenodd" d="M171.395 25.2106V20.5371H172.364L173.489 23.8383L173.712 24.5293C173.761 24.3661 173.848 24.1166 173.964 23.7808L175.099 20.5371H175.933V25.2106H175.341V21.2952L173.955 25.2106H173.392L172.035 21.2281V25.2106H171.395Z" fill="#DD348B"/>
<path fill-rule="evenodd" clip-rule="evenodd" d="M168.572 25.2106V21.0841H167.021V20.5371H170.764V21.0841H169.202V25.2106H168.572Z" stroke="#DD348B" stroke-width="0.22" stroke-miterlimit="22.93"/>
<path fill-rule="evenodd" clip-rule="evenodd" d="M171.395 25.2106V20.5371H172.364L173.489 23.8383L173.712 24.5293C173.761 24.3661 173.848 24.1166 173.964 23.7808L175.099 20.5371H175.933V25.2106H175.341V21.2952L173.955 25.2106H173.392L172.035 21.2281V25.2106H171.395Z" stroke="#DD348B" stroke-width="0.22" stroke-miterlimit="22.93"/>
</g>
<defs>
<clipPath id="clip0_9202_91478">
<rect width="176" height="54" fill="white" transform="translate(0 0.5)"/>
</clipPath>
</defs>
</svg>
