<svg width="177" height="54" viewBox="0 0 177 54" fill="none" xmlns="http://www.w3.org/2000/svg">
<g clip-path="url(#clip0_9208_64587)">
<path fill-rule="evenodd" clip-rule="evenodd" d="M93.6881 45.4485C90.4955 49.1926 86.2189 51.8769 81.4356 53.1389C76.6524 54.4009 71.593 54.1799 66.9408 52.5057C62.2885 50.8315 58.2675 47.7847 55.4206 43.7768C52.5738 39.7689 51.0383 34.993 51.0215 30.094C51.0273 27.6289 51.4132 25.1792 52.1657 22.8294C52.9245 20.4782 54.0465 18.2575 55.4918 16.2461L57.8578 17.9159C54.8663 22.1711 53.566 27.3689 54.2062 32.5139C54.8463 37.6588 57.3817 42.3892 61.3269 45.7992C65.2721 49.2091 70.3498 51.0588 75.5874 50.9941C80.825 50.9294 85.8544 48.9548 89.7124 45.4485H93.6881Z" fill="#ED1D88"/>
<path fill-rule="evenodd" clip-rule="evenodd" d="M0.500039 25.7852C0.497169 25.0108 0.65218 24.2438 0.955797 23.53C1.25784 22.8472 1.68527 22.2257 2.2164 21.6971C2.75002 21.1733 3.37828 20.7534 4.06852 20.4591C4.77878 20.1563 5.54486 20.0027 6.31822 20.0081H15.2491V23.8467H6.31822C6.06298 23.8453 5.80997 23.8937 5.57368 23.9892C5.33738 24.0847 5.12247 24.2254 4.94125 24.4033C4.76332 24.5794 4.6217 24.788 4.52428 25.0175C4.42111 25.2572 4.36832 25.5151 4.36913 25.7756C4.37092 26.0328 4.42363 26.2871 4.52428 26.5242C4.71652 26.9895 5.08559 27.3617 5.55216 27.5606C5.79569 27.6572 6.05586 27.7061 6.31822 27.7046H10.197C10.9797 27.7001 11.7551 27.8536 12.4758 28.1556C13.1717 28.4448 13.804 28.8653 14.3376 29.3936C14.8669 29.9216 15.2912 30.5434 15.5885 31.2265C15.8921 31.9403 16.0472 32.7073 16.0443 33.4817C16.0477 34.2531 15.8927 35.0171 15.5885 35.7273C15.2888 36.4091 14.8648 37.0305 14.3376 37.5602C13.804 38.0885 13.1717 38.509 12.4758 38.7982C11.7571 39.1078 10.9808 39.2647 10.197 39.2588H1.5861V35.4202H10.197C10.4594 35.4225 10.7198 35.3736 10.9631 35.2763C11.1917 35.1739 11.4015 35.0345 11.5837 34.8636C11.7608 34.6889 11.8994 34.4798 11.9909 34.2494C12.0908 34.0091 12.1403 33.7511 12.1364 33.4913C12.1346 33.231 12.0819 32.9736 11.9813 32.7332C11.8872 32.507 11.7487 32.3015 11.574 32.1286C11.3918 31.9577 11.1821 31.8183 10.9534 31.7159C10.7131 31.6198 10.4562 31.571 10.197 31.572H6.31822C5.53764 31.577 4.76466 31.4201 4.04913 31.1113C2.65704 30.515 1.54965 29.4122 0.955797 28.0308C0.653456 27.3201 0.498471 26.5564 0.500039 25.7852ZM21.9594 39.2684H18.2261V19.1924H21.9594V31.8407L27.4867 24.9503H31.7534L26.9049 30.9482L31.7534 39.3164H27.4867L24.5776 34.0863L21.9594 37.4259V39.2684ZM36.7182 44.7481V41.0534H38.774C39.1304 41.0547 39.4845 40.9963 39.8213 40.8807C40.1679 40.7676 40.4949 40.6025 40.791 40.3912C41.0799 40.1886 41.3351 39.9425 41.5473 39.6619C41.766 39.3676 41.9423 39.0446 42.0709 38.7022C41.6637 38.875 41.2564 39.0477 40.8297 39.2109C40.428 39.3801 39.9961 39.4682 39.5594 39.47C38.6965 39.4733 37.8408 39.3137 37.0382 38.9997C36.2646 38.6945 35.5594 38.2412 34.9631 37.6658C34.3565 37.0641 33.8812 36.3455 33.5667 35.5546C33.217 34.6649 33.0457 33.7164 33.0625 32.762V24.8832H36.757V32.8291C36.7441 33.287 36.8198 33.743 36.98 34.1727C37.1103 34.5307 37.3151 34.8576 37.5813 35.1323C37.8332 35.3856 38.1376 35.582 38.4734 35.7081C38.8212 35.8337 39.1892 35.8955 39.5594 35.8904C39.9372 35.8915 40.3097 35.8026 40.6455 35.6313C40.9761 35.4508 41.2743 35.2173 41.5279 34.9404C41.7845 34.6585 41.9881 34.3335 42.1291 33.9807C42.2724 33.6235 42.3448 33.2423 42.3425 32.8579V24.8832H46.0758V37.4259C46.0791 38.4164 45.8743 39.3968 45.4746 40.3049C45.1009 41.1733 44.5609 41.962 43.8843 42.6272C43.2051 43.2929 42.4058 43.8268 41.5279 44.2011C40.6098 44.5928 39.6186 44.789 38.6188 44.7769L36.7182 44.7481Z" fill="#ED1D88"/>
<path fill-rule="evenodd" clip-rule="evenodd" d="M63.5983 10.7287L67.6904 17.6767L69.0383 15.6902C67.2541 9.86505 67.5062 10.4984 66.488 7.13962L70.2601 2.38931C70.3722 2.23555 70.4508 2.0605 70.491 1.87518C70.5313 1.68987 70.5323 1.4983 70.4941 1.31257C70.4558 1.12684 70.3791 0.950969 70.2687 0.796042C70.1584 0.641115 70.0168 0.510494 69.8529 0.412412C69.7182 0.276787 69.5567 0.170121 69.3785 0.0990864C69.2003 0.0280519 69.0092 -0.00582269 68.8171 -0.000418151C68.6251 0.00498639 68.4362 0.0495538 68.2624 0.130496C68.0885 0.211438 67.9335 0.327013 67.8068 0.469991L64.025 5.26828C60.4856 5.06676 61.1159 5.16272 55.0262 4.80765L53.3874 6.51584L61.145 8.82862C61.145 8.82862 56.471 14.6729 56.4129 14.7689L53.1353 14.5578L52.2432 15.6806L55.6953 16.8706L56.9559 17.8302L58.8953 20.8723L59.7971 19.7495L58.8274 16.6498C58.9535 16.6019 63.5983 10.7287 63.5983 10.7287Z" fill="#ED1D88"/>
<path fill-rule="evenodd" clip-rule="evenodd" d="M78.7347 35.2089C78.7358 35.9717 78.5773 36.7265 78.2693 37.4257C77.9766 38.1085 77.5516 38.728 77.0184 39.2491C76.4886 39.7872 75.86 40.2203 75.1663 40.5254C74.4507 40.8342 73.6777 40.9911 72.8972 40.9861H63.2002V21.7161H72.8972C73.6777 21.7111 74.4507 21.868 75.1663 22.1768C75.8552 22.4734 76.483 22.893 77.0184 23.4147C77.5496 23.9412 77.9742 24.5634 78.2693 25.2477C78.5813 25.9558 78.7399 26.7208 78.7347 27.4933C78.7335 27.8657 78.6846 28.2366 78.5893 28.5969C78.4861 28.9722 78.3431 29.3357 78.1626 29.6813C77.9895 30.028 77.771 30.3506 77.5129 30.641C77.2695 30.9184 76.985 31.1578 76.6693 31.3511C76.9973 31.523 77.2874 31.7579 77.5226 32.0421C78.0418 32.6305 78.4079 33.3355 78.5893 34.0957C78.684 34.4594 78.7329 34.8333 78.7347 35.2089ZM67.0984 37.1283H72.9166C73.1771 37.1333 73.4354 37.0808 73.6729 36.9747C73.9057 36.8841 74.117 36.7469 74.2935 36.5717C74.4733 36.3923 74.6155 36.1796 74.712 35.9458C74.8085 35.7119 74.8574 35.4615 74.856 35.2089C74.8575 34.9493 74.8081 34.6918 74.7105 34.4508C74.612 34.2247 74.4704 34.0194 74.2935 33.8462C74.1173 33.6681 73.9061 33.5277 73.6729 33.4336C73.4337 33.3327 73.1765 33.2805 72.9166 33.28H67.0984V37.1187V37.1283ZM67.0984 29.451H72.9166C73.1763 29.459 73.4347 29.4099 73.6729 29.307C73.9057 29.2165 74.117 29.0792 74.2935 28.904C74.4737 28.7261 74.6156 28.5139 74.7105 28.2802C74.8081 28.0392 74.8575 27.7817 74.856 27.5221C74.8574 27.2695 74.8085 27.0191 74.712 26.7852C74.6155 26.5514 74.4733 26.3387 74.2935 26.1594C74.1173 25.9813 73.9061 25.8408 73.6729 25.7467C73.4331 25.6492 73.1759 25.6002 72.9166 25.6028H67.0984V29.4414V29.451ZM95.336 33.6639C95.3462 34.6904 95.1484 35.7085 94.7541 36.658C94.3875 37.5557 93.8473 38.374 93.1638 39.0668C92.4911 39.7475 91.6907 40.2919 90.8075 40.6694C89.8887 41.0612 88.8988 41.2634 87.8984 41.2634C86.8979 41.2634 85.908 41.0612 84.9893 40.6694C83.1863 39.9028 81.7637 38.4604 81.0329 36.658C80.6387 35.7085 80.4408 34.6904 80.4511 33.6639C80.4408 32.6218 80.6386 31.588 81.0329 30.6218C81.4017 29.7252 81.9417 28.9074 82.6232 28.213C83.3017 27.5371 84.1049 26.9963 84.9893 26.62C85.9082 26.2307 86.8988 26.0346 87.8984 26.0442C88.8951 26.0343 89.8839 26.2202 90.8075 26.5912C91.6915 26.9411 92.4936 27.467 93.1638 28.1363C93.8492 28.8239 94.3898 29.6394 94.7541 30.5354C95.1529 31.5305 95.3506 32.5934 95.336 33.6639ZM91.6026 33.6639C91.6107 33.113 91.5119 32.5657 91.3117 32.0517C91.1284 31.5957 90.8585 31.1787 90.5166 30.8233C90.1869 30.4785 89.787 30.207 89.3432 30.0268C88.8823 29.8367 88.388 29.7389 87.8887 29.7389C87.3894 29.7389 86.895 29.8367 86.4341 30.0268C85.9917 30.2093 85.5922 30.4805 85.2608 30.8233C84.9241 31.179 84.6606 31.5962 84.485 32.0517C84.2848 32.5657 84.1861 33.113 84.1941 33.6639C84.1904 34.1926 84.2892 34.7171 84.485 35.2089C84.6627 35.6662 84.9259 36.0862 85.2608 36.4469C85.5965 36.792 85.9944 37.072 86.4341 37.2722C86.8818 37.4726 87.3682 37.5741 87.8596 37.5697C88.353 37.5735 88.8418 37.4755 89.2947 37.2818C89.7581 37.1029 90.1754 36.8243 90.5166 36.4661C90.8615 36.1094 91.1318 35.6887 91.3117 35.2281C91.5102 34.7203 91.6089 34.1796 91.6026 33.6351V33.6639ZM111.443 33.6639C111.454 34.6914 111.252 35.7103 110.851 36.658C110.493 37.5498 109.961 38.3631 109.286 39.0514C108.61 39.7397 107.804 40.2895 106.914 40.6694C105.995 41.0596 105.005 41.2608 104.005 41.2608C103.005 41.2608 102.015 41.0596 101.096 40.6694C99.2984 39.895 97.8784 38.4552 97.1396 36.658C96.7453 35.7085 96.5475 34.6904 96.5578 33.6639C96.5475 32.6218 96.7452 31.588 97.1396 30.6218C97.5119 29.7248 98.0551 28.907 98.7396 28.213C99.4146 27.5374 100.215 26.9966 101.096 26.62C102.015 26.2318 103.006 26.0357 104.005 26.0442C105.002 26.0361 105.99 26.2219 106.914 26.5912C107.797 26.9435 108.599 27.4691 109.271 28.1363C109.953 28.8242 110.49 29.6398 110.851 30.5354C111.258 31.5285 111.459 32.5924 111.443 33.6639ZM107.7 33.6639C107.708 33.113 107.609 32.5657 107.409 32.0517C107.226 31.5976 106.96 31.1811 106.623 30.8233C106.29 30.4783 105.887 30.2068 105.44 30.0268C104.988 29.8418 104.504 29.7472 104.015 29.7485C103.523 29.7472 103.035 29.8418 102.58 30.0268C102.139 30.2071 101.742 30.4787 101.416 30.8233C101.079 31.1811 100.813 31.5976 100.631 32.0517C100.438 32.5676 100.343 33.114 100.349 33.6639C100.347 34.1916 100.442 34.7152 100.631 35.2089C100.815 35.6648 101.081 36.0842 101.416 36.4469C101.746 36.7943 102.141 37.0746 102.58 37.2722C103.031 37.4725 103.52 37.574 104.015 37.5697C104.505 37.5725 104.99 37.4744 105.44 37.2818C105.886 37.1053 106.29 36.8371 106.623 36.4949C106.963 36.1358 107.229 35.7156 107.409 35.2569C107.607 34.7491 107.706 34.2084 107.7 33.6639ZM117.222 40.9861H113.489V20.8332H117.222V33.5871L122.749 26.6488H127.016L122.167 32.6466L127.016 41.0149H122.749L119.84 35.7847L117.261 39.1723V41.0149L117.222 40.9861ZM132.844 22.6854C132.845 23.015 132.779 23.3414 132.65 23.645C132.521 23.9342 132.341 24.1976 132.117 24.4224C131.884 24.6447 131.611 24.8207 131.312 24.9406C131.006 25.075 130.676 25.1444 130.342 25.1444C130.008 25.1444 129.678 25.075 129.372 24.9406C129.076 24.8253 128.808 24.6486 128.587 24.4224C128.36 24.2001 128.178 23.9361 128.054 23.645C127.919 23.3429 127.853 23.0154 127.86 22.6854C127.854 22.3554 127.92 22.0282 128.054 21.7257C128.178 21.4347 128.36 21.1707 128.587 20.9484C128.81 20.7224 129.078 20.5429 129.372 20.4206C129.995 20.1749 130.689 20.1749 131.312 20.4206C131.61 20.5473 131.882 20.7261 132.117 20.9484C132.341 21.1732 132.521 21.4366 132.65 21.7257C132.779 22.0296 132.845 22.3559 132.844 22.6854ZM132.204 40.9861H128.5V26.5912H132.223V40.9861H132.204ZM138.73 40.9861H135.035V26.5912H135.927L137.149 27.9923C137.743 27.4589 138.43 27.0363 139.176 26.7447C139.934 26.456 140.74 26.3095 141.552 26.3129C142.416 26.3062 143.271 26.4795 144.063 26.8215C144.831 27.1445 145.529 27.6104 146.119 28.1938C146.712 28.788 147.186 29.4881 147.515 30.2571C147.854 31.0492 148.026 31.9016 148.02 32.7618V40.9861H144.315V32.7618C144.319 32.396 144.246 32.0334 144.102 31.6966C143.96 31.3671 143.756 31.0674 143.501 30.8137C143.245 30.5642 142.946 30.3626 142.618 30.2187C142.282 30.0752 141.918 30.0033 141.552 30.0076C141.173 30.0035 140.797 30.0753 140.446 30.2187C140.114 30.3604 139.812 30.5622 139.554 30.8137C139.299 31.0674 139.095 31.3671 138.953 31.6966C138.806 32.0328 138.73 32.3954 138.73 32.7618V40.9861ZM161.033 33.6639C161.033 33.1635 160.934 32.668 160.742 32.2052C160.557 31.7464 160.291 31.3239 159.957 30.9576C159.624 30.5925 159.222 30.2957 158.774 30.0844C158.332 29.8631 157.843 29.748 157.348 29.7485C156.858 29.7454 156.371 29.8333 155.913 30.0076C155.477 30.1741 155.08 30.4291 154.749 30.7561C154.404 31.1111 154.137 31.5325 153.964 31.9941C153.769 32.5294 153.674 33.0951 153.683 33.6639C153.675 34.2138 153.771 34.7604 153.964 35.2761C154.126 35.7136 154.369 36.1172 154.681 36.4661C155.008 36.8079 155.405 37.0762 155.845 37.253C156.299 37.4426 156.788 37.5373 157.28 37.5313C157.775 37.5351 158.263 37.4233 158.706 37.205C159.152 36.9903 159.554 36.694 159.889 36.3317C160.224 35.962 160.49 35.5364 160.674 35.0746C160.867 34.6154 160.966 34.1228 160.965 33.6255L161.033 33.6639ZM164.776 39.1627C164.787 40.153 164.585 41.1343 164.184 42.0417C163.809 42.9066 163.27 43.6919 162.594 44.3545C161.915 45.0244 161.111 45.5588 160.228 45.9283C159.311 46.3223 158.319 46.5186 157.319 46.5041H155.457V42.7998H157.29C157.794 42.8144 158.296 42.7396 158.774 42.5791C159.519 42.3348 160.139 41.8112 160.5 41.1204C160.669 40.7857 160.806 40.4354 160.907 40.0744C160.75 40.3145 160.533 40.5097 160.277 40.6406C159.991 40.7965 159.689 40.9189 159.375 41.0053C159.039 41.0997 158.695 41.1639 158.347 41.1972C158.025 41.2331 157.701 41.2523 157.377 41.2548C156.383 41.2611 155.396 41.0821 154.468 40.727C153.577 40.3907 152.766 39.8762 152.086 39.2158C151.405 38.5553 150.869 37.763 150.512 36.8883C150.11 35.8739 149.913 34.7916 149.93 33.7023C149.92 32.6665 150.118 31.6391 150.512 30.6793C150.88 29.7775 151.424 28.956 152.112 28.261C152.792 27.5663 153.608 27.0152 154.51 26.6408C155.411 26.2664 156.38 26.0765 157.358 26.0826C157.829 26.0833 158.298 26.1413 158.754 26.2553C159.22 26.3708 159.671 26.5349 160.102 26.7447C160.536 26.9494 160.951 27.1902 161.343 27.4645C161.731 27.7412 162.1 28.0425 162.449 28.3666L163.884 26.6584H164.786L164.776 39.1627Z" fill="white"/>
<path fill-rule="evenodd" clip-rule="evenodd" d="M169.072 24.7106V20.5841H167.521V20.0371H171.264V20.5841H169.702V24.7106H169.072Z" fill="#ED1D88"/>
<path fill-rule="evenodd" clip-rule="evenodd" d="M171.895 24.7106V20.0371H172.864L173.989 23.3383L174.212 24.0293C174.261 23.8661 174.348 23.6166 174.464 23.2808L175.599 20.0371H176.433V24.7106H175.841V20.7952L174.455 24.7106H173.892L172.535 20.7281V24.7106H171.895Z" fill="#ED1D88"/>
<path fill-rule="evenodd" clip-rule="evenodd" d="M169.072 24.7106V20.5841H167.521V20.0371H171.264V20.5841H169.702V24.7106H169.072Z" stroke="#ED1D88" stroke-width="0.22" stroke-miterlimit="22.93"/>
<path fill-rule="evenodd" clip-rule="evenodd" d="M171.895 24.7106V20.0371H172.864L173.989 23.3383L174.212 24.0293C174.261 23.8661 174.348 23.6166 174.464 23.2808L175.599 20.0371H176.433V24.7106H175.841V20.7952L174.455 24.7106H173.892L172.535 20.7281V24.7106H171.895Z" stroke="#ED1D88" stroke-width="0.22" stroke-miterlimit="22.93"/>
</g>
<defs>
<clipPath id="clip0_9208_64587">
<rect width="176" height="54" fill="white" transform="translate(0.5)"/>
</clipPath>
</defs>
</svg>
